M48
; DRILL file {KiCad 9.0.5} date 2025-10-20T09:35:23-0300
; FORMAT={-:-/ absolute / metric / decimal}
; #@! TF.CreationDate,2025-10-20T09:35:23-03:00
; #@! TF.GenerationSoftware,Kicad,Pcbnew,9.0.5
; #@! TF.FileFunction,Plated,1,2,PTH
FMAT,2
METRIC
; #@! TA.AperFunction,Plated,PTH,ViaDrill
T1C0.450
; #@! TA.AperFunction,Plated,PTH,ComponentDrill
T2C0.800
; #@! TA.AperFunction,Plated,PTH,ComponentDrill
T3C1.000
; #@! TA.AperFunction,Plated,PTH,ComponentDrill
T4C1.100
; #@! TA.AperFunction,Plated,PTH,ViaDrill
T5C2.000
%
G90
G05
T1
X147.4Y-84.4
X147.4Y-91.112
X168.707Y-102.591
X169.012Y-103.861
X169.342Y-108.7
X173.488Y-86.7
X173.8Y-102.3
X173.8Y-104.2
X173.888Y-109.576
X173.888Y-116.4
X176.388Y-98.1
X177.235Y-107.334
X178.511Y-102.083
X178.537Y-103.861
X180.2Y-86.7
X180.6Y-109.576
X180.6Y-116.4
X182.788Y-82.8
X183.1Y-98.1
X183.147Y-104.699
X183.159Y-101.752
X183.956Y-104.699
X183.969Y-101.752
X184.766Y-104.699
X184.779Y-101.752
X185.576Y-104.699
X185.588Y-101.752
X186.385Y-104.699
X186.398Y-101.752
X187.195Y-104.699
X187.208Y-101.752
X187.561Y-106.07
X188.004Y-104.699
X188.017Y-101.752
X188.814Y-104.699
X188.827Y-101.752
X189.5Y-82.8
X189.636Y-101.752
X196.688Y-112.2
X197.282Y-105.639
X198.044Y-105.639
X198.12Y-102.768
X198.806Y-105.639
X198.882Y-102.768
X199.568Y-105.639
X199.644Y-102.768
X199.818Y-101.219
X200.33Y-105.639
X200.331Y-90.018
X200.406Y-102.768
X201.092Y-105.639
X201.168Y-102.768
X201.854Y-105.639
X201.93Y-102.768
X202.616Y-105.639
X202.692Y-102.768
X203.378Y-105.639
X203.4Y-112.2
X203.454Y-102.768
X204.14Y-105.639
X204.216Y-102.768
X204.902Y-105.639
X204.978Y-102.768
X205.6Y-85.0
X205.6Y-91.712
X205.664Y-105.639
X205.74Y-102.768
X206.426Y-105.639
X206.502Y-102.768
X207.188Y-105.639
X207.264Y-102.768
X207.95Y-105.639
X208.026Y-102.768
X208.712Y-105.639
X208.788Y-102.768
X208.813Y-99.695
X208.813Y-100.457
X208.813Y-101.219
X208.813Y-101.981
X208.839Y-106.375
X208.839Y-107.137
X208.839Y-107.899
X208.839Y-108.636
X209.575Y-99.695
X209.601Y-108.788
X210.337Y-99.695
X210.363Y-108.788
X211.099Y-99.695
X211.125Y-108.788
X211.861Y-99.695
X211.887Y-108.788
X212.623Y-99.695
X212.649Y-108.788
X213.385Y-99.695
X213.411Y-108.788
T2
X152.324Y-85.067
X152.324Y-89.967
X156.921Y-67.869
X156.921Y-78.029
X162.814Y-83.337
X165.354Y-80.797
X167.894Y-83.337
X177.368Y-74.203
X177.368Y-78.003
X186.538Y-67.031
X186.538Y-77.191
X192.837Y-82.525
X195.377Y-79.985
X197.917Y-82.525
T3
X149.777Y-107.643
X152.317Y-107.643
X154.857Y-107.643
X164.236Y-68.909
X166.776Y-68.909
X193.929Y-68.428
X196.469Y-68.428
T4
X160.325Y-74.421
X160.35Y-78.003
X170.485Y-74.421
X170.51Y-78.003
X190.221Y-73.381
X190.246Y-77.14
X200.381Y-73.381
X200.406Y-77.14
T5
X193.726Y-103.463
M30
