%TF.GenerationSoftware,KiCad,Pcbnew,9.0.5*%
%TF.CreationDate,2025-10-20T09:35:52-03:00*%
%TF.ProjectId,synthesizer,73796e74-6865-4736-997a-65722e6b6963,rev?*%
%TF.SameCoordinates,Original*%
%TF.FileFunction,Copper,L2,Bot*%
%TF.FilePolarity,Positive*%
%FSLAX46Y46*%
G04 Gerber Fmt 4.6, Leading zero omitted, Abs format (unit mm)*
G04 Created by KiCad (PCBNEW 9.0.5) date 2025-10-20 09:35:52*
%MOMM*%
%LPD*%
G01*
G04 APERTURE LIST*
G04 Aperture macros list*
%AMRoundRect*
0 Rectangle with rounded corners*
0 $1 Rounding radius*
0 $2 $3 $4 $5 $6 $7 $8 $9 X,Y pos of 4 corners*
0 Add a 4 corners polygon primitive as box body*
4,1,4,$2,$3,$4,$5,$6,$7,$8,$9,$2,$3,0*
0 Add four circle primitives for the rounded corners*
1,1,$1+$1,$2,$3*
1,1,$1+$1,$4,$5*
1,1,$1+$1,$6,$7*
1,1,$1+$1,$8,$9*
0 Add four rect primitives between the rounded corners*
20,1,$1+$1,$2,$3,$4,$5,0*
20,1,$1+$1,$4,$5,$6,$7,0*
20,1,$1+$1,$6,$7,$8,$9,0*
20,1,$1+$1,$8,$9,$2,$3,0*%
G04 Aperture macros list end*
%TA.AperFunction,SMDPad,CuDef*%
%ADD10R,4.060000X1.520000*%
%TD*%
%TA.AperFunction,ComponentPad*%
%ADD11RoundRect,0.249999X0.850001X0.850001X-0.850001X0.850001X-0.850001X-0.850001X0.850001X-0.850001X0*%
%TD*%
%TA.AperFunction,ComponentPad*%
%ADD12C,2.200000*%
%TD*%
%TA.AperFunction,ComponentPad*%
%ADD13C,2.000000*%
%TD*%
%TA.AperFunction,ComponentPad*%
%ADD14R,1.500000X1.500000*%
%TD*%
%TA.AperFunction,ComponentPad*%
%ADD15C,1.500000*%
%TD*%
%TA.AperFunction,ComponentPad*%
%ADD16RoundRect,0.250000X0.550000X-0.550000X0.550000X0.550000X-0.550000X0.550000X-0.550000X-0.550000X0*%
%TD*%
%TA.AperFunction,ComponentPad*%
%ADD17C,1.600000*%
%TD*%
%TA.AperFunction,ComponentPad*%
%ADD18RoundRect,0.250000X-0.500000X-0.500000X0.500000X-0.500000X0.500000X0.500000X-0.500000X0.500000X0*%
%TD*%
%TA.AperFunction,ComponentPad*%
%ADD19R,1.700000X1.700000*%
%TD*%
%TA.AperFunction,ComponentPad*%
%ADD20C,1.700000*%
%TD*%
%TA.AperFunction,ViaPad*%
%ADD21C,0.600000*%
%TD*%
%TA.AperFunction,ViaPad*%
%ADD22C,2.500000*%
%TD*%
%TA.AperFunction,Profile*%
%ADD23C,0.050000*%
%TD*%
G04 APERTURE END LIST*
D10*
%TO.P,J5,4*%
%TO.N,GND*%
X211790200Y-106752900D03*
%TO.P,J5,5*%
X211790200Y-101672900D03*
%TD*%
D11*
%TO.P,D5,1,K*%
%TO.N,+12V*%
X170510200Y-78002651D03*
D12*
%TO.P,D5,2,A*%
%TO.N,Net-(D5-A)*%
X160350200Y-78002651D03*
%TD*%
D13*
%TO.P,R6,1*%
%TO.N,Net-(D5-A)*%
X156921200Y-78028800D03*
%TO.P,R6,2*%
%TO.N,GND*%
X156921200Y-67868800D03*
%TD*%
D11*
%TO.P,D1,1,K*%
%TO.N,+12V*%
X170484800Y-74421251D03*
D12*
%TO.P,D1,2,A*%
%TO.N,GND*%
X160324800Y-74421251D03*
%TD*%
D14*
%TO.P,D7,1,K*%
%TO.N,GND*%
X192836800Y-82524600D03*
D15*
%TO.P,D7,2,G*%
%TO.N,Net-(D3-A)*%
X195376800Y-79984600D03*
%TO.P,D7,3,A*%
%TO.N,+5V*%
X197916800Y-82524600D03*
%TD*%
D16*
%TO.P,C15,1*%
%TO.N,+12V*%
X177368200Y-78002651D03*
D17*
%TO.P,C15,2*%
%TO.N,GND*%
X177368200Y-74202651D03*
%TD*%
D18*
%TO.P,D8,1,K*%
%TO.N,GND*%
X162814000Y-83336651D03*
D15*
%TO.P,D8,2,G*%
%TO.N,Net-(D5-A)*%
X165354000Y-80796651D03*
%TO.P,D8,3,A*%
%TO.N,+12V*%
X167894000Y-83336651D03*
%TD*%
D19*
%TO.P,J2,1,Pin_1*%
%TO.N,+5V*%
X196469000Y-68427600D03*
D20*
%TO.P,J2,2,Pin_2*%
%TO.N,GND*%
X193929000Y-68427600D03*
%TD*%
D15*
%TO.P,Crystal1,1,1*%
%TO.N,Net-(SP1-Crystal)*%
X152323800Y-89966800D03*
%TO.P,Crystal1,2,2*%
%TO.N,GND*%
X152323800Y-85066800D03*
%TD*%
D11*
%TO.P,D3,1,K*%
%TO.N,+5V*%
X200406000Y-77139800D03*
D12*
%TO.P,D3,2,A*%
%TO.N,Net-(D3-A)*%
X190246000Y-77139800D03*
%TD*%
D19*
%TO.P,J4,1,Pin_1*%
%TO.N,+12V*%
X166776400Y-68909451D03*
D20*
%TO.P,J4,2,Pin_2*%
%TO.N,GND*%
X164236400Y-68909451D03*
%TD*%
D13*
%TO.P,R7,1*%
%TO.N,Net-(D3-A)*%
X186537600Y-77190600D03*
%TO.P,R7,2*%
%TO.N,GND*%
X186537600Y-67030600D03*
%TD*%
D11*
%TO.P,D2,1,K*%
%TO.N,+5V*%
X200380600Y-73380600D03*
D12*
%TO.P,D2,2,A*%
%TO.N,GND*%
X190220600Y-73380600D03*
%TD*%
D19*
%TO.P,J1,1,Pin_1*%
%TO.N,Net-(J1-Pin_1)*%
X149777000Y-107643000D03*
D20*
%TO.P,J1,2,Pin_2*%
%TO.N,GND*%
X152317000Y-107643000D03*
%TO.P,J1,3,Pin_3*%
%TO.N,Net-(J1-Pin_3)*%
X154857000Y-107643000D03*
%TD*%
D21*
%TO.N,GND*%
X201853800Y-105638600D03*
X199817900Y-101219000D03*
X182788400Y-82800000D03*
X207949800Y-105638600D03*
X208813400Y-100457000D03*
X196688400Y-112200000D03*
X213385400Y-99695000D03*
X207187800Y-105638600D03*
X188814075Y-104698800D03*
X147400000Y-91111600D03*
X204901800Y-105638600D03*
X208711800Y-105638600D03*
X173488400Y-86700000D03*
X209575400Y-99695000D03*
X205600000Y-85000000D03*
X188004450Y-104698800D03*
X211124800Y-108788200D03*
X201930000Y-102768400D03*
X180200000Y-86700000D03*
X207264000Y-102768400D03*
X208813400Y-101219000D03*
X178536600Y-103860600D03*
X199644000Y-102768400D03*
X209600800Y-108788200D03*
X204139800Y-105638600D03*
X169011600Y-103860600D03*
X187207525Y-101752400D03*
X198043800Y-105638600D03*
X173888400Y-109575600D03*
X183969025Y-101752400D03*
X186397900Y-101752400D03*
X205663800Y-105638600D03*
X197281800Y-105638600D03*
X187194825Y-104698800D03*
X201168000Y-102768400D03*
X208838800Y-107899200D03*
X188017150Y-101752400D03*
X185575575Y-104698800D03*
X211886800Y-108788200D03*
X208838800Y-107137200D03*
X147400000Y-84400000D03*
X213410800Y-108788200D03*
X189500000Y-82800000D03*
X183146700Y-104698800D03*
X200329800Y-105638600D03*
X183159400Y-101752400D03*
X173800000Y-104200000D03*
X184778650Y-101752400D03*
X186385200Y-104698800D03*
X212648800Y-108788200D03*
X180600000Y-109575600D03*
X183956325Y-104698800D03*
X203454000Y-102768400D03*
X212623400Y-99695000D03*
X199567800Y-105638600D03*
X173800000Y-102300000D03*
X211861400Y-99695000D03*
X185588275Y-101752400D03*
X210337400Y-99695000D03*
D22*
X193725800Y-103462900D03*
D21*
X208838800Y-108635800D03*
X169341800Y-108700000D03*
X208838800Y-106375200D03*
X184765950Y-104698800D03*
X183100000Y-98100000D03*
X206502000Y-102768400D03*
X198120000Y-102768400D03*
X202692000Y-102768400D03*
X205740000Y-102768400D03*
X205600000Y-91711600D03*
X189636400Y-101752400D03*
X208813400Y-101981000D03*
X201091800Y-105638600D03*
X202615800Y-105638600D03*
X206425800Y-105638600D03*
X176388400Y-98100000D03*
X203400000Y-112200000D03*
X203377800Y-105638600D03*
X178511200Y-102082600D03*
X200406000Y-102768400D03*
X204216000Y-102768400D03*
X211099400Y-99695000D03*
X208026000Y-102768400D03*
X187561400Y-106070400D03*
X168706800Y-102590600D03*
X200330600Y-90017600D03*
X198805800Y-105638600D03*
X177234600Y-107333800D03*
X173888400Y-116400000D03*
X210362800Y-108788200D03*
X208813400Y-99695000D03*
X208788000Y-102768400D03*
X204978000Y-102768400D03*
X188826775Y-101752400D03*
X180600000Y-116400000D03*
X198882000Y-102768400D03*
%TD*%
%TA.AperFunction,Conductor*%
%TO.N,GND*%
G36*
X214453539Y-64782185D02*
G01*
X214499294Y-64834989D01*
X214510500Y-64886500D01*
X214510500Y-100645614D01*
X214490815Y-100712653D01*
X214438011Y-100758408D01*
X214368853Y-100768352D01*
X214305297Y-100739327D01*
X214270318Y-100688948D01*
X214263553Y-100670812D01*
X214263550Y-100670806D01*
X214177390Y-100555712D01*
X214177387Y-100555709D01*
X214062293Y-100469549D01*
X214062286Y-100469545D01*
X213927579Y-100419303D01*
X213927572Y-100419301D01*
X213868044Y-100412900D01*
X212290200Y-100412900D01*
X212290200Y-102932900D01*
X213868028Y-102932900D01*
X213868044Y-102932899D01*
X213927572Y-102926498D01*
X213927579Y-102926496D01*
X214062286Y-102876254D01*
X214062293Y-102876250D01*
X214177387Y-102790090D01*
X214177390Y-102790087D01*
X214263550Y-102674993D01*
X214263554Y-102674986D01*
X214270318Y-102656852D01*
X214312189Y-102600918D01*
X214377653Y-102576501D01*
X214445926Y-102591352D01*
X214495332Y-102640757D01*
X214510500Y-102700185D01*
X214510500Y-105725614D01*
X214490815Y-105792653D01*
X214438011Y-105838408D01*
X214368853Y-105848352D01*
X214305297Y-105819327D01*
X214270318Y-105768948D01*
X214263553Y-105750812D01*
X214263550Y-105750806D01*
X214177390Y-105635712D01*
X214177387Y-105635709D01*
X214062293Y-105549549D01*
X214062286Y-105549545D01*
X213927579Y-105499303D01*
X213927572Y-105499301D01*
X213868044Y-105492900D01*
X212290200Y-105492900D01*
X212290200Y-108012900D01*
X213868028Y-108012900D01*
X213868044Y-108012899D01*
X213927572Y-108006498D01*
X213927579Y-108006496D01*
X214062286Y-107956254D01*
X214062293Y-107956250D01*
X214177387Y-107870090D01*
X214177390Y-107870087D01*
X214263550Y-107754993D01*
X214263554Y-107754986D01*
X214270318Y-107736852D01*
X214312189Y-107680918D01*
X214377653Y-107656501D01*
X214445926Y-107671352D01*
X214495332Y-107720757D01*
X214510500Y-107780185D01*
X214510500Y-122528100D01*
X214490815Y-122595139D01*
X214438011Y-122640894D01*
X214386500Y-122652100D01*
X145709300Y-122652100D01*
X145642261Y-122632415D01*
X145596506Y-122579611D01*
X145585300Y-122528100D01*
X145585300Y-118678711D01*
X148649500Y-118678711D01*
X148649500Y-118921288D01*
X148681161Y-119161785D01*
X148743947Y-119396104D01*
X148836773Y-119620205D01*
X148836776Y-119620212D01*
X148958064Y-119830289D01*
X148958066Y-119830292D01*
X148958067Y-119830293D01*
X149105733Y-120022736D01*
X149105739Y-120022743D01*
X149277256Y-120194260D01*
X149277262Y-120194265D01*
X149469711Y-120341936D01*
X149679788Y-120463224D01*
X149903900Y-120556054D01*
X150138211Y-120618838D01*
X150318586Y-120642584D01*
X150378711Y-120650500D01*
X150378712Y-120650500D01*
X150621289Y-120650500D01*
X150669388Y-120644167D01*
X150861789Y-120618838D01*
X151096100Y-120556054D01*
X151320212Y-120463224D01*
X151530289Y-120341936D01*
X151722738Y-120194265D01*
X151894265Y-120022738D01*
X152041936Y-119830289D01*
X152163224Y-119620212D01*
X152256054Y-119396100D01*
X152318838Y-119161789D01*
X152350500Y-118921288D01*
X152350500Y-118805711D01*
X208149500Y-118805711D01*
X208149500Y-119048288D01*
X208181161Y-119288785D01*
X208243947Y-119523104D01*
X208336773Y-119747205D01*
X208336776Y-119747212D01*
X208458064Y-119957289D01*
X208458066Y-119957292D01*
X208458067Y-119957293D01*
X208605733Y-120149736D01*
X208605739Y-120149743D01*
X208777256Y-120321260D01*
X208777262Y-120321265D01*
X208969711Y-120468936D01*
X209179788Y-120590224D01*
X209403900Y-120683054D01*
X209638211Y-120745838D01*
X209818586Y-120769584D01*
X209878711Y-120777500D01*
X209878712Y-120777500D01*
X210121289Y-120777500D01*
X210169388Y-120771167D01*
X210361789Y-120745838D01*
X210596100Y-120683054D01*
X210820212Y-120590224D01*
X211030289Y-120468936D01*
X211222738Y-120321265D01*
X211394265Y-120149738D01*
X211541936Y-119957289D01*
X211663224Y-119747212D01*
X211756054Y-119523100D01*
X211818838Y-119288789D01*
X211850500Y-119048288D01*
X211850500Y-118805712D01*
X211818838Y-118565211D01*
X211756054Y-118330900D01*
X211663224Y-118106788D01*
X211541936Y-117896711D01*
X211394265Y-117704262D01*
X211394260Y-117704256D01*
X211222743Y-117532739D01*
X211222736Y-117532733D01*
X211030293Y-117385067D01*
X211030292Y-117385066D01*
X211030289Y-117385064D01*
X210820212Y-117263776D01*
X210820205Y-117263773D01*
X210596104Y-117170947D01*
X210361785Y-117108161D01*
X210121289Y-117076500D01*
X210121288Y-117076500D01*
X209878712Y-117076500D01*
X209878711Y-117076500D01*
X209638214Y-117108161D01*
X209403895Y-117170947D01*
X209179794Y-117263773D01*
X209179785Y-117263777D01*
X208969706Y-117385067D01*
X208777263Y-117532733D01*
X208777256Y-117532739D01*
X208605739Y-117704256D01*
X208605733Y-117704263D01*
X208458067Y-117896706D01*
X208336777Y-118106785D01*
X208336773Y-118106794D01*
X208243947Y-118330895D01*
X208181161Y-118565214D01*
X208149500Y-118805711D01*
X152350500Y-118805711D01*
X152350500Y-118678712D01*
X152318838Y-118438211D01*
X152256054Y-118203900D01*
X152163224Y-117979788D01*
X152041936Y-117769711D01*
X151894265Y-117577262D01*
X151894260Y-117577256D01*
X151722743Y-117405739D01*
X151722736Y-117405733D01*
X151530293Y-117258067D01*
X151530292Y-117258066D01*
X151530289Y-117258064D01*
X151320212Y-117136776D01*
X151251132Y-117108162D01*
X151096104Y-117043947D01*
X150861785Y-116981161D01*
X150621289Y-116949500D01*
X150621288Y-116949500D01*
X150378712Y-116949500D01*
X150378711Y-116949500D01*
X150138214Y-116981161D01*
X149903895Y-117043947D01*
X149679794Y-117136773D01*
X149679785Y-117136777D01*
X149469706Y-117258067D01*
X149277263Y-117405733D01*
X149277256Y-117405739D01*
X149105739Y-117577256D01*
X149105733Y-117577263D01*
X148958067Y-117769706D01*
X148836777Y-117979785D01*
X148836773Y-117979794D01*
X148743947Y-118203895D01*
X148681161Y-118438214D01*
X148649500Y-118678711D01*
X145585300Y-118678711D01*
X145585300Y-106745135D01*
X148426500Y-106745135D01*
X148426500Y-108540870D01*
X148426501Y-108540876D01*
X148432908Y-108600483D01*
X148483202Y-108735328D01*
X148483206Y-108735335D01*
X148569452Y-108850544D01*
X148569455Y-108850547D01*
X148684664Y-108936793D01*
X148684671Y-108936797D01*
X148819517Y-108987091D01*
X148819516Y-108987091D01*
X148826444Y-108987835D01*
X148879127Y-108993500D01*
X150674872Y-108993499D01*
X150734483Y-108987091D01*
X150869331Y-108936796D01*
X150937992Y-108885396D01*
X151781708Y-108885396D01*
X151798780Y-108894094D01*
X152000871Y-108959757D01*
X152210754Y-108993000D01*
X152423246Y-108993000D01*
X152633127Y-108959757D01*
X152633130Y-108959757D01*
X152835218Y-108894094D01*
X152835220Y-108894093D01*
X152852289Y-108885395D01*
X152852290Y-108885395D01*
X152317001Y-108350106D01*
X152317000Y-108350106D01*
X151781708Y-108885396D01*
X150937992Y-108885396D01*
X150984546Y-108850546D01*
X151070796Y-108735331D01*
X151121091Y-108600483D01*
X151127500Y-108540873D01*
X151127499Y-108176753D01*
X151147183Y-108109717D01*
X151163818Y-108089075D01*
X151609894Y-107643000D01*
X151544068Y-107577174D01*
X151817000Y-107577174D01*
X151817000Y-107708826D01*
X151851075Y-107835993D01*
X151916901Y-107950007D01*
X152009993Y-108043099D01*
X152124007Y-108108925D01*
X152251174Y-108143000D01*
X152382826Y-108143000D01*
X152509993Y-108108925D01*
X152624007Y-108043099D01*
X152717099Y-107950007D01*
X152782925Y-107835993D01*
X152817000Y-107708826D01*
X152817000Y-107642999D01*
X153024106Y-107642999D01*
X153024106Y-107643000D01*
X153572082Y-108190977D01*
X153590269Y-108193327D01*
X153643722Y-108238321D01*
X153650862Y-108250552D01*
X153701951Y-108350820D01*
X153826890Y-108522786D01*
X153977213Y-108673109D01*
X154149179Y-108798048D01*
X154149181Y-108798049D01*
X154149184Y-108798051D01*
X154338588Y-108894557D01*
X154540757Y-108960246D01*
X154750713Y-108993500D01*
X154750714Y-108993500D01*
X154963286Y-108993500D01*
X154963287Y-108993500D01*
X155173243Y-108960246D01*
X155375412Y-108894557D01*
X155564816Y-108798051D01*
X155651138Y-108735335D01*
X155736786Y-108673109D01*
X155736788Y-108673106D01*
X155736792Y-108673104D01*
X155887104Y-108522792D01*
X155887106Y-108522788D01*
X155887109Y-108522786D01*
X156012048Y-108350820D01*
X156012047Y-108350820D01*
X156012051Y-108350816D01*
X156108557Y-108161412D01*
X156174246Y-107959243D01*
X156207500Y-107749287D01*
X156207500Y-107560744D01*
X209260200Y-107560744D01*
X209266601Y-107620272D01*
X209266603Y-107620279D01*
X209316845Y-107754986D01*
X209316849Y-107754993D01*
X209403009Y-107870087D01*
X209403012Y-107870090D01*
X209518106Y-107956250D01*
X209518113Y-107956254D01*
X209652820Y-108006496D01*
X209652827Y-108006498D01*
X209712355Y-108012899D01*
X209712372Y-108012900D01*
X211290200Y-108012900D01*
X211290200Y-107252900D01*
X209260200Y-107252900D01*
X209260200Y-107560744D01*
X156207500Y-107560744D01*
X156207500Y-107536713D01*
X156174246Y-107326757D01*
X156108557Y-107124588D01*
X156108555Y-107124585D01*
X156108555Y-107124583D01*
X156055705Y-107020861D01*
X156012051Y-106935184D01*
X156012049Y-106935181D01*
X156012048Y-106935179D01*
X155887109Y-106763213D01*
X155736786Y-106612890D01*
X155564820Y-106487951D01*
X155375414Y-106391444D01*
X155375413Y-106391443D01*
X155375412Y-106391443D01*
X155173243Y-106325754D01*
X155173241Y-106325753D01*
X155173240Y-106325753D01*
X155011957Y-106300208D01*
X154963287Y-106292500D01*
X154750713Y-106292500D01*
X154702042Y-106300208D01*
X154540760Y-106325753D01*
X154338585Y-106391444D01*
X154149179Y-106487951D01*
X153977213Y-106612890D01*
X153826890Y-106763213D01*
X153701949Y-106935182D01*
X153650861Y-107035447D01*
X153602887Y-107086242D01*
X153573614Y-107093490D01*
X153024106Y-107642999D01*
X152817000Y-107642999D01*
X152817000Y-107577174D01*
X152782925Y-107450007D01*
X152717099Y-107335993D01*
X152624007Y-107242901D01*
X152509993Y-107177075D01*
X152382826Y-107143000D01*
X152251174Y-107143000D01*
X152124007Y-107177075D01*
X152009993Y-107242901D01*
X151916901Y-107335993D01*
X151851075Y-107450007D01*
X151817000Y-107577174D01*
X151544068Y-107577174D01*
X151163818Y-107196924D01*
X151130333Y-107135601D01*
X151127499Y-107109243D01*
X151127499Y-106745129D01*
X151127498Y-106745123D01*
X151127497Y-106745116D01*
X151121091Y-106685517D01*
X151070796Y-106550669D01*
X150984546Y-106435454D01*
X150937991Y-106400603D01*
X151781709Y-106400603D01*
X152317000Y-106935894D01*
X152317001Y-106935894D01*
X152852290Y-106400603D01*
X152852289Y-106400602D01*
X152835225Y-106391908D01*
X152835213Y-106391903D01*
X152633128Y-106326242D01*
X152423246Y-106293000D01*
X152210754Y-106293000D01*
X152000872Y-106326242D01*
X152000869Y-106326242D01*
X151798783Y-106391904D01*
X151781709Y-106400603D01*
X150937991Y-106400603D01*
X150937990Y-106400602D01*
X150869335Y-106349206D01*
X150869328Y-106349202D01*
X150734482Y-106298908D01*
X150734483Y-106298908D01*
X150674883Y-106292501D01*
X150674881Y-106292500D01*
X150674873Y-106292500D01*
X150674864Y-106292500D01*
X148879129Y-106292500D01*
X148879123Y-106292501D01*
X148819516Y-106298908D01*
X148684671Y-106349202D01*
X148684664Y-106349206D01*
X148569455Y-106435452D01*
X148569452Y-106435455D01*
X148483206Y-106550664D01*
X148483202Y-106550671D01*
X148432908Y-106685517D01*
X148426501Y-106745116D01*
X148426501Y-106745123D01*
X148426500Y-106745135D01*
X145585300Y-106745135D01*
X145585300Y-105945055D01*
X209260200Y-105945055D01*
X209260200Y-106252900D01*
X211290200Y-106252900D01*
X211290200Y-105492900D01*
X209712355Y-105492900D01*
X209652827Y-105499301D01*
X209652820Y-105499303D01*
X209518113Y-105549545D01*
X209518106Y-105549549D01*
X209403012Y-105635709D01*
X209403009Y-105635712D01*
X209316849Y-105750806D01*
X209316845Y-105750813D01*
X209266603Y-105885520D01*
X209266601Y-105885527D01*
X209260200Y-105945055D01*
X145585300Y-105945055D01*
X145585300Y-102480744D01*
X209260200Y-102480744D01*
X209266601Y-102540272D01*
X209266603Y-102540279D01*
X209316845Y-102674986D01*
X209316849Y-102674993D01*
X209403009Y-102790087D01*
X209403012Y-102790090D01*
X209518106Y-102876250D01*
X209518113Y-102876254D01*
X209652820Y-102926496D01*
X209652827Y-102926498D01*
X209712355Y-102932899D01*
X209712372Y-102932900D01*
X211290200Y-102932900D01*
X211290200Y-102172900D01*
X209260200Y-102172900D01*
X209260200Y-102480744D01*
X145585300Y-102480744D01*
X145585300Y-100865055D01*
X209260200Y-100865055D01*
X209260200Y-101172900D01*
X211290200Y-101172900D01*
X211290200Y-100412900D01*
X209712355Y-100412900D01*
X209652827Y-100419301D01*
X209652820Y-100419303D01*
X209518113Y-100469545D01*
X209518106Y-100469549D01*
X209403012Y-100555709D01*
X209403009Y-100555712D01*
X209316849Y-100670806D01*
X209316845Y-100670813D01*
X209266603Y-100805520D01*
X209266601Y-100805527D01*
X209260200Y-100865055D01*
X145585300Y-100865055D01*
X145585300Y-89868377D01*
X151073300Y-89868377D01*
X151073300Y-90065222D01*
X151104090Y-90259626D01*
X151164917Y-90446829D01*
X151254276Y-90622205D01*
X151369972Y-90781446D01*
X151509154Y-90920628D01*
X151668395Y-91036324D01*
X151751255Y-91078543D01*
X151843770Y-91125682D01*
X151843772Y-91125682D01*
X151843775Y-91125684D01*
X151944117Y-91158287D01*
X152030973Y-91186509D01*
X152225378Y-91217300D01*
X152225383Y-91217300D01*
X152422222Y-91217300D01*
X152616626Y-91186509D01*
X152803825Y-91125684D01*
X152979205Y-91036324D01*
X153138446Y-90920628D01*
X153277628Y-90781446D01*
X153393324Y-90622205D01*
X153482684Y-90446825D01*
X153543509Y-90259626D01*
X153574300Y-90065222D01*
X153574300Y-89868377D01*
X153543509Y-89673973D01*
X153482682Y-89486770D01*
X153393323Y-89311394D01*
X153277628Y-89152154D01*
X153138446Y-89012972D01*
X152979205Y-88897276D01*
X152803829Y-88807917D01*
X152616626Y-88747090D01*
X152422222Y-88716300D01*
X152422217Y-88716300D01*
X152225383Y-88716300D01*
X152225378Y-88716300D01*
X152030973Y-88747090D01*
X151843770Y-88807917D01*
X151668394Y-88897276D01*
X151577541Y-88963285D01*
X151509154Y-89012972D01*
X151509152Y-89012974D01*
X151509151Y-89012974D01*
X151369974Y-89152151D01*
X151369974Y-89152152D01*
X151369972Y-89152154D01*
X151320285Y-89220541D01*
X151254276Y-89311394D01*
X151164917Y-89486770D01*
X151104090Y-89673973D01*
X151073300Y-89868377D01*
X145585300Y-89868377D01*
X145585300Y-86232214D01*
X151865491Y-86232214D01*
X152031094Y-86286021D01*
X152225418Y-86316800D01*
X152422182Y-86316800D01*
X152616503Y-86286021D01*
X152782107Y-86232213D01*
X152323801Y-85773906D01*
X152323800Y-85773906D01*
X151865491Y-86232214D01*
X145585300Y-86232214D01*
X145585300Y-84968417D01*
X151073800Y-84968417D01*
X151073800Y-85165182D01*
X151104579Y-85359510D01*
X151104579Y-85359513D01*
X151158384Y-85525107D01*
X151158385Y-85525107D01*
X151616693Y-85066800D01*
X151564032Y-85014139D01*
X151923800Y-85014139D01*
X151923800Y-85119461D01*
X151951059Y-85221194D01*
X152003720Y-85312406D01*
X152078194Y-85386880D01*
X152169406Y-85439541D01*
X152271139Y-85466800D01*
X152376461Y-85466800D01*
X152478194Y-85439541D01*
X152569406Y-85386880D01*
X152643880Y-85312406D01*
X152696541Y-85221194D01*
X152723800Y-85119461D01*
X152723800Y-85066800D01*
X153030906Y-85066800D01*
X153489213Y-85525106D01*
X153543021Y-85359503D01*
X153573800Y-85165182D01*
X153573800Y-84968417D01*
X153543021Y-84774094D01*
X153543021Y-84774093D01*
X153489214Y-84608491D01*
X153030906Y-85066800D01*
X152723800Y-85066800D01*
X152723800Y-85014139D01*
X152696541Y-84912406D01*
X152643880Y-84821194D01*
X152569406Y-84746720D01*
X152478194Y-84694059D01*
X152376461Y-84666800D01*
X152271139Y-84666800D01*
X152169406Y-84694059D01*
X152078194Y-84746720D01*
X152003720Y-84821194D01*
X151951059Y-84912406D01*
X151923800Y-85014139D01*
X151564032Y-85014139D01*
X151158384Y-84608491D01*
X151104579Y-84774089D01*
X151073800Y-84968417D01*
X145585300Y-84968417D01*
X145585300Y-83901384D01*
X151865491Y-83901384D01*
X152323800Y-84359693D01*
X152323801Y-84359693D01*
X152782107Y-83901385D01*
X152782107Y-83901384D01*
X152736720Y-83886637D01*
X161564001Y-83886637D01*
X161574494Y-83989348D01*
X161629641Y-84155770D01*
X161629643Y-84155775D01*
X161721684Y-84304996D01*
X161845654Y-84428966D01*
X161994875Y-84521007D01*
X161994880Y-84521009D01*
X162161302Y-84576156D01*
X162161309Y-84576157D01*
X162264019Y-84586650D01*
X163314000Y-84586650D01*
X163363972Y-84586650D01*
X163363986Y-84586649D01*
X163466697Y-84576156D01*
X163633119Y-84521009D01*
X163633124Y-84521007D01*
X163782345Y-84428966D01*
X163906315Y-84304996D01*
X163998356Y-84155775D01*
X163998358Y-84155770D01*
X164053505Y-83989348D01*
X164053506Y-83989341D01*
X164063999Y-83886637D01*
X164064000Y-83886624D01*
X164064000Y-83836651D01*
X163314000Y-83836651D01*
X163314000Y-84586650D01*
X162264019Y-84586650D01*
X162313999Y-84586649D01*
X162314000Y-84586649D01*
X162314000Y-83836651D01*
X161564001Y-83836651D01*
X161564001Y-83886637D01*
X152736720Y-83886637D01*
X152616511Y-83847579D01*
X152422182Y-83816800D01*
X152225418Y-83816800D01*
X152031089Y-83847579D01*
X151865491Y-83901384D01*
X145585300Y-83901384D01*
X145585300Y-83283990D01*
X162414000Y-83283990D01*
X162414000Y-83389312D01*
X162441259Y-83491045D01*
X162493920Y-83582257D01*
X162568394Y-83656731D01*
X162659606Y-83709392D01*
X162761339Y-83736651D01*
X162866661Y-83736651D01*
X162968394Y-83709392D01*
X163059606Y-83656731D01*
X163134080Y-83582257D01*
X163186741Y-83491045D01*
X163214000Y-83389312D01*
X163214000Y-83283990D01*
X163201738Y-83238228D01*
X166643500Y-83238228D01*
X166643500Y-83435073D01*
X166674290Y-83629477D01*
X166735117Y-83816680D01*
X166778277Y-83901385D01*
X166824476Y-83992056D01*
X166940172Y-84151297D01*
X167079354Y-84290479D01*
X167238595Y-84406175D01*
X167321455Y-84448394D01*
X167413970Y-84495533D01*
X167413972Y-84495533D01*
X167413975Y-84495535D01*
X167514317Y-84528138D01*
X167601173Y-84556360D01*
X167795578Y-84587151D01*
X167795583Y-84587151D01*
X167992422Y-84587151D01*
X168186826Y-84556360D01*
X168374025Y-84495535D01*
X168549405Y-84406175D01*
X168708646Y-84290479D01*
X168847828Y-84151297D01*
X168963524Y-83992056D01*
X169052884Y-83816676D01*
X169113709Y-83629477D01*
X169119308Y-83594124D01*
X169144500Y-83435073D01*
X169144500Y-83322444D01*
X191586800Y-83322444D01*
X191593201Y-83381972D01*
X191593203Y-83381979D01*
X191643445Y-83516686D01*
X191643449Y-83516693D01*
X191729609Y-83631787D01*
X191729612Y-83631790D01*
X191844706Y-83717950D01*
X191844713Y-83717954D01*
X191979420Y-83768196D01*
X191979427Y-83768198D01*
X192038955Y-83774599D01*
X192038972Y-83774600D01*
X192336800Y-83774600D01*
X193336800Y-83774600D01*
X193634628Y-83774600D01*
X193634644Y-83774599D01*
X193694172Y-83768198D01*
X193694179Y-83768196D01*
X193828886Y-83717954D01*
X193828893Y-83717950D01*
X193943987Y-83631790D01*
X193943990Y-83631787D01*
X194030150Y-83516693D01*
X194030154Y-83516686D01*
X194080396Y-83381979D01*
X194080398Y-83381972D01*
X194086799Y-83322444D01*
X194086800Y-83322427D01*
X194086800Y-83024600D01*
X193336800Y-83024600D01*
X193336800Y-83774600D01*
X192336800Y-83774600D01*
X192336800Y-83024600D01*
X191586800Y-83024600D01*
X191586800Y-83322444D01*
X169144500Y-83322444D01*
X169144500Y-83238228D01*
X169121188Y-83091045D01*
X169113709Y-83043825D01*
X169113708Y-83043821D01*
X169113708Y-83043820D01*
X169103225Y-83011556D01*
X169052882Y-82856621D01*
X169005743Y-82764106D01*
X168963524Y-82681246D01*
X168847828Y-82522005D01*
X168797762Y-82471939D01*
X192436800Y-82471939D01*
X192436800Y-82577261D01*
X192464059Y-82678994D01*
X192516720Y-82770206D01*
X192591194Y-82844680D01*
X192682406Y-82897341D01*
X192784139Y-82924600D01*
X192889461Y-82924600D01*
X192991194Y-82897341D01*
X193082406Y-82844680D01*
X193156880Y-82770206D01*
X193209541Y-82678994D01*
X193236800Y-82577261D01*
X193236800Y-82471939D01*
X193224538Y-82426177D01*
X196666300Y-82426177D01*
X196666300Y-82623022D01*
X196697090Y-82817426D01*
X196757917Y-83004629D01*
X196847276Y-83180005D01*
X196962972Y-83339246D01*
X197102154Y-83478428D01*
X197261395Y-83594124D01*
X197330780Y-83629477D01*
X197436770Y-83683482D01*
X197436772Y-83683482D01*
X197436775Y-83683484D01*
X197516511Y-83709392D01*
X197623973Y-83744309D01*
X197818378Y-83775100D01*
X197818383Y-83775100D01*
X198015222Y-83775100D01*
X198209626Y-83744309D01*
X198396825Y-83683484D01*
X198572205Y-83594124D01*
X198731446Y-83478428D01*
X198870628Y-83339246D01*
X198986324Y-83180005D01*
X199075684Y-83004625D01*
X199136509Y-82817426D01*
X199158078Y-82681245D01*
X199167300Y-82623022D01*
X199167300Y-82426177D01*
X199136509Y-82231773D01*
X199101686Y-82124600D01*
X199075684Y-82044575D01*
X199075682Y-82044572D01*
X199075682Y-82044570D01*
X198986323Y-81869194D01*
X198984129Y-81866174D01*
X198870628Y-81709954D01*
X198731446Y-81570772D01*
X198572205Y-81455076D01*
X198566278Y-81452056D01*
X198396829Y-81365717D01*
X198209626Y-81304890D01*
X198015222Y-81274100D01*
X198015217Y-81274100D01*
X197818383Y-81274100D01*
X197818378Y-81274100D01*
X197623973Y-81304890D01*
X197436770Y-81365717D01*
X197261394Y-81455076D01*
X197170541Y-81521085D01*
X197102154Y-81570772D01*
X197102152Y-81570774D01*
X197102151Y-81570774D01*
X196962974Y-81709951D01*
X196962974Y-81709952D01*
X196962972Y-81709954D01*
X196950753Y-81726772D01*
X196847276Y-81869194D01*
X196757917Y-82044570D01*
X196697090Y-82231773D01*
X196666300Y-82426177D01*
X193224538Y-82426177D01*
X193209541Y-82370206D01*
X193156880Y-82278994D01*
X193082406Y-82204520D01*
X192991194Y-82151859D01*
X192889461Y-82124600D01*
X192784139Y-82124600D01*
X192682406Y-82151859D01*
X192591194Y-82204520D01*
X192516720Y-82278994D01*
X192464059Y-82370206D01*
X192436800Y-82471939D01*
X168797762Y-82471939D01*
X168708646Y-82382823D01*
X168549405Y-82267127D01*
X168504673Y-82244335D01*
X168374029Y-82177768D01*
X168186826Y-82116941D01*
X167992422Y-82086151D01*
X167992417Y-82086151D01*
X167795583Y-82086151D01*
X167795578Y-82086151D01*
X167601173Y-82116941D01*
X167413970Y-82177768D01*
X167238594Y-82267127D01*
X167147741Y-82333136D01*
X167079354Y-82382823D01*
X167079352Y-82382825D01*
X167079351Y-82382825D01*
X166940174Y-82522002D01*
X166940174Y-82522003D01*
X166940172Y-82522005D01*
X166900026Y-82577261D01*
X166824476Y-82681245D01*
X166735117Y-82856621D01*
X166674290Y-83043824D01*
X166643500Y-83238228D01*
X163201738Y-83238228D01*
X163186741Y-83182257D01*
X163134080Y-83091045D01*
X163059606Y-83016571D01*
X162968394Y-82963910D01*
X162866661Y-82936651D01*
X162761339Y-82936651D01*
X162659606Y-82963910D01*
X162568394Y-83016571D01*
X162493920Y-83091045D01*
X162441259Y-83182257D01*
X162414000Y-83283990D01*
X145585300Y-83283990D01*
X145585300Y-82786664D01*
X161564000Y-82786664D01*
X161564000Y-82836651D01*
X162314000Y-82836651D01*
X163314000Y-82836651D01*
X164063999Y-82836651D01*
X164063999Y-82786679D01*
X164063998Y-82786664D01*
X164053505Y-82683953D01*
X163998358Y-82517531D01*
X163998356Y-82517526D01*
X163906315Y-82368305D01*
X163782345Y-82244335D01*
X163633124Y-82152294D01*
X163633119Y-82152292D01*
X163466697Y-82097145D01*
X163466690Y-82097144D01*
X163363986Y-82086651D01*
X163314000Y-82086651D01*
X163314000Y-82836651D01*
X162314000Y-82836651D01*
X162314000Y-82086651D01*
X162313999Y-82086650D01*
X162264029Y-82086651D01*
X162264011Y-82086652D01*
X162161302Y-82097145D01*
X161994880Y-82152292D01*
X161994875Y-82152294D01*
X161845654Y-82244335D01*
X161721684Y-82368305D01*
X161629643Y-82517526D01*
X161629641Y-82517531D01*
X161574494Y-82683953D01*
X161574493Y-82683960D01*
X161564000Y-82786664D01*
X145585300Y-82786664D01*
X145585300Y-80698228D01*
X164103500Y-80698228D01*
X164103500Y-80895073D01*
X164134290Y-81089477D01*
X164195117Y-81276680D01*
X164266824Y-81417412D01*
X164284476Y-81452056D01*
X164400172Y-81611297D01*
X164539354Y-81750479D01*
X164698595Y-81866175D01*
X164781455Y-81908394D01*
X164873970Y-81955533D01*
X164873972Y-81955533D01*
X164873975Y-81955535D01*
X164974317Y-81988138D01*
X165061173Y-82016360D01*
X165255578Y-82047151D01*
X165255583Y-82047151D01*
X165452422Y-82047151D01*
X165646826Y-82016360D01*
X165834025Y-81955535D01*
X166009405Y-81866175D01*
X166168646Y-81750479D01*
X166192370Y-81726755D01*
X191586800Y-81726755D01*
X191586800Y-82024600D01*
X192336800Y-82024600D01*
X193336800Y-82024600D01*
X194086800Y-82024600D01*
X194086800Y-81726772D01*
X194086799Y-81726755D01*
X194080398Y-81667227D01*
X194080396Y-81667220D01*
X194030154Y-81532513D01*
X194030150Y-81532506D01*
X193943990Y-81417412D01*
X193943987Y-81417409D01*
X193828893Y-81331249D01*
X193828886Y-81331245D01*
X193694179Y-81281003D01*
X193694172Y-81281001D01*
X193634644Y-81274600D01*
X193336800Y-81274600D01*
X193336800Y-82024600D01*
X192336800Y-82024600D01*
X192336800Y-81274600D01*
X192038955Y-81274600D01*
X191979427Y-81281001D01*
X191979420Y-81281003D01*
X191844713Y-81331245D01*
X191844706Y-81331249D01*
X191729612Y-81417409D01*
X191729609Y-81417412D01*
X191643449Y-81532506D01*
X191643445Y-81532513D01*
X191593203Y-81667220D01*
X191593201Y-81667227D01*
X191586800Y-81726755D01*
X166192370Y-81726755D01*
X166307828Y-81611297D01*
X166423524Y-81452056D01*
X166512884Y-81276676D01*
X166573709Y-81089477D01*
X166579308Y-81054124D01*
X166604500Y-80895073D01*
X166604500Y-80698228D01*
X166573709Y-80503824D01*
X166512882Y-80316621D01*
X166423523Y-80141245D01*
X166307828Y-79982005D01*
X166212000Y-79886177D01*
X194126300Y-79886177D01*
X194126300Y-80083022D01*
X194157090Y-80277426D01*
X194217917Y-80464629D01*
X194307276Y-80640005D01*
X194422972Y-80799246D01*
X194562154Y-80938428D01*
X194721395Y-81054124D01*
X194790780Y-81089477D01*
X194896770Y-81143482D01*
X194896772Y-81143482D01*
X194896775Y-81143484D01*
X194997117Y-81176087D01*
X195083973Y-81204309D01*
X195278378Y-81235100D01*
X195278383Y-81235100D01*
X195475222Y-81235100D01*
X195669626Y-81204309D01*
X195856825Y-81143484D01*
X196032205Y-81054124D01*
X196191446Y-80938428D01*
X196330628Y-80799246D01*
X196446324Y-80640005D01*
X196535684Y-80464625D01*
X196596509Y-80277426D01*
X196618078Y-80141245D01*
X196627300Y-80083022D01*
X196627300Y-79886177D01*
X196596509Y-79691773D01*
X196564301Y-79592649D01*
X196535684Y-79504575D01*
X196535682Y-79504572D01*
X196535682Y-79504570D01*
X196467890Y-79371521D01*
X196446324Y-79329195D01*
X196330628Y-79169954D01*
X196191446Y-79030772D01*
X196032205Y-78915076D01*
X196007839Y-78902661D01*
X195856829Y-78825717D01*
X195669626Y-78764890D01*
X195475222Y-78734100D01*
X195475217Y-78734100D01*
X195278383Y-78734100D01*
X195278378Y-78734100D01*
X195083973Y-78764890D01*
X194896770Y-78825717D01*
X194721394Y-78915076D01*
X194630541Y-78981085D01*
X194562154Y-79030772D01*
X194562152Y-79030774D01*
X194562151Y-79030774D01*
X194422974Y-79169951D01*
X194422974Y-79169952D01*
X194422972Y-79169954D01*
X194373924Y-79237463D01*
X194307276Y-79329194D01*
X194217917Y-79504570D01*
X194157090Y-79691773D01*
X194126300Y-79886177D01*
X166212000Y-79886177D01*
X166168646Y-79842823D01*
X166009405Y-79727127D01*
X165834029Y-79637768D01*
X165646826Y-79576941D01*
X165452422Y-79546151D01*
X165452417Y-79546151D01*
X165255583Y-79546151D01*
X165255578Y-79546151D01*
X165061173Y-79576941D01*
X164873970Y-79637768D01*
X164698594Y-79727127D01*
X164607741Y-79793136D01*
X164539354Y-79842823D01*
X164539352Y-79842825D01*
X164539351Y-79842825D01*
X164400174Y-79982002D01*
X164400174Y-79982003D01*
X164400172Y-79982005D01*
X164350485Y-80050392D01*
X164284476Y-80141245D01*
X164195117Y-80316621D01*
X164134290Y-80503824D01*
X164103500Y-80698228D01*
X145585300Y-80698228D01*
X145585300Y-77910702D01*
X155420700Y-77910702D01*
X155420700Y-78146897D01*
X155457646Y-78380168D01*
X155530633Y-78604796D01*
X155612206Y-78764890D01*
X155637857Y-78815233D01*
X155776683Y-79006310D01*
X155943690Y-79173317D01*
X156134767Y-79312143D01*
X156234191Y-79362802D01*
X156345203Y-79419366D01*
X156345205Y-79419366D01*
X156345208Y-79419368D01*
X156465612Y-79458489D01*
X156569831Y-79492353D01*
X156803103Y-79529300D01*
X156803108Y-79529300D01*
X157039297Y-79529300D01*
X157272568Y-79492353D01*
X157292459Y-79485890D01*
X157497192Y-79419368D01*
X157707633Y-79312143D01*
X157898710Y-79173317D01*
X158065717Y-79006310D01*
X158204543Y-78815233D01*
X158311768Y-78604792D01*
X158384753Y-78380168D01*
X158396003Y-78309137D01*
X158421700Y-78146897D01*
X158421700Y-77910705D01*
X158418613Y-77891217D01*
X158418613Y-77891215D01*
X158416312Y-77876689D01*
X158749700Y-77876689D01*
X158749700Y-78128612D01*
X158789110Y-78377436D01*
X158866960Y-78617034D01*
X158929768Y-78740300D01*
X158973290Y-78825717D01*
X158981332Y-78841499D01*
X159129401Y-79045300D01*
X159129405Y-79045305D01*
X159307545Y-79223445D01*
X159307550Y-79223449D01*
X159453097Y-79329194D01*
X159511355Y-79371521D01*
X159654384Y-79444398D01*
X159735816Y-79485890D01*
X159735818Y-79485890D01*
X159735821Y-79485892D01*
X159975415Y-79563741D01*
X160224238Y-79603151D01*
X160224239Y-79603151D01*
X160476161Y-79603151D01*
X160476162Y-79603151D01*
X160724985Y-79563741D01*
X160964579Y-79485892D01*
X161189045Y-79371521D01*
X161392856Y-79223444D01*
X161570993Y-79045307D01*
X161719070Y-78841496D01*
X161833441Y-78617030D01*
X161911290Y-78377436D01*
X161950700Y-78128613D01*
X161950700Y-77876689D01*
X161911290Y-77627866D01*
X161833441Y-77388272D01*
X161833439Y-77388269D01*
X161833439Y-77388267D01*
X161719069Y-77163805D01*
X161719065Y-77163799D01*
X161674626Y-77102633D01*
X168909700Y-77102633D01*
X168909700Y-78902668D01*
X168920200Y-79005447D01*
X168966563Y-79145361D01*
X168975386Y-79171986D01*
X169067488Y-79321307D01*
X169191544Y-79445363D01*
X169340865Y-79537465D01*
X169507402Y-79592650D01*
X169610190Y-79603151D01*
X169610195Y-79603151D01*
X171410205Y-79603151D01*
X171410210Y-79603151D01*
X171512998Y-79592650D01*
X171679535Y-79537465D01*
X171828856Y-79445363D01*
X171952912Y-79321307D01*
X172045014Y-79171986D01*
X172100199Y-79005449D01*
X172110700Y-78902661D01*
X172110700Y-77402634D01*
X176067700Y-77402634D01*
X176067700Y-78602652D01*
X176067701Y-78602669D01*
X176078200Y-78705447D01*
X176078201Y-78705450D01*
X176097898Y-78764890D01*
X176133386Y-78871985D01*
X176225488Y-79021307D01*
X176349544Y-79145363D01*
X176498866Y-79237465D01*
X176665403Y-79292650D01*
X176768191Y-79303151D01*
X177968208Y-79303150D01*
X178070997Y-79292650D01*
X178237534Y-79237465D01*
X178386856Y-79145363D01*
X178510912Y-79021307D01*
X178603014Y-78871985D01*
X178658199Y-78705448D01*
X178668700Y-78602660D01*
X178668699Y-77402643D01*
X178667230Y-77388267D01*
X178658199Y-77299854D01*
X178658198Y-77299851D01*
X178646902Y-77265761D01*
X178603014Y-77133317D01*
X178565503Y-77072502D01*
X185037100Y-77072502D01*
X185037100Y-77308697D01*
X185074046Y-77541968D01*
X185147033Y-77766596D01*
X185254257Y-77977033D01*
X185393083Y-78168110D01*
X185560090Y-78335117D01*
X185751167Y-78473943D01*
X185819317Y-78508667D01*
X185961603Y-78581166D01*
X185961605Y-78581166D01*
X185961608Y-78581168D01*
X186071980Y-78617030D01*
X186186231Y-78654153D01*
X186419503Y-78691100D01*
X186419508Y-78691100D01*
X186655697Y-78691100D01*
X186888968Y-78654153D01*
X187113592Y-78581168D01*
X187324033Y-78473943D01*
X187515110Y-78335117D01*
X187682117Y-78168110D01*
X187820943Y-77977033D01*
X187928168Y-77766592D01*
X188001153Y-77541968D01*
X188005490Y-77514585D01*
X188038100Y-77308697D01*
X188038100Y-77072502D01*
X188031109Y-77028364D01*
X188028808Y-77013838D01*
X188645500Y-77013838D01*
X188645500Y-77265762D01*
X188652300Y-77308697D01*
X188684910Y-77514585D01*
X188762760Y-77754183D01*
X188877132Y-77978648D01*
X189025201Y-78182449D01*
X189025205Y-78182454D01*
X189203345Y-78360594D01*
X189203350Y-78360598D01*
X189359356Y-78473942D01*
X189407155Y-78508670D01*
X189549437Y-78581166D01*
X189631616Y-78623039D01*
X189631618Y-78623039D01*
X189631621Y-78623041D01*
X189871215Y-78700890D01*
X190120038Y-78740300D01*
X190120039Y-78740300D01*
X190371961Y-78740300D01*
X190371962Y-78740300D01*
X190620785Y-78700890D01*
X190860379Y-78623041D01*
X191084845Y-78508670D01*
X191288656Y-78360593D01*
X191466793Y-78182456D01*
X191614870Y-77978645D01*
X191729241Y-77754179D01*
X191807090Y-77514585D01*
X191846500Y-77265762D01*
X191846500Y-77013838D01*
X191807090Y-76765015D01*
X191729241Y-76525421D01*
X191729239Y-76525418D01*
X191729239Y-76525416D01*
X191614869Y-76300954D01*
X191614865Y-76300948D01*
X191570426Y-76239782D01*
X198805500Y-76239782D01*
X198805500Y-78039817D01*
X198816000Y-78142596D01*
X198871185Y-78309132D01*
X198871186Y-78309135D01*
X198963288Y-78458456D01*
X199087344Y-78582512D01*
X199236665Y-78674614D01*
X199403202Y-78729799D01*
X199505990Y-78740300D01*
X199505995Y-78740300D01*
X201306005Y-78740300D01*
X201306010Y-78740300D01*
X201408798Y-78729799D01*
X201575335Y-78674614D01*
X201724656Y-78582512D01*
X201848712Y-78458456D01*
X201940814Y-78309135D01*
X201995999Y-78142598D01*
X202006500Y-78039810D01*
X202006500Y-76239790D01*
X201995999Y-76137002D01*
X201940814Y-75970465D01*
X201848712Y-75821144D01*
X201724656Y-75697088D01*
X201575335Y-75604986D01*
X201408798Y-75549801D01*
X201408796Y-75549800D01*
X201306017Y-75539300D01*
X201306010Y-75539300D01*
X199505990Y-75539300D01*
X199505982Y-75539300D01*
X199403203Y-75549800D01*
X199403202Y-75549801D01*
X199320669Y-75577149D01*
X199236667Y-75604985D01*
X199236662Y-75604987D01*
X199087342Y-75697089D01*
X198963289Y-75821142D01*
X198871187Y-75970462D01*
X198871186Y-75970465D01*
X198816001Y-76137002D01*
X198816001Y-76137003D01*
X198816000Y-76137003D01*
X198805500Y-76239782D01*
X191570426Y-76239782D01*
X191466798Y-76097150D01*
X191466794Y-76097145D01*
X191288654Y-75919005D01*
X191288649Y-75919001D01*
X191084848Y-75770932D01*
X191084847Y-75770931D01*
X191084845Y-75770930D01*
X190998718Y-75727046D01*
X190860383Y-75656560D01*
X190620785Y-75578710D01*
X190371962Y-75539300D01*
X190120038Y-75539300D01*
X190053738Y-75549801D01*
X189871214Y-75578710D01*
X189631616Y-75656560D01*
X189407151Y-75770932D01*
X189203350Y-75919001D01*
X189203345Y-75919005D01*
X189025205Y-76097145D01*
X189025201Y-76097150D01*
X188877132Y-76300951D01*
X188762760Y-76525416D01*
X188684910Y-76765014D01*
X188674092Y-76833316D01*
X188645500Y-77013838D01*
X188028808Y-77013838D01*
X188001153Y-76839231D01*
X187967289Y-76735012D01*
X187928168Y-76614608D01*
X187928166Y-76614605D01*
X187928166Y-76614603D01*
X187825266Y-76412652D01*
X187820943Y-76404167D01*
X187682117Y-76213090D01*
X187515110Y-76046083D01*
X187324033Y-75907257D01*
X187317700Y-75904030D01*
X187113596Y-75800033D01*
X186888968Y-75727046D01*
X186655697Y-75690100D01*
X186655692Y-75690100D01*
X186419508Y-75690100D01*
X186419503Y-75690100D01*
X186186231Y-75727046D01*
X185961603Y-75800033D01*
X185751166Y-75907257D01*
X185664173Y-75970462D01*
X185560090Y-76046083D01*
X185560088Y-76046085D01*
X185560087Y-76046085D01*
X185393085Y-76213087D01*
X185393085Y-76213088D01*
X185393083Y-76213090D01*
X185373681Y-76239795D01*
X185254257Y-76404166D01*
X185147033Y-76614603D01*
X185074046Y-76839231D01*
X185037100Y-77072502D01*
X178565503Y-77072502D01*
X178510912Y-76983995D01*
X178386856Y-76859939D01*
X178237534Y-76767837D01*
X178070997Y-76712652D01*
X178070995Y-76712651D01*
X177968210Y-76702151D01*
X176768198Y-76702151D01*
X176768181Y-76702152D01*
X176665403Y-76712651D01*
X176665400Y-76712652D01*
X176498868Y-76767836D01*
X176498863Y-76767838D01*
X176349542Y-76859940D01*
X176225489Y-76983993D01*
X176133387Y-77133314D01*
X176133387Y-77133315D01*
X176133386Y-77133317D01*
X176078201Y-77299854D01*
X176078201Y-77299855D01*
X176078200Y-77299855D01*
X176067700Y-77402634D01*
X172110700Y-77402634D01*
X172110700Y-77102641D01*
X172100199Y-76999853D01*
X172045014Y-76833316D01*
X171952912Y-76683995D01*
X171828856Y-76559939D01*
X171679535Y-76467837D01*
X171512998Y-76412652D01*
X171512996Y-76412651D01*
X171410217Y-76402151D01*
X171410210Y-76402151D01*
X169610190Y-76402151D01*
X169610182Y-76402151D01*
X169507403Y-76412651D01*
X169507402Y-76412652D01*
X169424869Y-76440000D01*
X169340867Y-76467836D01*
X169340862Y-76467838D01*
X169191542Y-76559940D01*
X169067489Y-76683993D01*
X168975387Y-76833313D01*
X168975385Y-76833318D01*
X168947549Y-76917320D01*
X168920201Y-76999853D01*
X168920201Y-76999854D01*
X168920200Y-76999854D01*
X168909700Y-77102633D01*
X161674626Y-77102633D01*
X161570998Y-76960001D01*
X161570994Y-76959996D01*
X161392854Y-76781856D01*
X161392849Y-76781852D01*
X161189048Y-76633783D01*
X161189047Y-76633782D01*
X161189045Y-76633781D01*
X161118947Y-76598064D01*
X160964583Y-76519411D01*
X160724985Y-76441561D01*
X160476162Y-76402151D01*
X160224238Y-76402151D01*
X160157938Y-76412652D01*
X159975414Y-76441561D01*
X159735816Y-76519411D01*
X159511351Y-76633783D01*
X159307550Y-76781852D01*
X159307545Y-76781856D01*
X159129405Y-76959996D01*
X159129401Y-76960001D01*
X158981332Y-77163802D01*
X158866960Y-77388267D01*
X158789110Y-77627865D01*
X158749700Y-77876689D01*
X158416312Y-77876689D01*
X158396908Y-77754179D01*
X158384753Y-77677432D01*
X158311768Y-77452808D01*
X158311766Y-77452805D01*
X158311766Y-77452803D01*
X158238337Y-77308692D01*
X158204543Y-77242367D01*
X158065717Y-77051290D01*
X157898710Y-76884283D01*
X157707633Y-76745457D01*
X157643248Y-76712651D01*
X157497196Y-76638233D01*
X157272568Y-76565246D01*
X157039297Y-76528300D01*
X157039292Y-76528300D01*
X156803108Y-76528300D01*
X156803103Y-76528300D01*
X156569831Y-76565246D01*
X156345203Y-76638233D01*
X156134766Y-76745457D01*
X156084668Y-76781856D01*
X155943690Y-76884283D01*
X155943688Y-76884285D01*
X155943687Y-76884285D01*
X155776685Y-77051287D01*
X155776685Y-77051288D01*
X155776683Y-77051290D01*
X155739380Y-77102633D01*
X155637857Y-77242366D01*
X155530633Y-77452803D01*
X155457646Y-77677431D01*
X155420700Y-77910702D01*
X145585300Y-77910702D01*
X145585300Y-75849521D01*
X159603635Y-75849521D01*
X159710612Y-75904030D01*
X159710615Y-75904031D01*
X159950130Y-75981853D01*
X160198872Y-76021251D01*
X160450728Y-76021251D01*
X160699469Y-75981853D01*
X160938984Y-75904031D01*
X161045964Y-75849521D01*
X160324801Y-75128357D01*
X160324800Y-75128357D01*
X159603635Y-75849521D01*
X145585300Y-75849521D01*
X145585300Y-74295322D01*
X158724800Y-74295322D01*
X158724800Y-74547179D01*
X158764197Y-74795920D01*
X158842020Y-75035437D01*
X158896527Y-75142415D01*
X158896528Y-75142415D01*
X159617693Y-74421251D01*
X159545284Y-74348842D01*
X159774800Y-74348842D01*
X159774800Y-74493660D01*
X159812282Y-74633543D01*
X159884690Y-74758959D01*
X159987092Y-74861361D01*
X160112508Y-74933769D01*
X160252391Y-74971251D01*
X160397209Y-74971251D01*
X160537092Y-74933769D01*
X160662508Y-74861361D01*
X160764910Y-74758959D01*
X160837318Y-74633543D01*
X160874800Y-74493660D01*
X160874800Y-74421251D01*
X161031906Y-74421251D01*
X161753070Y-75142414D01*
X161807580Y-75035435D01*
X161885402Y-74795920D01*
X161924800Y-74547179D01*
X161924800Y-74295322D01*
X161885402Y-74046581D01*
X161807580Y-73807066D01*
X161807579Y-73807063D01*
X161753070Y-73700086D01*
X161031906Y-74421251D01*
X160874800Y-74421251D01*
X160874800Y-74348842D01*
X160837318Y-74208959D01*
X160764910Y-74083543D01*
X160662508Y-73981141D01*
X160537092Y-73908733D01*
X160397209Y-73871251D01*
X160252391Y-73871251D01*
X160112508Y-73908733D01*
X159987092Y-73981141D01*
X159884690Y-74083543D01*
X159812282Y-74208959D01*
X159774800Y-74348842D01*
X159545284Y-74348842D01*
X158896527Y-73700085D01*
X158842020Y-73807064D01*
X158764197Y-74046581D01*
X158724800Y-74295322D01*
X145585300Y-74295322D01*
X145585300Y-72992978D01*
X159603634Y-72992978D01*
X160324800Y-73714144D01*
X160324801Y-73714144D01*
X160517711Y-73521233D01*
X168884300Y-73521233D01*
X168884300Y-75321268D01*
X168894800Y-75424047D01*
X168949985Y-75590583D01*
X168949987Y-75590588D01*
X168984870Y-75647141D01*
X169042088Y-75739907D01*
X169166144Y-75863963D01*
X169315465Y-75956065D01*
X169482002Y-76011250D01*
X169584790Y-76021751D01*
X169584795Y-76021751D01*
X171384805Y-76021751D01*
X171384810Y-76021751D01*
X171487598Y-76011250D01*
X171654135Y-75956065D01*
X171803456Y-75863963D01*
X171927512Y-75739907D01*
X172019614Y-75590586D01*
X172074799Y-75424049D01*
X172076465Y-75407744D01*
X176870211Y-75407744D01*
X177063788Y-75470641D01*
X177265883Y-75502651D01*
X177470517Y-75502651D01*
X177672611Y-75470641D01*
X177866187Y-75407744D01*
X177368201Y-74909757D01*
X177368200Y-74909757D01*
X176870211Y-75407744D01*
X172076465Y-75407744D01*
X172085300Y-75321261D01*
X172085300Y-74808870D01*
X189499435Y-74808870D01*
X189606412Y-74863379D01*
X189606415Y-74863380D01*
X189845930Y-74941202D01*
X190094672Y-74980600D01*
X190346528Y-74980600D01*
X190595269Y-74941202D01*
X190834784Y-74863380D01*
X190941764Y-74808870D01*
X190220601Y-74087706D01*
X190220600Y-74087706D01*
X189499435Y-74808870D01*
X172085300Y-74808870D01*
X172085300Y-74100333D01*
X176068200Y-74100333D01*
X176068200Y-74304968D01*
X176100210Y-74507069D01*
X176100210Y-74507072D01*
X176163104Y-74700638D01*
X176163105Y-74700638D01*
X176661093Y-74202651D01*
X176661093Y-74202650D01*
X176608433Y-74149990D01*
X176968200Y-74149990D01*
X176968200Y-74255312D01*
X176995459Y-74357045D01*
X177048120Y-74448257D01*
X177122594Y-74522731D01*
X177213806Y-74575392D01*
X177315539Y-74602651D01*
X177420861Y-74602651D01*
X177522594Y-74575392D01*
X177613806Y-74522731D01*
X177688280Y-74448257D01*
X177740941Y-74357045D01*
X177768200Y-74255312D01*
X177768200Y-74202650D01*
X178075306Y-74202650D01*
X178075306Y-74202651D01*
X178573293Y-74700637D01*
X178636190Y-74507062D01*
X178668200Y-74304968D01*
X178668200Y-74100333D01*
X178636190Y-73898239D01*
X178573293Y-73704662D01*
X178075306Y-74202650D01*
X177768200Y-74202650D01*
X177768200Y-74149990D01*
X177740941Y-74048257D01*
X177688280Y-73957045D01*
X177613806Y-73882571D01*
X177522594Y-73829910D01*
X177420861Y-73802651D01*
X177315539Y-73802651D01*
X177213806Y-73829910D01*
X177122594Y-73882571D01*
X177048120Y-73957045D01*
X176995459Y-74048257D01*
X176968200Y-74149990D01*
X176608433Y-74149990D01*
X176163104Y-73704662D01*
X176100210Y-73898229D01*
X176100210Y-73898232D01*
X176068200Y-74100333D01*
X172085300Y-74100333D01*
X172085300Y-73521241D01*
X172074799Y-73418453D01*
X172019614Y-73251916D01*
X171927512Y-73102595D01*
X171822472Y-72997555D01*
X176870211Y-72997555D01*
X177368200Y-73495544D01*
X177368201Y-73495544D01*
X177609073Y-73254671D01*
X188620600Y-73254671D01*
X188620600Y-73506528D01*
X188659997Y-73755269D01*
X188737820Y-73994786D01*
X188792327Y-74101764D01*
X188792328Y-74101764D01*
X189513493Y-73380600D01*
X189441084Y-73308191D01*
X189670600Y-73308191D01*
X189670600Y-73453009D01*
X189708082Y-73592892D01*
X189780490Y-73718308D01*
X189882892Y-73820710D01*
X190008308Y-73893118D01*
X190148191Y-73930600D01*
X190293009Y-73930600D01*
X190432892Y-73893118D01*
X190558308Y-73820710D01*
X190660710Y-73718308D01*
X190733118Y-73592892D01*
X190770600Y-73453009D01*
X190770600Y-73380600D01*
X190927706Y-73380600D01*
X191648870Y-74101763D01*
X191703380Y-73994784D01*
X191781202Y-73755269D01*
X191820600Y-73506528D01*
X191820600Y-73254671D01*
X191781202Y-73005930D01*
X191703380Y-72766415D01*
X191703379Y-72766412D01*
X191648870Y-72659435D01*
X190927706Y-73380600D01*
X190770600Y-73380600D01*
X190770600Y-73308191D01*
X190733118Y-73168308D01*
X190660710Y-73042892D01*
X190558308Y-72940490D01*
X190432892Y-72868082D01*
X190293009Y-72830600D01*
X190148191Y-72830600D01*
X190008308Y-72868082D01*
X189882892Y-72940490D01*
X189780490Y-73042892D01*
X189708082Y-73168308D01*
X189670600Y-73308191D01*
X189441084Y-73308191D01*
X188792327Y-72659434D01*
X188737820Y-72766413D01*
X188659997Y-73005930D01*
X188620600Y-73254671D01*
X177609073Y-73254671D01*
X177701620Y-73162124D01*
X177866187Y-72997556D01*
X177866187Y-72997555D01*
X177672619Y-72934661D01*
X177470517Y-72902651D01*
X177265883Y-72902651D01*
X177063781Y-72934661D01*
X177063778Y-72934661D01*
X176870211Y-72997555D01*
X171822472Y-72997555D01*
X171803456Y-72978539D01*
X171654135Y-72886437D01*
X171487598Y-72831252D01*
X171487596Y-72831251D01*
X171384817Y-72820751D01*
X171384810Y-72820751D01*
X169584790Y-72820751D01*
X169584782Y-72820751D01*
X169482003Y-72831251D01*
X169482002Y-72831252D01*
X169399469Y-72858600D01*
X169315467Y-72886436D01*
X169315462Y-72886438D01*
X169166142Y-72978540D01*
X169042089Y-73102593D01*
X168949987Y-73251913D01*
X168949986Y-73251916D01*
X168894801Y-73418453D01*
X168894801Y-73418454D01*
X168894800Y-73418454D01*
X168884300Y-73521233D01*
X160517711Y-73521233D01*
X160608541Y-73430403D01*
X161045964Y-72992979D01*
X161045964Y-72992978D01*
X160938986Y-72938471D01*
X160699469Y-72860648D01*
X160450728Y-72821251D01*
X160198872Y-72821251D01*
X159950130Y-72860648D01*
X159710613Y-72938471D01*
X159603634Y-72992978D01*
X145585300Y-72992978D01*
X145585300Y-71952327D01*
X189499434Y-71952327D01*
X190220600Y-72673493D01*
X190220601Y-72673493D01*
X190413511Y-72480582D01*
X198780100Y-72480582D01*
X198780100Y-74280617D01*
X198790600Y-74383396D01*
X198845785Y-74549932D01*
X198845787Y-74549937D01*
X198880670Y-74606490D01*
X198937888Y-74699256D01*
X199061944Y-74823312D01*
X199211265Y-74915414D01*
X199377802Y-74970599D01*
X199480590Y-74981100D01*
X199480595Y-74981100D01*
X201280605Y-74981100D01*
X201280610Y-74981100D01*
X201383398Y-74970599D01*
X201549935Y-74915414D01*
X201699256Y-74823312D01*
X201823312Y-74699256D01*
X201915414Y-74549935D01*
X201970599Y-74383398D01*
X201981100Y-74280610D01*
X201981100Y-72480590D01*
X201970599Y-72377802D01*
X201915414Y-72211265D01*
X201823312Y-72061944D01*
X201699256Y-71937888D01*
X201549935Y-71845786D01*
X201383398Y-71790601D01*
X201383396Y-71790600D01*
X201280617Y-71780100D01*
X201280610Y-71780100D01*
X199480590Y-71780100D01*
X199480582Y-71780100D01*
X199377803Y-71790600D01*
X199377802Y-71790601D01*
X199295269Y-71817949D01*
X199211267Y-71845785D01*
X199211262Y-71845787D01*
X199061942Y-71937889D01*
X198937889Y-72061942D01*
X198845787Y-72211262D01*
X198845786Y-72211265D01*
X198790601Y-72377802D01*
X198790601Y-72377803D01*
X198790600Y-72377803D01*
X198780100Y-72480582D01*
X190413511Y-72480582D01*
X190504341Y-72389752D01*
X190941764Y-71952328D01*
X190941764Y-71952327D01*
X190834786Y-71897820D01*
X190595269Y-71819997D01*
X190346528Y-71780600D01*
X190094672Y-71780600D01*
X189845930Y-71819997D01*
X189606413Y-71897820D01*
X189499434Y-71952327D01*
X145585300Y-71952327D01*
X145585300Y-69627111D01*
X148649500Y-69627111D01*
X148649500Y-69869688D01*
X148678853Y-70092657D01*
X148681162Y-70110189D01*
X148692324Y-70151846D01*
X148743947Y-70344504D01*
X148836773Y-70568605D01*
X148836776Y-70568612D01*
X148958064Y-70778689D01*
X148958066Y-70778692D01*
X148958067Y-70778693D01*
X149105733Y-70971136D01*
X149105739Y-70971143D01*
X149277256Y-71142660D01*
X149277262Y-71142665D01*
X149469711Y-71290336D01*
X149679788Y-71411624D01*
X149903900Y-71504454D01*
X150138211Y-71567238D01*
X150318586Y-71590984D01*
X150378711Y-71598900D01*
X150378712Y-71598900D01*
X150621289Y-71598900D01*
X150669388Y-71592567D01*
X150861789Y-71567238D01*
X151096100Y-71504454D01*
X151320212Y-71411624D01*
X151530289Y-71290336D01*
X151722738Y-71142665D01*
X151894265Y-70971138D01*
X152041936Y-70778689D01*
X152163224Y-70568612D01*
X152256054Y-70344500D01*
X152307676Y-70151847D01*
X163701108Y-70151847D01*
X163718180Y-70160545D01*
X163920271Y-70226208D01*
X164130154Y-70259451D01*
X164342646Y-70259451D01*
X164552527Y-70226208D01*
X164552530Y-70226208D01*
X164754618Y-70160545D01*
X164754620Y-70160544D01*
X164771689Y-70151846D01*
X164771690Y-70151846D01*
X164236401Y-69616557D01*
X164236400Y-69616557D01*
X163701108Y-70151847D01*
X152307676Y-70151847D01*
X152318838Y-70110189D01*
X152350500Y-69869688D01*
X152350500Y-69627112D01*
X152349110Y-69616557D01*
X152336390Y-69519935D01*
X152318838Y-69386611D01*
X152274923Y-69222719D01*
X156274384Y-69222719D01*
X156345397Y-69258902D01*
X156569952Y-69331865D01*
X156569951Y-69331865D01*
X156803148Y-69368800D01*
X157039252Y-69368800D01*
X157272447Y-69331865D01*
X157496997Y-69258904D01*
X157568014Y-69222719D01*
X157148499Y-68803204D01*
X162886400Y-68803204D01*
X162886400Y-69015697D01*
X162919642Y-69225578D01*
X162919642Y-69225581D01*
X162985303Y-69427664D01*
X162985308Y-69427676D01*
X162994002Y-69444740D01*
X162994003Y-69444741D01*
X163529294Y-68909451D01*
X163529294Y-68909450D01*
X163463469Y-68843625D01*
X163736400Y-68843625D01*
X163736400Y-68975277D01*
X163770475Y-69102444D01*
X163836301Y-69216458D01*
X163929393Y-69309550D01*
X164043407Y-69375376D01*
X164170574Y-69409451D01*
X164302226Y-69409451D01*
X164429393Y-69375376D01*
X164543407Y-69309550D01*
X164636499Y-69216458D01*
X164702325Y-69102444D01*
X164736400Y-68975277D01*
X164736400Y-68909450D01*
X164943506Y-68909450D01*
X164943506Y-68909451D01*
X165389581Y-69355526D01*
X165423066Y-69416849D01*
X165425900Y-69443207D01*
X165425900Y-69807320D01*
X165425901Y-69807327D01*
X165432308Y-69866934D01*
X165482602Y-70001779D01*
X165482606Y-70001786D01*
X165568852Y-70116995D01*
X165568855Y-70116998D01*
X165684064Y-70203244D01*
X165684071Y-70203248D01*
X165818917Y-70253542D01*
X165818916Y-70253542D01*
X165825844Y-70254286D01*
X165878527Y-70259951D01*
X167674272Y-70259950D01*
X167733883Y-70253542D01*
X167868731Y-70203247D01*
X167983946Y-70116997D01*
X168070196Y-70001782D01*
X168120491Y-69866934D01*
X168126900Y-69807324D01*
X168126900Y-69669996D01*
X193393708Y-69669996D01*
X193410780Y-69678694D01*
X193612871Y-69744357D01*
X193822754Y-69777600D01*
X194035246Y-69777600D01*
X194245127Y-69744357D01*
X194245130Y-69744357D01*
X194447218Y-69678694D01*
X194447220Y-69678693D01*
X194464289Y-69669995D01*
X194464290Y-69669995D01*
X193929001Y-69134706D01*
X193929000Y-69134706D01*
X193393708Y-69669996D01*
X168126900Y-69669996D01*
X168126899Y-68384519D01*
X185890784Y-68384519D01*
X185961797Y-68420702D01*
X186186352Y-68493665D01*
X186186351Y-68493665D01*
X186419548Y-68530600D01*
X186655652Y-68530600D01*
X186888847Y-68493665D01*
X187113397Y-68420704D01*
X187184414Y-68384519D01*
X187121248Y-68321353D01*
X192579000Y-68321353D01*
X192579000Y-68533846D01*
X192612242Y-68743727D01*
X192612242Y-68743730D01*
X192677903Y-68945813D01*
X192677908Y-68945825D01*
X192686602Y-68962889D01*
X192686603Y-68962890D01*
X193221894Y-68427600D01*
X193221894Y-68427599D01*
X193156069Y-68361774D01*
X193429000Y-68361774D01*
X193429000Y-68493426D01*
X193463075Y-68620593D01*
X193528901Y-68734607D01*
X193621993Y-68827699D01*
X193736007Y-68893525D01*
X193863174Y-68927600D01*
X193994826Y-68927600D01*
X194121993Y-68893525D01*
X194236007Y-68827699D01*
X194329099Y-68734607D01*
X194394925Y-68620593D01*
X194429000Y-68493426D01*
X194429000Y-68427599D01*
X194636106Y-68427599D01*
X194636106Y-68427600D01*
X195082181Y-68873675D01*
X195115666Y-68934998D01*
X195118500Y-68961356D01*
X195118500Y-69325469D01*
X195118501Y-69325476D01*
X195124908Y-69385083D01*
X195175202Y-69519928D01*
X195175206Y-69519935D01*
X195261452Y-69635144D01*
X195261455Y-69635147D01*
X195376664Y-69721393D01*
X195376671Y-69721397D01*
X195511517Y-69771691D01*
X195511516Y-69771691D01*
X195518444Y-69772435D01*
X195571127Y-69778100D01*
X197366872Y-69778099D01*
X197426483Y-69771691D01*
X197561331Y-69721396D01*
X197676546Y-69635146D01*
X197682561Y-69627111D01*
X208149500Y-69627111D01*
X208149500Y-69869688D01*
X208178853Y-70092657D01*
X208181162Y-70110189D01*
X208192324Y-70151846D01*
X208243947Y-70344504D01*
X208336773Y-70568605D01*
X208336776Y-70568612D01*
X208458064Y-70778689D01*
X208458066Y-70778692D01*
X208458067Y-70778693D01*
X208605733Y-70971136D01*
X208605739Y-70971143D01*
X208777256Y-71142660D01*
X208777262Y-71142665D01*
X208969711Y-71290336D01*
X209179788Y-71411624D01*
X209403900Y-71504454D01*
X209638211Y-71567238D01*
X209818586Y-71590984D01*
X209878711Y-71598900D01*
X209878712Y-71598900D01*
X210121289Y-71598900D01*
X210169388Y-71592567D01*
X210361789Y-71567238D01*
X210596100Y-71504454D01*
X210820212Y-71411624D01*
X211030289Y-71290336D01*
X211222738Y-71142665D01*
X211394265Y-70971138D01*
X211541936Y-70778689D01*
X211663224Y-70568612D01*
X211756054Y-70344500D01*
X211818838Y-70110189D01*
X211850500Y-69869688D01*
X211850500Y-69627112D01*
X211849110Y-69616557D01*
X211836390Y-69519935D01*
X211818838Y-69386611D01*
X211756054Y-69152300D01*
X211663224Y-68928188D01*
X211541936Y-68718111D01*
X211446181Y-68593320D01*
X211394266Y-68525663D01*
X211394260Y-68525656D01*
X211222743Y-68354139D01*
X211222736Y-68354133D01*
X211030293Y-68206467D01*
X211030292Y-68206466D01*
X211030289Y-68206464D01*
X210820212Y-68085176D01*
X210820205Y-68085173D01*
X210596104Y-67992347D01*
X210361785Y-67929561D01*
X210121289Y-67897900D01*
X210121288Y-67897900D01*
X209878712Y-67897900D01*
X209878711Y-67897900D01*
X209638214Y-67929561D01*
X209403895Y-67992347D01*
X209179794Y-68085173D01*
X209179785Y-68085177D01*
X208969706Y-68206467D01*
X208777263Y-68354133D01*
X208777256Y-68354139D01*
X208605739Y-68525656D01*
X208605733Y-68525663D01*
X208458067Y-68718106D01*
X208336777Y-68928185D01*
X208336773Y-68928194D01*
X208243947Y-69152295D01*
X208181161Y-69386614D01*
X208149500Y-69627111D01*
X197682561Y-69627111D01*
X197762796Y-69519931D01*
X197813091Y-69385083D01*
X197819500Y-69325473D01*
X197819499Y-67529728D01*
X197813091Y-67470117D01*
X197788185Y-67403341D01*
X197762797Y-67335271D01*
X197762793Y-67335264D01*
X197676547Y-67220055D01*
X197676544Y-67220052D01*
X197561335Y-67133806D01*
X197561328Y-67133802D01*
X197426482Y-67083508D01*
X197426483Y-67083508D01*
X197366883Y-67077101D01*
X197366881Y-67077100D01*
X197366873Y-67077100D01*
X197366864Y-67077100D01*
X195571129Y-67077100D01*
X195571123Y-67077101D01*
X195511516Y-67083508D01*
X195376671Y-67133802D01*
X195376664Y-67133806D01*
X195261455Y-67220052D01*
X195261452Y-67220055D01*
X195175206Y-67335264D01*
X195175202Y-67335271D01*
X195124908Y-67470117D01*
X195119809Y-67517551D01*
X195118501Y-67529723D01*
X195118500Y-67529735D01*
X195118500Y-67893843D01*
X195098815Y-67960882D01*
X195082181Y-67981524D01*
X194636106Y-68427599D01*
X194429000Y-68427599D01*
X194429000Y-68361774D01*
X194394925Y-68234607D01*
X194329099Y-68120593D01*
X194236007Y-68027501D01*
X194121993Y-67961675D01*
X193994826Y-67927600D01*
X193863174Y-67927600D01*
X193736007Y-67961675D01*
X193621993Y-68027501D01*
X193528901Y-68120593D01*
X193463075Y-68234607D01*
X193429000Y-68361774D01*
X193156069Y-68361774D01*
X192686603Y-67892309D01*
X192677904Y-67909383D01*
X192612242Y-68111469D01*
X192612242Y-68111472D01*
X192579000Y-68321353D01*
X187121248Y-68321353D01*
X186537601Y-67737706D01*
X186537600Y-67737706D01*
X185890784Y-68384519D01*
X168126899Y-68384519D01*
X168126899Y-68011579D01*
X168120491Y-67951968D01*
X168111402Y-67927600D01*
X168070197Y-67817122D01*
X168070193Y-67817115D01*
X167983947Y-67701906D01*
X167983944Y-67701903D01*
X167868735Y-67615657D01*
X167868728Y-67615653D01*
X167733882Y-67565359D01*
X167733883Y-67565359D01*
X167674283Y-67558952D01*
X167674281Y-67558951D01*
X167674273Y-67558951D01*
X167674264Y-67558951D01*
X165878529Y-67558951D01*
X165878523Y-67558952D01*
X165818916Y-67565359D01*
X165684071Y-67615653D01*
X165684064Y-67615657D01*
X165568855Y-67701903D01*
X165568852Y-67701906D01*
X165482606Y-67817115D01*
X165482602Y-67817122D01*
X165432308Y-67951968D01*
X165425901Y-68011567D01*
X165425901Y-68011574D01*
X165425900Y-68011586D01*
X165425900Y-68375694D01*
X165406215Y-68442733D01*
X165389581Y-68463375D01*
X164943506Y-68909450D01*
X164736400Y-68909450D01*
X164736400Y-68843625D01*
X164702325Y-68716458D01*
X164636499Y-68602444D01*
X164543407Y-68509352D01*
X164429393Y-68443526D01*
X164302226Y-68409451D01*
X164170574Y-68409451D01*
X164043407Y-68443526D01*
X163929393Y-68509352D01*
X163836301Y-68602444D01*
X163770475Y-68716458D01*
X163736400Y-68843625D01*
X163463469Y-68843625D01*
X162994003Y-68374160D01*
X162985304Y-68391234D01*
X162919642Y-68593320D01*
X162919642Y-68593323D01*
X162886400Y-68803204D01*
X157148499Y-68803204D01*
X156921201Y-68575906D01*
X156921200Y-68575906D01*
X156274384Y-69222719D01*
X152274923Y-69222719D01*
X152256054Y-69152300D01*
X152163224Y-68928188D01*
X152041936Y-68718111D01*
X151946181Y-68593320D01*
X151894266Y-68525663D01*
X151894260Y-68525656D01*
X151722743Y-68354139D01*
X151722736Y-68354133D01*
X151530293Y-68206467D01*
X151530292Y-68206466D01*
X151530289Y-68206464D01*
X151320212Y-68085176D01*
X151320205Y-68085173D01*
X151096104Y-67992347D01*
X150861785Y-67929561D01*
X150621289Y-67897900D01*
X150621288Y-67897900D01*
X150378712Y-67897900D01*
X150378711Y-67897900D01*
X150138214Y-67929561D01*
X149903895Y-67992347D01*
X149679794Y-68085173D01*
X149679785Y-68085177D01*
X149469706Y-68206467D01*
X149277263Y-68354133D01*
X149277256Y-68354139D01*
X149105739Y-68525656D01*
X149105733Y-68525663D01*
X148958067Y-68718106D01*
X148836777Y-68928185D01*
X148836773Y-68928194D01*
X148743947Y-69152295D01*
X148681161Y-69386614D01*
X148649500Y-69627111D01*
X145585300Y-69627111D01*
X145585300Y-67750747D01*
X155421200Y-67750747D01*
X155421200Y-67986852D01*
X155458134Y-68220047D01*
X155531098Y-68444605D01*
X155567278Y-68515613D01*
X155567279Y-68515614D01*
X156214094Y-67868800D01*
X156161433Y-67816139D01*
X156521200Y-67816139D01*
X156521200Y-67921461D01*
X156548459Y-68023194D01*
X156601120Y-68114406D01*
X156675594Y-68188880D01*
X156766806Y-68241541D01*
X156868539Y-68268800D01*
X156973861Y-68268800D01*
X157075594Y-68241541D01*
X157166806Y-68188880D01*
X157241280Y-68114406D01*
X157293941Y-68023194D01*
X157321200Y-67921461D01*
X157321200Y-67868799D01*
X157628306Y-67868799D01*
X157628306Y-67868801D01*
X158275119Y-68515614D01*
X158311304Y-68444597D01*
X158384265Y-68220047D01*
X158421200Y-67986852D01*
X158421200Y-67750751D01*
X158417827Y-67729454D01*
X158417827Y-67729451D01*
X158407944Y-67667054D01*
X163701109Y-67667054D01*
X164236400Y-68202345D01*
X164236401Y-68202345D01*
X164771690Y-67667054D01*
X164771689Y-67667053D01*
X164754625Y-67658359D01*
X164754613Y-67658354D01*
X164552528Y-67592693D01*
X164342646Y-67559451D01*
X164130154Y-67559451D01*
X163920272Y-67592693D01*
X163920269Y-67592693D01*
X163718183Y-67658355D01*
X163701109Y-67667054D01*
X158407944Y-67667054D01*
X158384265Y-67517552D01*
X158311302Y-67292997D01*
X158275119Y-67221984D01*
X157628306Y-67868799D01*
X157321200Y-67868799D01*
X157321200Y-67816139D01*
X157293941Y-67714406D01*
X157241280Y-67623194D01*
X157166806Y-67548720D01*
X157075594Y-67496059D01*
X156973861Y-67468800D01*
X156868539Y-67468800D01*
X156766806Y-67496059D01*
X156675594Y-67548720D01*
X156601120Y-67623194D01*
X156548459Y-67714406D01*
X156521200Y-67816139D01*
X156161433Y-67816139D01*
X155567278Y-67221984D01*
X155531094Y-67293002D01*
X155531094Y-67293003D01*
X155458134Y-67517551D01*
X155421200Y-67750747D01*
X145585300Y-67750747D01*
X145585300Y-66514878D01*
X156274384Y-66514878D01*
X156921200Y-67161694D01*
X156921201Y-67161694D01*
X157170347Y-66912547D01*
X185037600Y-66912547D01*
X185037600Y-67148652D01*
X185074534Y-67381847D01*
X185147498Y-67606405D01*
X185183678Y-67677413D01*
X185183679Y-67677414D01*
X185830494Y-67030600D01*
X185777833Y-66977939D01*
X186137600Y-66977939D01*
X186137600Y-67083261D01*
X186164859Y-67184994D01*
X186217520Y-67276206D01*
X186291994Y-67350680D01*
X186383206Y-67403341D01*
X186484939Y-67430600D01*
X186590261Y-67430600D01*
X186691994Y-67403341D01*
X186783206Y-67350680D01*
X186857680Y-67276206D01*
X186910341Y-67184994D01*
X186937600Y-67083261D01*
X186937600Y-67030599D01*
X187244706Y-67030599D01*
X187244706Y-67030601D01*
X187891519Y-67677414D01*
X187927704Y-67606397D01*
X188000665Y-67381847D01*
X188028072Y-67208809D01*
X188031811Y-67185203D01*
X193393709Y-67185203D01*
X193929000Y-67720494D01*
X193929001Y-67720494D01*
X194464290Y-67185203D01*
X194464289Y-67185202D01*
X194447225Y-67176508D01*
X194447213Y-67176503D01*
X194245128Y-67110842D01*
X194035246Y-67077600D01*
X193822754Y-67077600D01*
X193612872Y-67110842D01*
X193612869Y-67110842D01*
X193410783Y-67176504D01*
X193393709Y-67185203D01*
X188031811Y-67185203D01*
X188037600Y-67148652D01*
X188037600Y-66912547D01*
X188000665Y-66679352D01*
X187927702Y-66454797D01*
X187891519Y-66383784D01*
X187244706Y-67030599D01*
X186937600Y-67030599D01*
X186937600Y-66977939D01*
X186910341Y-66876206D01*
X186857680Y-66784994D01*
X186783206Y-66710520D01*
X186691994Y-66657859D01*
X186590261Y-66630600D01*
X186484939Y-66630600D01*
X186383206Y-66657859D01*
X186291994Y-66710520D01*
X186217520Y-66784994D01*
X186164859Y-66876206D01*
X186137600Y-66977939D01*
X185777833Y-66977939D01*
X185183678Y-66383784D01*
X185147494Y-66454802D01*
X185147494Y-66454803D01*
X185074534Y-66679351D01*
X185037600Y-66912547D01*
X157170347Y-66912547D01*
X157262900Y-66819994D01*
X157568014Y-66514879D01*
X157568013Y-66514878D01*
X157497005Y-66478698D01*
X157272447Y-66405734D01*
X157272448Y-66405734D01*
X157039252Y-66368800D01*
X156803148Y-66368800D01*
X156569951Y-66405734D01*
X156345403Y-66478694D01*
X156345402Y-66478694D01*
X156274384Y-66514878D01*
X145585300Y-66514878D01*
X145585300Y-65676678D01*
X185890784Y-65676678D01*
X186537600Y-66323494D01*
X186537601Y-66323494D01*
X187184414Y-65676679D01*
X187184413Y-65676678D01*
X187113405Y-65640498D01*
X186888847Y-65567534D01*
X186888848Y-65567534D01*
X186655652Y-65530600D01*
X186419548Y-65530600D01*
X186186351Y-65567534D01*
X185961803Y-65640494D01*
X185961802Y-65640494D01*
X185890784Y-65676678D01*
X145585300Y-65676678D01*
X145585300Y-64886500D01*
X145604985Y-64819461D01*
X145657789Y-64773706D01*
X145709300Y-64762500D01*
X214386500Y-64762500D01*
X214453539Y-64782185D01*
G37*
%TD.AperFunction*%
%TD*%
D23*
X145084800Y-64262000D02*
X215011000Y-64262000D01*
X215011000Y-123152600D01*
X145084800Y-123152600D01*
X145084800Y-64262000D01*
M02*
