%TF.GenerationSoftware,KiCad,Pcbnew,9.0.5*%
%TF.CreationDate,2025-10-20T09:35:52-03:00*%
%TF.ProjectId,synthesizer,73796e74-6865-4736-997a-65722e6b6963,rev?*%
%TF.SameCoordinates,Original*%
%TF.FileFunction,Copper,L1,Top*%
%TF.FilePolarity,Positive*%
%FSLAX46Y46*%
G04 Gerber Fmt 4.6, Leading zero omitted, Abs format (unit mm)*
G04 Created by KiCad (PCBNEW 9.0.5) date 2025-10-20 09:35:52*
%MOMM*%
%LPD*%
G01*
G04 APERTURE LIST*
G04 Aperture macros list*
%AMRoundRect*
0 Rectangle with rounded corners*
0 $1 Rounding radius*
0 $2 $3 $4 $5 $6 $7 $8 $9 X,Y pos of 4 corners*
0 Add a 4 corners polygon primitive as box body*
4,1,4,$2,$3,$4,$5,$6,$7,$8,$9,$2,$3,0*
0 Add four circle primitives for the rounded corners*
1,1,$1+$1,$2,$3*
1,1,$1+$1,$4,$5*
1,1,$1+$1,$6,$7*
1,1,$1+$1,$8,$9*
0 Add four rect primitives between the rounded corners*
20,1,$1+$1,$2,$3,$4,$5,0*
20,1,$1+$1,$4,$5,$6,$7,0*
20,1,$1+$1,$6,$7,$8,$9,0*
20,1,$1+$1,$8,$9,$2,$3,0*%
G04 Aperture macros list end*
%TA.AperFunction,SMDPad,CuDef*%
%ADD10RoundRect,0.250000X0.337500X0.475000X-0.337500X0.475000X-0.337500X-0.475000X0.337500X-0.475000X0*%
%TD*%
%TA.AperFunction,SMDPad,CuDef*%
%ADD11RoundRect,0.250000X-0.475000X0.337500X-0.475000X-0.337500X0.475000X-0.337500X0.475000X0.337500X0*%
%TD*%
%TA.AperFunction,SMDPad,CuDef*%
%ADD12R,4.060000X1.520000*%
%TD*%
%TA.AperFunction,ComponentPad*%
%ADD13RoundRect,0.249999X0.850001X0.850001X-0.850001X0.850001X-0.850001X-0.850001X0.850001X-0.850001X0*%
%TD*%
%TA.AperFunction,ComponentPad*%
%ADD14C,2.200000*%
%TD*%
%TA.AperFunction,ComponentPad*%
%ADD15C,2.000000*%
%TD*%
%TA.AperFunction,SMDPad,CuDef*%
%ADD16RoundRect,0.032500X-0.372500X-0.097500X0.372500X-0.097500X0.372500X0.097500X-0.372500X0.097500X0*%
%TD*%
%TA.AperFunction,SMDPad,CuDef*%
%ADD17RoundRect,0.032500X-0.097500X-0.372500X0.097500X-0.372500X0.097500X0.372500X-0.097500X0.372500X0*%
%TD*%
%TA.AperFunction,SMDPad,CuDef*%
%ADD18R,3.100000X3.100000*%
%TD*%
%TA.AperFunction,SMDPad,CuDef*%
%ADD19RoundRect,0.250000X0.450000X-0.350000X0.450000X0.350000X-0.450000X0.350000X-0.450000X-0.350000X0*%
%TD*%
%TA.AperFunction,SMDPad,CuDef*%
%ADD20RoundRect,0.250000X-0.337500X-0.475000X0.337500X-0.475000X0.337500X0.475000X-0.337500X0.475000X0*%
%TD*%
%TA.AperFunction,SMDPad,CuDef*%
%ADD21RoundRect,0.250000X-0.450000X0.350000X-0.450000X-0.350000X0.450000X-0.350000X0.450000X0.350000X0*%
%TD*%
%TA.AperFunction,ComponentPad*%
%ADD22R,1.500000X1.500000*%
%TD*%
%TA.AperFunction,ComponentPad*%
%ADD23C,1.500000*%
%TD*%
%TA.AperFunction,ComponentPad*%
%ADD24RoundRect,0.250000X0.550000X-0.550000X0.550000X0.550000X-0.550000X0.550000X-0.550000X-0.550000X0*%
%TD*%
%TA.AperFunction,ComponentPad*%
%ADD25C,1.600000*%
%TD*%
%TA.AperFunction,ComponentPad*%
%ADD26RoundRect,0.250000X-0.500000X-0.500000X0.500000X-0.500000X0.500000X0.500000X-0.500000X0.500000X0*%
%TD*%
%TA.AperFunction,ComponentPad*%
%ADD27R,1.700000X1.700000*%
%TD*%
%TA.AperFunction,ComponentPad*%
%ADD28C,1.700000*%
%TD*%
%TA.AperFunction,SMDPad,CuDef*%
%ADD29RoundRect,0.250000X0.475000X-0.337500X0.475000X0.337500X-0.475000X0.337500X-0.475000X-0.337500X0*%
%TD*%
%TA.AperFunction,SMDPad,CuDef*%
%ADD30RoundRect,0.250000X0.350000X0.450000X-0.350000X0.450000X-0.350000X-0.450000X0.350000X-0.450000X0*%
%TD*%
%TA.AperFunction,SMDPad,CuDef*%
%ADD31R,1.000000X1.400000*%
%TD*%
%TA.AperFunction,SMDPad,CuDef*%
%ADD32R,1.200000X0.400000*%
%TD*%
%TA.AperFunction,SMDPad,CuDef*%
%ADD33RoundRect,0.250000X-0.350000X-0.450000X0.350000X-0.450000X0.350000X0.450000X-0.350000X0.450000X0*%
%TD*%
%TA.AperFunction,ViaPad*%
%ADD34C,0.600000*%
%TD*%
%TA.AperFunction,ViaPad*%
%ADD35C,2.500000*%
%TD*%
%TA.AperFunction,Conductor*%
%ADD36C,2.000001*%
%TD*%
%TA.AperFunction,Conductor*%
%ADD37C,1.000001*%
%TD*%
%TA.AperFunction,Conductor*%
%ADD38C,1.500000*%
%TD*%
%TA.AperFunction,Conductor*%
%ADD39C,0.299999*%
%TD*%
%TA.AperFunction,Conductor*%
%ADD40C,0.399999*%
%TD*%
%TA.AperFunction,Conductor*%
%ADD41C,1.332340*%
%TD*%
%TA.AperFunction,Conductor*%
%ADD42C,0.700001*%
%TD*%
%TA.AperFunction,Profile*%
%ADD43C,0.050000*%
%TD*%
G04 APERTURE END LIST*
D10*
%TO.P,C4,1*%
%TO.N,+5V*%
X165300000Y-110700000D03*
%TO.P,C4,2*%
%TO.N,GND*%
X163225000Y-110700000D03*
%TD*%
D11*
%TO.P,C17,1*%
%TO.N,Net-(J1-Pin_1)*%
X149820000Y-111200000D03*
%TO.P,C17,2*%
%TO.N,GND*%
X149820000Y-113275000D03*
%TD*%
D12*
%TO.P,J5,1*%
%TO.N,Net-(U1-RFOUT)*%
X211790200Y-104212900D03*
%TO.P,J5,2*%
%TO.N,GND*%
X211790200Y-106752900D03*
%TO.P,J5,3*%
X211790200Y-101672900D03*
%TD*%
D13*
%TO.P,D5,1,K*%
%TO.N,+12V*%
X170510200Y-78002651D03*
D14*
%TO.P,D5,2,A*%
%TO.N,Net-(D5-A)*%
X160350200Y-78002651D03*
%TD*%
D15*
%TO.P,R6,1*%
%TO.N,Net-(D5-A)*%
X156921200Y-78028800D03*
%TO.P,R6,2*%
%TO.N,GND*%
X156921200Y-67868800D03*
%TD*%
D16*
%TO.P,U1,1,N/C*%
%TO.N,unconnected-(U1-N{slash}C-Pad1)*%
X191275800Y-101712900D03*
%TO.P,U1,2,N/C*%
%TO.N,unconnected-(U1-N{slash}C-Pad2)*%
X191275800Y-102212900D03*
%TO.P,U1,3,N/C*%
%TO.N,unconnected-(U1-N{slash}C-Pad3)*%
X191275800Y-102712900D03*
%TO.P,U1,4,RFOUT/4*%
%TO.N,Net-(U1-RFOUT{slash}4)*%
X191275800Y-103212900D03*
%TO.P,U1,5,GND*%
%TO.N,GND*%
X191275800Y-103712900D03*
%TO.P,U1,6,VCC(Dig)*%
%TO.N,+5V*%
X191275800Y-104212900D03*
%TO.P,U1,7,VCC(Amp)*%
%TO.N,unconnected-(U1-VCC(Amp)-Pad7)*%
X191275800Y-104712900D03*
%TO.P,U1,8,N/C*%
%TO.N,unconnected-(U1-N{slash}C-Pad8)*%
X191275800Y-105212900D03*
D17*
%TO.P,U1,9,N/C*%
%TO.N,unconnected-(U1-N{slash}C-Pad9)*%
X191975800Y-105912900D03*
%TO.P,U1,10,N/C*%
%TO.N,unconnected-(U1-N{slash}C-Pad10)*%
X192475800Y-105912900D03*
%TO.P,U1,11,GND*%
%TO.N,GND*%
X192975800Y-105912900D03*
%TO.P,U1,12,RFOUT/2*%
%TO.N,unconnected-(U1-RFOUT{slash}2-Pad12)*%
X193475800Y-105912900D03*
%TO.P,U1,13,N/C*%
%TO.N,unconnected-(U1-N{slash}C-Pad13)*%
X193975800Y-105912900D03*
%TO.P,U1,14,N/C*%
%TO.N,unconnected-(U1-N{slash}C-Pad14)*%
X194475800Y-105912900D03*
%TO.P,U1,15,N/C*%
%TO.N,unconnected-(U1-N{slash}C-Pad15)*%
X194975800Y-105912900D03*
%TO.P,U1,16,N/C*%
%TO.N,unconnected-(U1-N{slash}C-Pad16)*%
X195475800Y-105912900D03*
D16*
%TO.P,U1,17,N/C*%
%TO.N,unconnected-(U1-N{slash}C-Pad17)*%
X196175800Y-105212900D03*
%TO.P,U1,18,N/C*%
%TO.N,unconnected-(U1-N{slash}C-Pad18)*%
X196175800Y-104712900D03*
%TO.P,U1,19,RFOUT*%
%TO.N,Net-(U1-RFOUT)*%
X196175800Y-104212900D03*
%TO.P,U1,20,N/C*%
%TO.N,unconnected-(U1-N{slash}C-Pad20)*%
X196175800Y-103712900D03*
%TO.P,U1,21,VCC(RF)*%
%TO.N,+5V*%
X196175800Y-103212900D03*
%TO.P,U1,22,N/C*%
%TO.N,unconnected-(U1-N{slash}C-Pad22)*%
X196175800Y-102712900D03*
%TO.P,U1,23,N/C*%
%TO.N,unconnected-(U1-N{slash}C-Pad23)*%
X196175800Y-102212900D03*
%TO.P,U1,24,N/C*%
%TO.N,unconnected-(U1-N{slash}C-Pad24)*%
X196175800Y-101712900D03*
D17*
%TO.P,U1,25,N/C*%
%TO.N,unconnected-(U1-N{slash}C-Pad25)*%
X195475800Y-101012900D03*
%TO.P,U1,26,N/C*%
%TO.N,unconnected-(U1-N{slash}C-Pad26)*%
X194975800Y-101012900D03*
%TO.P,U1,27,N/C*%
%TO.N,unconnected-(U1-N{slash}C-Pad27)*%
X194475800Y-101012900D03*
%TO.P,U1,28,N/C*%
%TO.N,unconnected-(U1-N{slash}C-Pad28)*%
X193975800Y-101012900D03*
%TO.P,U1,29,VTUNE*%
%TO.N,Net-(U1-VTUNE)*%
X193475800Y-101012900D03*
%TO.P,U1,30,N/C*%
%TO.N,unconnected-(U1-N{slash}C-Pad30)*%
X192975800Y-101012900D03*
%TO.P,U1,31,N/C*%
%TO.N,unconnected-(U1-N{slash}C-Pad31)*%
X192475800Y-101012900D03*
%TO.P,U1,32,N/C*%
%TO.N,unconnected-(U1-N{slash}C-Pad32)*%
X191975800Y-101012900D03*
D18*
%TO.P,U1,33,GND*%
%TO.N,GND*%
X193725800Y-103462900D03*
%TD*%
D11*
%TO.P,C9,1*%
%TO.N,Net-(C8-Pad2)*%
X160497300Y-95913900D03*
%TO.P,C9,2*%
%TO.N,Net-(SP1-Charge_Pump)*%
X160497300Y-97988900D03*
%TD*%
D19*
%TO.P,R3,1*%
%TO.N,Net-(C8-Pad2)*%
X160497300Y-92037800D03*
%TO.P,R3,2*%
%TO.N,Net-(C8-Pad1)*%
X160497300Y-90037800D03*
%TD*%
D13*
%TO.P,D1,1,K*%
%TO.N,+12V*%
X170484800Y-74421251D03*
D14*
%TO.P,D1,2,A*%
%TO.N,GND*%
X160324800Y-74421251D03*
%TD*%
D20*
%TO.P,C14,1*%
%TO.N,+5V*%
X197400000Y-90100000D03*
%TO.P,C14,2*%
%TO.N,GND*%
X199475000Y-90100000D03*
%TD*%
D11*
%TO.P,C8,1*%
%TO.N,Net-(C8-Pad1)*%
X165120100Y-90000300D03*
%TO.P,C8,2*%
%TO.N,Net-(C8-Pad2)*%
X165120100Y-92075300D03*
%TD*%
D19*
%TO.P,R4,1*%
%TO.N,Net-(C8-Pad1)*%
X170006700Y-90776300D03*
%TO.P,R4,2*%
%TO.N,+12V*%
X170006700Y-88776300D03*
%TD*%
D10*
%TO.P,C7,1*%
%TO.N,Net-(U1-RFOUT{slash}4)*%
X181910900Y-103225600D03*
%TO.P,C7,2*%
%TO.N,Net-(C7-Pad2)*%
X179835900Y-103225600D03*
%TD*%
D21*
%TO.P,R1,1*%
%TO.N,Net-(C7-Pad2)*%
X177234600Y-105333800D03*
%TO.P,R1,2*%
%TO.N,GND*%
X177234600Y-107333800D03*
%TD*%
D10*
%TO.P,C11,1*%
%TO.N,GND*%
X191711400Y-109900000D03*
%TO.P,C11,2*%
%TO.N,+5V*%
X189636400Y-109900000D03*
%TD*%
D22*
%TO.P,D7,1,K*%
%TO.N,GND*%
X192836800Y-82524600D03*
D23*
%TO.P,D7,2,G*%
%TO.N,Net-(D3-A)*%
X195376800Y-79984600D03*
%TO.P,D7,3,A*%
%TO.N,+5V*%
X197916800Y-82524600D03*
%TD*%
D24*
%TO.P,C15,1*%
%TO.N,+12V*%
X177368200Y-78002651D03*
D25*
%TO.P,C15,2*%
%TO.N,GND*%
X177368200Y-74202651D03*
%TD*%
D10*
%TO.P,C2,1*%
%TO.N,Net-(SP1-Crystal_Cap)*%
X151743500Y-97116900D03*
%TO.P,C2,2*%
%TO.N,Net-(SP1-Crystal)*%
X149668500Y-97116900D03*
%TD*%
D26*
%TO.P,D8,1,K*%
%TO.N,GND*%
X162814000Y-83336651D03*
D23*
%TO.P,D8,2,G*%
%TO.N,Net-(D5-A)*%
X165354000Y-80796651D03*
%TO.P,D8,3,A*%
%TO.N,+12V*%
X167894000Y-83336651D03*
%TD*%
D20*
%TO.P,C12,1*%
%TO.N,GND*%
X187561400Y-106070400D03*
%TO.P,C12,2*%
%TO.N,+5V*%
X189636400Y-106070400D03*
%TD*%
D27*
%TO.P,J2,1,Pin_1*%
%TO.N,+5V*%
X196469000Y-68427600D03*
D28*
%TO.P,J2,2,Pin_2*%
%TO.N,GND*%
X193929000Y-68427600D03*
%TD*%
D20*
%TO.P,C16,1*%
%TO.N,+12V*%
X177368200Y-82689351D03*
%TO.P,C16,2*%
%TO.N,GND*%
X179443200Y-82689351D03*
%TD*%
D10*
%TO.P,C1,1*%
%TO.N,GND*%
X157166000Y-97116900D03*
%TO.P,C1,2*%
%TO.N,Net-(SP1-Crystal_Cap)*%
X155091000Y-97116900D03*
%TD*%
D11*
%TO.P,C18,1*%
%TO.N,Net-(J1-Pin_3)*%
X154900000Y-111200000D03*
%TO.P,C18,2*%
%TO.N,GND*%
X154900000Y-113275000D03*
%TD*%
D10*
%TO.P,C3,1*%
%TO.N,+5V*%
X165300000Y-113000000D03*
%TO.P,C3,2*%
%TO.N,GND*%
X163225000Y-113000000D03*
%TD*%
D29*
%TO.P,C6,1*%
%TO.N,GND*%
X169341800Y-108733500D03*
%TO.P,C6,2*%
%TO.N,Net-(C6-Pad2)*%
X169341800Y-106658500D03*
%TD*%
D23*
%TO.P,Crystal1,1,1*%
%TO.N,Net-(SP1-Crystal)*%
X152323800Y-89966800D03*
%TO.P,Crystal1,2,2*%
%TO.N,GND*%
X152323800Y-85066800D03*
%TD*%
D30*
%TO.P,R5,1*%
%TO.N,Net-(U1-VTUNE)*%
X177900000Y-90800000D03*
%TO.P,R5,2*%
%TO.N,Net-(C8-Pad1)*%
X175900000Y-90800000D03*
%TD*%
D13*
%TO.P,D3,1,K*%
%TO.N,+5V*%
X200406000Y-77139800D03*
D14*
%TO.P,D3,2,A*%
%TO.N,Net-(D3-A)*%
X190246000Y-77139800D03*
%TD*%
D31*
%TO.P,Q1,B*%
%TO.N,Net-(SP1-Drive)*%
X169046900Y-97404100D03*
%TO.P,Q1,C*%
%TO.N,Net-(C8-Pad1)*%
X169996900Y-95204100D03*
%TO.P,Q1,E*%
%TO.N,GND*%
X170946900Y-97404100D03*
%TD*%
D10*
%TO.P,C5,1*%
%TO.N,Net-(C5-Pad1)*%
X172407400Y-103225600D03*
%TO.P,C5,2*%
%TO.N,Net-(C5-Pad2)*%
X170332400Y-103225600D03*
%TD*%
D20*
%TO.P,C10,1*%
%TO.N,Net-(U1-VTUNE)*%
X183162500Y-90800000D03*
%TO.P,C10,2*%
%TO.N,GND*%
X185237500Y-90800000D03*
%TD*%
%TO.P,C13,1*%
%TO.N,+5V*%
X197742900Y-101219000D03*
%TO.P,C13,2*%
%TO.N,GND*%
X199817900Y-101219000D03*
%TD*%
D27*
%TO.P,J4,1,Pin_1*%
%TO.N,+12V*%
X166776400Y-68909451D03*
D28*
%TO.P,J4,2,Pin_2*%
%TO.N,GND*%
X164236400Y-68909451D03*
%TD*%
D15*
%TO.P,R7,1*%
%TO.N,Net-(D3-A)*%
X186537600Y-77190600D03*
%TO.P,R7,2*%
%TO.N,GND*%
X186537600Y-67030600D03*
%TD*%
D32*
%TO.P,SP1,1,Charge_Pump*%
%TO.N,Net-(SP1-Charge_Pump)*%
X161834300Y-101955600D03*
%TO.P,SP1,2,Crystal_Cap*%
%TO.N,Net-(SP1-Crystal_Cap)*%
X161834300Y-102590600D03*
%TO.P,SP1,3,Crystal*%
%TO.N,Net-(SP1-Crystal)*%
X161834300Y-103225600D03*
%TO.P,SP1,4,SDA*%
%TO.N,Net-(J1-Pin_1)*%
X161834300Y-103860600D03*
%TO.P,SP1,5,SCL*%
%TO.N,Net-(J1-Pin_3)*%
X161834300Y-104495600D03*
%TO.P,SP1,6,Port_P3*%
%TO.N,unconnected-(SP1-Port_P3-Pad6)*%
X161834300Y-105130600D03*
%TO.P,SP1,7,Port_P2*%
%TO.N,unconnected-(SP1-Port_P2-Pad7)*%
X161834300Y-105765600D03*
%TO.P,SP1,8,Port_P1*%
%TO.N,unconnected-(SP1-Port_P1-Pad8)*%
X161834300Y-106400600D03*
%TO.P,SP1,9,Port_P0*%
%TO.N,unconnected-(SP1-Port_P0-Pad9)*%
X167034300Y-106400600D03*
%TO.P,SP1,10,Adress*%
%TO.N,unconnected-(SP1-Adress-Pad10)*%
X167034300Y-105765600D03*
%TO.P,SP1,11,Ref/Comp*%
%TO.N,unconnected-(SP1-Ref{slash}Comp-Pad11)*%
X167034300Y-105130600D03*
%TO.P,SP1,12,Vcc*%
%TO.N,+5V*%
X167034300Y-104495600D03*
%TO.P,SP1,13,RF_Input*%
%TO.N,Net-(C6-Pad2)*%
X167034300Y-103860600D03*
%TO.P,SP1,14,RF_Input*%
%TO.N,Net-(C5-Pad2)*%
X167034300Y-103225600D03*
%TO.P,SP1,15,VEE*%
%TO.N,GND*%
X167034300Y-102590600D03*
%TO.P,SP1,16,Drive*%
%TO.N,Net-(SP1-Drive)*%
X167034300Y-101955600D03*
%TD*%
D33*
%TO.P,R2,1*%
%TO.N,Net-(C5-Pad1)*%
X175234600Y-103225600D03*
%TO.P,R2,2*%
%TO.N,Net-(C7-Pad2)*%
X177234600Y-103225600D03*
%TD*%
D13*
%TO.P,D2,1,K*%
%TO.N,+5V*%
X200380600Y-73380600D03*
D14*
%TO.P,D2,2,A*%
%TO.N,GND*%
X190220600Y-73380600D03*
%TD*%
D27*
%TO.P,J1,1,Pin_1*%
%TO.N,Net-(J1-Pin_1)*%
X149777000Y-107643000D03*
D28*
%TO.P,J1,2,Pin_2*%
%TO.N,GND*%
X152317000Y-107643000D03*
%TO.P,J1,3,Pin_3*%
%TO.N,Net-(J1-Pin_3)*%
X154857000Y-107643000D03*
%TD*%
D34*
%TO.N,GND*%
X201853800Y-105638600D03*
X199817900Y-101219000D03*
X182788400Y-82800000D03*
X207949800Y-105638600D03*
X208813400Y-100457000D03*
X196688400Y-112200000D03*
X213385400Y-99695000D03*
X207187800Y-105638600D03*
X188814075Y-104698800D03*
X147400000Y-91111600D03*
X204901800Y-105638600D03*
X208711800Y-105638600D03*
X173488400Y-86700000D03*
X209575400Y-99695000D03*
X205600000Y-85000000D03*
X188004450Y-104698800D03*
X211124800Y-108788200D03*
X201930000Y-102768400D03*
X180200000Y-86700000D03*
X207264000Y-102768400D03*
X208813400Y-101219000D03*
X178536600Y-103860600D03*
X199644000Y-102768400D03*
X209600800Y-108788200D03*
X204139800Y-105638600D03*
X169011600Y-103860600D03*
X187207525Y-101752400D03*
X198043800Y-105638600D03*
X173888400Y-109575600D03*
X183969025Y-101752400D03*
X186397900Y-101752400D03*
X205663800Y-105638600D03*
X197281800Y-105638600D03*
X187194825Y-104698800D03*
X201168000Y-102768400D03*
X208838800Y-107899200D03*
X188017150Y-101752400D03*
X185575575Y-104698800D03*
X211886800Y-108788200D03*
X208838800Y-107137200D03*
X147400000Y-84400000D03*
X213410800Y-108788200D03*
X189500000Y-82800000D03*
X183146700Y-104698800D03*
X200329800Y-105638600D03*
X183159400Y-101752400D03*
X173800000Y-104200000D03*
X184778650Y-101752400D03*
X186385200Y-104698800D03*
X212648800Y-108788200D03*
X180600000Y-109575600D03*
X183956325Y-104698800D03*
X203454000Y-102768400D03*
X212623400Y-99695000D03*
X199567800Y-105638600D03*
X173800000Y-102300000D03*
X211861400Y-99695000D03*
X185588275Y-101752400D03*
X210337400Y-99695000D03*
D35*
X193725800Y-103462900D03*
D34*
X208838800Y-108635800D03*
X169341800Y-108700000D03*
X208838800Y-106375200D03*
X184765950Y-104698800D03*
X183100000Y-98100000D03*
X206502000Y-102768400D03*
X198120000Y-102768400D03*
X202692000Y-102768400D03*
X205740000Y-102768400D03*
X205600000Y-91711600D03*
X189636400Y-101752400D03*
X208813400Y-101981000D03*
X201091800Y-105638600D03*
X202615800Y-105638600D03*
X206425800Y-105638600D03*
X176388400Y-98100000D03*
X203400000Y-112200000D03*
X203377800Y-105638600D03*
X178511200Y-102082600D03*
X200406000Y-102768400D03*
X204216000Y-102768400D03*
X211099400Y-99695000D03*
X208026000Y-102768400D03*
X187561400Y-106070400D03*
X168706800Y-102590600D03*
X200330600Y-90017600D03*
X198805800Y-105638600D03*
X177234600Y-107333800D03*
X173888400Y-116400000D03*
X210362800Y-108788200D03*
X208813400Y-99695000D03*
X208788000Y-102768400D03*
X204978000Y-102768400D03*
X188826775Y-101752400D03*
X180600000Y-116400000D03*
X198882000Y-102768400D03*
%TD*%
D36*
%TO.N,+12V*%
X170484800Y-74421251D02*
X170484800Y-77977251D01*
X166776400Y-68909451D02*
X166776400Y-70712851D01*
X167843200Y-83387451D02*
X167894000Y-83336651D01*
D37*
X170006700Y-88776300D02*
X170006700Y-85550951D01*
D36*
X170484800Y-77977251D02*
X170510200Y-78002651D01*
X177368200Y-78002651D02*
X170510200Y-78002651D01*
D38*
X177419000Y-78053451D02*
X177368200Y-78002651D01*
D37*
X177368200Y-82689351D02*
X177368200Y-78002651D01*
D38*
X170006700Y-85550951D02*
X167843200Y-83387451D01*
D36*
X170510200Y-80720451D02*
X167894000Y-83336651D01*
X166776400Y-70712851D02*
X170484800Y-74421251D01*
X170510200Y-78002651D02*
X170510200Y-80720451D01*
D39*
%TO.N,GND*%
X193475800Y-103712900D02*
X193725800Y-103462900D01*
X191275800Y-103712900D02*
X193475800Y-103712900D01*
X192975800Y-105912900D02*
X192975800Y-104212900D01*
D40*
X167034300Y-102590600D02*
X165800000Y-102590600D01*
D39*
X192975800Y-104212900D02*
X193725800Y-103462900D01*
D38*
%TO.N,+5V*%
X189636400Y-109900000D02*
X185800000Y-109900000D01*
D36*
X200406000Y-80035400D02*
X197916800Y-82524600D01*
D37*
X197400000Y-87400000D02*
X197400000Y-83041400D01*
D36*
X196469000Y-68427600D02*
X196469000Y-69469000D01*
D40*
X165300000Y-110700000D02*
X165300000Y-113000000D01*
D39*
X189636400Y-106070400D02*
X189636400Y-105257600D01*
D37*
X197400000Y-96249400D02*
X197205600Y-96443800D01*
D40*
X167034300Y-104495600D02*
X166034301Y-104495600D01*
X165300000Y-105229901D02*
X165300000Y-110700000D01*
X166034301Y-104495600D02*
X165300000Y-105229901D01*
D37*
X189636400Y-111963600D02*
X188600000Y-113000000D01*
D38*
X197400000Y-87400000D02*
X193000000Y-87400000D01*
D37*
X197400000Y-90100000D02*
X197400000Y-87400000D01*
D39*
X197205600Y-102920800D02*
X197205600Y-96443800D01*
D36*
X200406000Y-77139800D02*
X200406000Y-80035400D01*
D37*
X188600000Y-113000000D02*
X165300000Y-113000000D01*
X189636400Y-109900000D02*
X189636400Y-111963600D01*
D36*
X200380600Y-73380600D02*
X200380600Y-77114400D01*
X196469000Y-69469000D02*
X200380600Y-73380600D01*
D37*
X197400000Y-90100000D02*
X197400000Y-96249400D01*
X189636400Y-106070400D02*
X189636400Y-109900000D01*
D39*
X196913500Y-103212900D02*
X197205600Y-102920800D01*
X191275800Y-104212900D02*
X190681100Y-104212900D01*
D36*
X200380600Y-77114400D02*
X200406000Y-77139800D01*
D37*
X197400000Y-83041400D02*
X197916800Y-82524600D01*
D39*
X189636400Y-105257600D02*
X190681100Y-104212900D01*
X196175800Y-103212900D02*
X196913500Y-103212900D01*
D38*
%TO.N,Net-(D3-A)*%
X192532000Y-77139800D02*
X195376800Y-79984600D01*
X190246000Y-77139800D02*
X192532000Y-77139800D01*
X190195200Y-77190600D02*
X190246000Y-77139800D01*
X186537600Y-77190600D02*
X190195200Y-77190600D01*
%TO.N,Net-(D5-A)*%
X156921200Y-78028800D02*
X160324051Y-78028800D01*
X160324051Y-78028800D02*
X160350200Y-78002651D01*
D36*
X162560000Y-78002651D02*
X165354000Y-80796651D01*
X160350200Y-78002651D02*
X162560000Y-78002651D01*
D40*
%TO.N,Net-(SP1-Crystal)*%
X152400000Y-101300000D02*
X156300000Y-101300000D01*
D37*
X152323800Y-89966800D02*
X149668500Y-92622100D01*
D40*
X158225600Y-103225600D02*
X161834300Y-103225600D01*
X156300000Y-101300000D02*
X158225600Y-103225600D01*
X149668500Y-97116900D02*
X149668500Y-98568500D01*
D37*
X149668500Y-92622100D02*
X149668500Y-97116900D01*
D40*
X149668500Y-98568500D02*
X152400000Y-101300000D01*
X161834300Y-103225600D02*
X161800300Y-103191600D01*
%TO.N,Net-(C5-Pad2)*%
X167034300Y-103225600D02*
X170332400Y-103225600D01*
%TO.N,Net-(SP1-Crystal_Cap)*%
X153359900Y-97176800D02*
X153300000Y-97116900D01*
D37*
X153300000Y-97116900D02*
X155091000Y-97116900D01*
X151743500Y-97116900D02*
X153300000Y-97116900D01*
D40*
X154500000Y-100500000D02*
X153359900Y-99359900D01*
X161834300Y-102590600D02*
X159590600Y-102590600D01*
X159590600Y-102590600D02*
X157500000Y-100500000D01*
X153359900Y-99359900D02*
X153359900Y-97176800D01*
X157500000Y-100500000D02*
X154500000Y-100500000D01*
%TO.N,Net-(C6-Pad2)*%
X168034299Y-103860600D02*
X167034300Y-103860600D01*
X169341800Y-105168101D02*
X169341800Y-106658500D01*
X169341800Y-105168101D02*
X168034299Y-103860600D01*
%TO.N,Net-(SP1-Charge_Pump)*%
X160497300Y-101511100D02*
X160497300Y-101130100D01*
X161834300Y-101955600D02*
X160941800Y-101955600D01*
X160941800Y-101955600D02*
X160497300Y-101511100D01*
D37*
X160497300Y-97988900D02*
X160497300Y-101130100D01*
D39*
%TO.N,Net-(U1-RFOUT)*%
X198310000Y-104212900D02*
X197586600Y-104212900D01*
D41*
X211790200Y-104212900D02*
X197586600Y-104212900D01*
D39*
X197586600Y-104212900D02*
X196175800Y-104212900D01*
D37*
%TO.N,Net-(U1-VTUNE)*%
X177900000Y-90800000D02*
X180600000Y-90800000D01*
D42*
X193471800Y-100076000D02*
X193471800Y-97155000D01*
D39*
X193475800Y-100080000D02*
X193471800Y-100076000D01*
D42*
X192430400Y-96113600D02*
X181533800Y-96113600D01*
D39*
X193475800Y-101012900D02*
X193475800Y-100080000D01*
D37*
X183062500Y-90800000D02*
X183162500Y-90900000D01*
D42*
X180543200Y-90856800D02*
X180600000Y-90800000D01*
X181533800Y-96113600D02*
X180543200Y-95123000D01*
D37*
X180600000Y-90800000D02*
X183162500Y-90800000D01*
D42*
X193471800Y-97155000D02*
X192430400Y-96113600D01*
X180543200Y-95123000D02*
X180543200Y-90856800D01*
D41*
%TO.N,Net-(U1-RFOUT{slash}4)*%
X189699900Y-103225600D02*
X181910900Y-103225600D01*
D39*
X191275800Y-103212900D02*
X190042800Y-103212900D01*
D41*
X189712600Y-103212900D02*
X189699900Y-103225600D01*
D39*
X190042800Y-103212900D02*
X189712600Y-103212900D01*
D37*
%TO.N,Net-(C8-Pad1)*%
X167300300Y-90000300D02*
X165120100Y-90000300D01*
X169996900Y-90786100D02*
X170006700Y-90776300D01*
X169996900Y-95204100D02*
X169996900Y-90786100D01*
X168076300Y-90776300D02*
X167300300Y-90000300D01*
X160497300Y-90037800D02*
X165082600Y-90037800D01*
X165082600Y-90037800D02*
X165120100Y-90000300D01*
X170006700Y-90776300D02*
X175876300Y-90776300D01*
X175876300Y-90776300D02*
X175900000Y-90800000D01*
X170006700Y-90776300D02*
X168076300Y-90776300D01*
D40*
%TO.N,Net-(SP1-Drive)*%
X169046900Y-101648300D02*
X169046900Y-97404100D01*
X168739600Y-101955600D02*
X169046900Y-101648300D01*
X167034300Y-101955600D02*
X168739600Y-101955600D01*
%TO.N,Net-(C5-Pad1)*%
X172407400Y-103225600D02*
X175234600Y-103225600D01*
%TO.N,Net-(C7-Pad2)*%
X177234600Y-103225600D02*
X177234600Y-105333800D01*
X177234600Y-103225600D02*
X179835900Y-103225600D01*
D37*
%TO.N,Net-(C8-Pad2)*%
X165082600Y-92037800D02*
X165120100Y-92075300D01*
X160497300Y-92037800D02*
X165082600Y-92037800D01*
X160497300Y-92037800D02*
X160497300Y-95913900D01*
%TO.N,Net-(J1-Pin_3)*%
X154857000Y-107643000D02*
X154857000Y-111157000D01*
D40*
X158500000Y-106500000D02*
X160504400Y-104495600D01*
D37*
X154857000Y-111157000D02*
X154900000Y-111200000D01*
D40*
X154857000Y-107643000D02*
X156000000Y-106500000D01*
X160504400Y-104495600D02*
X161834300Y-104495600D01*
X156000000Y-106500000D02*
X158500000Y-106500000D01*
%TO.N,Net-(J1-Pin_1)*%
X160139400Y-103860600D02*
X161834300Y-103860600D01*
X159000000Y-105000000D02*
X160139400Y-103860600D01*
X152420000Y-105000000D02*
X159000000Y-105000000D01*
X149777000Y-107643000D02*
X152420000Y-105000000D01*
D37*
X149777000Y-107643000D02*
X149777000Y-111157000D01*
X149777000Y-111157000D02*
X149820000Y-111200000D01*
%TD*%
%TA.AperFunction,Conductor*%
%TO.N,GND*%
G36*
X214469691Y-64781407D02*
G01*
X214505655Y-64830907D01*
X214510500Y-64861500D01*
X214510500Y-100788492D01*
X214491593Y-100846683D01*
X214442093Y-100882647D01*
X214380907Y-100882647D01*
X214331407Y-100846683D01*
X214315155Y-100811264D01*
X214313798Y-100805526D01*
X214263553Y-100670811D01*
X214263552Y-100670809D01*
X214177392Y-100555715D01*
X214177384Y-100555707D01*
X214062290Y-100469547D01*
X214062288Y-100469546D01*
X213927581Y-100419303D01*
X213927570Y-100419301D01*
X213868024Y-100412900D01*
X212290201Y-100412900D01*
X212290200Y-100412901D01*
X212290200Y-101573900D01*
X212271293Y-101632091D01*
X212221793Y-101668055D01*
X212191200Y-101672900D01*
X211790201Y-101672900D01*
X211790200Y-101672901D01*
X211790200Y-102073900D01*
X211771293Y-102132091D01*
X211721793Y-102168055D01*
X211691200Y-102172900D01*
X209260201Y-102172900D01*
X209260200Y-102172901D01*
X209260200Y-102480724D01*
X209260199Y-102480724D01*
X209266601Y-102540270D01*
X209266603Y-102540281D01*
X209316846Y-102674988D01*
X209316847Y-102674990D01*
X209403007Y-102790084D01*
X209403015Y-102790092D01*
X209518109Y-102876252D01*
X209518111Y-102876253D01*
X209617224Y-102913220D01*
X209633091Y-102925820D01*
X209651316Y-102934683D01*
X209656504Y-102944413D01*
X209665139Y-102951270D01*
X209670569Y-102970790D01*
X209680104Y-102988672D01*
X209678581Y-102999594D01*
X209681537Y-103010217D01*
X209674455Y-103029204D01*
X209671659Y-103049272D01*
X209664173Y-103056773D01*
X209660156Y-103067545D01*
X209629208Y-103093335D01*
X209627669Y-103094155D01*
X209536043Y-103138949D01*
X209527338Y-103147653D01*
X209514335Y-103154587D01*
X209498013Y-103157484D01*
X209483242Y-103165011D01*
X209467755Y-103166230D01*
X197818069Y-103166230D01*
X197759878Y-103147323D01*
X197723914Y-103097823D01*
X197722442Y-103041610D01*
X197736099Y-102990641D01*
X197736099Y-102850958D01*
X197736099Y-102423500D01*
X197755006Y-102365309D01*
X197804506Y-102329345D01*
X197835099Y-102324500D01*
X198144067Y-102324500D01*
X198144072Y-102324500D01*
X198179816Y-102321687D01*
X198332792Y-102277243D01*
X198469909Y-102196152D01*
X198582552Y-102083509D01*
X198624873Y-102011948D01*
X198670767Y-101971487D01*
X198731681Y-101965729D01*
X198784346Y-101996875D01*
X198794346Y-102010372D01*
X198888082Y-102162342D01*
X199012059Y-102286319D01*
X199161275Y-102378356D01*
X199317900Y-102430257D01*
X199317900Y-101719001D01*
X200317900Y-101719001D01*
X200317900Y-102430256D01*
X200474524Y-102378356D01*
X200623740Y-102286319D01*
X200747719Y-102162340D01*
X200839756Y-102013124D01*
X200894906Y-101846693D01*
X200905400Y-101743987D01*
X200905400Y-101719001D01*
X200905399Y-101719000D01*
X200317901Y-101719000D01*
X200317900Y-101719001D01*
X199317900Y-101719001D01*
X199317900Y-100865075D01*
X209260200Y-100865075D01*
X209260200Y-101172899D01*
X209260201Y-101172900D01*
X211290199Y-101172900D01*
X211290200Y-101172899D01*
X211290200Y-100412901D01*
X211290199Y-100412900D01*
X209712376Y-100412900D01*
X209652829Y-100419301D01*
X209652818Y-100419303D01*
X209518111Y-100469546D01*
X209518109Y-100469547D01*
X209403015Y-100555707D01*
X209403007Y-100555715D01*
X209316847Y-100670809D01*
X209316846Y-100670811D01*
X209266603Y-100805518D01*
X209266601Y-100805529D01*
X209260200Y-100865075D01*
X199317900Y-100865075D01*
X199317900Y-100718999D01*
X200317900Y-100718999D01*
X200317901Y-100719000D01*
X200905398Y-100719000D01*
X200905399Y-100718999D01*
X200905399Y-100694013D01*
X200894907Y-100591312D01*
X200894904Y-100591300D01*
X200839756Y-100424875D01*
X200747719Y-100275659D01*
X200623740Y-100151680D01*
X200474526Y-100059644D01*
X200474522Y-100059642D01*
X200317900Y-100007742D01*
X200317900Y-100718999D01*
X199317900Y-100718999D01*
X199317900Y-100007742D01*
X199161277Y-100059642D01*
X199161273Y-100059644D01*
X199012059Y-100151680D01*
X198888082Y-100275657D01*
X198794346Y-100427627D01*
X198747704Y-100467228D01*
X198686694Y-100471851D01*
X198634618Y-100439730D01*
X198624872Y-100426049D01*
X198582554Y-100354494D01*
X198582553Y-100354493D01*
X198582552Y-100354491D01*
X198469909Y-100241848D01*
X198469906Y-100241846D01*
X198469905Y-100241845D01*
X198332795Y-100160758D01*
X198332792Y-100160757D01*
X198179816Y-100116313D01*
X198179815Y-100116312D01*
X198179812Y-100116312D01*
X198157106Y-100114525D01*
X198144072Y-100113500D01*
X198144067Y-100113500D01*
X197835099Y-100113500D01*
X197776908Y-100094593D01*
X197740944Y-100045093D01*
X197736099Y-100014500D01*
X197736099Y-97199523D01*
X197755006Y-97141332D01*
X197765096Y-97129519D01*
X198083927Y-96810688D01*
X198083929Y-96810686D01*
X198180289Y-96666474D01*
X198246663Y-96506233D01*
X198280500Y-96336122D01*
X198280500Y-96162678D01*
X198280500Y-90963310D01*
X198299407Y-90905119D01*
X198348907Y-90869155D01*
X198410093Y-90869155D01*
X198459593Y-90905119D01*
X198463761Y-90911338D01*
X198545180Y-91043340D01*
X198669159Y-91167319D01*
X198818375Y-91259356D01*
X198975000Y-91311257D01*
X198975000Y-90600001D01*
X199975000Y-90600001D01*
X199975000Y-91311256D01*
X200131624Y-91259356D01*
X200280840Y-91167319D01*
X200404819Y-91043340D01*
X200496856Y-90894124D01*
X200552006Y-90727693D01*
X200562500Y-90624987D01*
X200562500Y-90600001D01*
X200562499Y-90600000D01*
X199975001Y-90600000D01*
X199975000Y-90600001D01*
X198975000Y-90600001D01*
X198975000Y-89599999D01*
X199975000Y-89599999D01*
X199975001Y-89600000D01*
X200562498Y-89600000D01*
X200562499Y-89599999D01*
X200562499Y-89575013D01*
X200552007Y-89472312D01*
X200552004Y-89472300D01*
X200496856Y-89305875D01*
X200404819Y-89156659D01*
X200280840Y-89032680D01*
X200131626Y-88940644D01*
X200131622Y-88940642D01*
X199975000Y-88888742D01*
X199975000Y-89599999D01*
X198975000Y-89599999D01*
X198975000Y-88888742D01*
X198818377Y-88940642D01*
X198818373Y-88940644D01*
X198669159Y-89032680D01*
X198545182Y-89156657D01*
X198463761Y-89288662D01*
X198417120Y-89328263D01*
X198356109Y-89332886D01*
X198304033Y-89300765D01*
X198280783Y-89244169D01*
X198280500Y-89236689D01*
X198280500Y-88143582D01*
X198299405Y-88085394D01*
X198366891Y-87992511D01*
X198447676Y-87833961D01*
X198502664Y-87664726D01*
X198530500Y-87488972D01*
X198530500Y-87311028D01*
X198530500Y-87311024D01*
X198502665Y-87135278D01*
X198502664Y-87135274D01*
X198447676Y-86966039D01*
X198366891Y-86807489D01*
X198299408Y-86714607D01*
X198280500Y-86656417D01*
X198280500Y-83929898D01*
X198299407Y-83871707D01*
X198348905Y-83835743D01*
X198446728Y-83803960D01*
X198640340Y-83705310D01*
X198816135Y-83577587D01*
X201301361Y-81092358D01*
X201301370Y-81092351D01*
X201305330Y-81088390D01*
X201305336Y-81088387D01*
X201458987Y-80934736D01*
X201586710Y-80758940D01*
X201679356Y-80577112D01*
X201685360Y-80565329D01*
X201752508Y-80358668D01*
X201767071Y-80266722D01*
X201786501Y-80144051D01*
X201786501Y-79923255D01*
X201786500Y-79923225D01*
X201786500Y-78358457D01*
X201800286Y-78308063D01*
X201839243Y-78242192D01*
X201883687Y-78089217D01*
X201886500Y-78053473D01*
X201886499Y-76226128D01*
X201883687Y-76190383D01*
X201839243Y-76037408D01*
X201829688Y-76021251D01*
X201774886Y-75928584D01*
X201761100Y-75878190D01*
X201761100Y-74599257D01*
X201774886Y-74548863D01*
X201813843Y-74482992D01*
X201858287Y-74330017D01*
X201861100Y-74294273D01*
X201861099Y-72466928D01*
X201858287Y-72431183D01*
X201813843Y-72278208D01*
X201732752Y-72141090D01*
X201620110Y-72028448D01*
X201482992Y-71947357D01*
X201482991Y-71947356D01*
X201482990Y-71947356D01*
X201330020Y-71902914D01*
X201330017Y-71902913D01*
X201330016Y-71902912D01*
X201330013Y-71902912D01*
X201307307Y-71901125D01*
X201294273Y-71900100D01*
X201294268Y-71900100D01*
X200893430Y-71900100D01*
X200835239Y-71881193D01*
X200823426Y-71871104D01*
X198579432Y-69627110D01*
X208149500Y-69627110D01*
X208149500Y-69869689D01*
X208181161Y-70110181D01*
X208181161Y-70110186D01*
X208243944Y-70344492D01*
X208243948Y-70344505D01*
X208336772Y-70568604D01*
X208336774Y-70568608D01*
X208336776Y-70568612D01*
X208458064Y-70778689D01*
X208458066Y-70778692D01*
X208605729Y-70971131D01*
X208605731Y-70971133D01*
X208605735Y-70971138D01*
X208777262Y-71142665D01*
X208777266Y-71142668D01*
X208777268Y-71142670D01*
X208907733Y-71242779D01*
X208969711Y-71290336D01*
X209179788Y-71411624D01*
X209403900Y-71504454D01*
X209638211Y-71567238D01*
X209878712Y-71598900D01*
X209878713Y-71598900D01*
X210121287Y-71598900D01*
X210121288Y-71598900D01*
X210361789Y-71567238D01*
X210596100Y-71504454D01*
X210820212Y-71411624D01*
X211030289Y-71290336D01*
X211222738Y-71142665D01*
X211394265Y-70971138D01*
X211541936Y-70778689D01*
X211663224Y-70568612D01*
X211756054Y-70344500D01*
X211818838Y-70110189D01*
X211850500Y-69869688D01*
X211850500Y-69627112D01*
X211818838Y-69386611D01*
X211756054Y-69152300D01*
X211663224Y-68928188D01*
X211541936Y-68718111D01*
X211446188Y-68593329D01*
X211394270Y-68525668D01*
X211394268Y-68525666D01*
X211394265Y-68525662D01*
X211222738Y-68354135D01*
X211222733Y-68354131D01*
X211222731Y-68354129D01*
X211030292Y-68206466D01*
X211023149Y-68202342D01*
X210820212Y-68085176D01*
X210820208Y-68085174D01*
X210820204Y-68085172D01*
X210596105Y-67992348D01*
X210596104Y-67992347D01*
X210596100Y-67992346D01*
X210361789Y-67929562D01*
X210361786Y-67929561D01*
X210361784Y-67929561D01*
X210121289Y-67897900D01*
X210121288Y-67897900D01*
X209878712Y-67897900D01*
X209878710Y-67897900D01*
X209638218Y-67929561D01*
X209638213Y-67929561D01*
X209403907Y-67992344D01*
X209403894Y-67992348D01*
X209179795Y-68085172D01*
X208969707Y-68206466D01*
X208777268Y-68354129D01*
X208605729Y-68525668D01*
X208458066Y-68718107D01*
X208458064Y-68718111D01*
X208337116Y-68927600D01*
X208336772Y-68928195D01*
X208243948Y-69152294D01*
X208243944Y-69152307D01*
X208181161Y-69386613D01*
X208181161Y-69386618D01*
X208149500Y-69627110D01*
X198579432Y-69627110D01*
X197878496Y-68926174D01*
X197850719Y-68871657D01*
X197849500Y-68856170D01*
X197849500Y-68318948D01*
X197815509Y-68104336D01*
X197815508Y-68104332D01*
X197748360Y-67897672D01*
X197733649Y-67868799D01*
X197710290Y-67822953D01*
X197699500Y-67778009D01*
X197699500Y-67541493D01*
X197697673Y-67528951D01*
X197688724Y-67467528D01*
X197632951Y-67353443D01*
X197543157Y-67263649D01*
X197429072Y-67207876D01*
X197355110Y-67197100D01*
X197355107Y-67197100D01*
X197118589Y-67197100D01*
X197073644Y-67186310D01*
X197071469Y-67185202D01*
X196998928Y-67148240D01*
X196883823Y-67110840D01*
X196792263Y-67081090D01*
X196577651Y-67047100D01*
X196577648Y-67047100D01*
X196360352Y-67047100D01*
X196360349Y-67047100D01*
X196145736Y-67081090D01*
X195939071Y-67148240D01*
X195912671Y-67161692D01*
X195866531Y-67185202D01*
X195864356Y-67186310D01*
X195819411Y-67197100D01*
X195582890Y-67197100D01*
X195508928Y-67207876D01*
X195394844Y-67263648D01*
X195305048Y-67353444D01*
X195280655Y-67403341D01*
X195249276Y-67467528D01*
X195241989Y-67517548D01*
X195238500Y-67541493D01*
X195238500Y-67778009D01*
X195227709Y-67822956D01*
X195221279Y-67835575D01*
X195203074Y-67860632D01*
X194636106Y-68427600D01*
X195059503Y-68850996D01*
X195087281Y-68905513D01*
X195088500Y-68921000D01*
X195088500Y-69356824D01*
X195088499Y-69356854D01*
X195088499Y-69577649D01*
X195106253Y-69689739D01*
X195106253Y-69689740D01*
X195122490Y-69792263D01*
X195189640Y-69998928D01*
X195271986Y-70160543D01*
X195288290Y-70192540D01*
X195416013Y-70368336D01*
X195569664Y-70521987D01*
X195569667Y-70521989D01*
X198871104Y-73823426D01*
X198898881Y-73877943D01*
X198900100Y-73893430D01*
X198900100Y-74294267D01*
X198900942Y-74304966D01*
X198902913Y-74330017D01*
X198937266Y-74448257D01*
X198947357Y-74482991D01*
X198947356Y-74482991D01*
X198947357Y-74482992D01*
X198986313Y-74548863D01*
X199000100Y-74599257D01*
X199000100Y-75964089D01*
X198986314Y-76014483D01*
X198972757Y-76037406D01*
X198972757Y-76037408D01*
X198928314Y-76190379D01*
X198928312Y-76190386D01*
X198925500Y-76226132D01*
X198925500Y-78053467D01*
X198927733Y-78081853D01*
X198928313Y-78089217D01*
X198942327Y-78137451D01*
X198972757Y-78242191D01*
X198972756Y-78242191D01*
X198972757Y-78242192D01*
X199011713Y-78308063D01*
X199025500Y-78358457D01*
X199025500Y-79422570D01*
X199006593Y-79480761D01*
X198996504Y-79492574D01*
X196863812Y-81625266D01*
X196736088Y-81801062D01*
X196637440Y-81994671D01*
X196570290Y-82201336D01*
X196536299Y-82415948D01*
X196536299Y-82633251D01*
X196554428Y-82747714D01*
X196553745Y-82782515D01*
X196519500Y-82954675D01*
X196519500Y-86170500D01*
X196500593Y-86228691D01*
X196451093Y-86264655D01*
X196420500Y-86269500D01*
X192911025Y-86269500D01*
X192735278Y-86297334D01*
X192566038Y-86352324D01*
X192407489Y-86433108D01*
X192407483Y-86433112D01*
X192263534Y-86537698D01*
X192137698Y-86663534D01*
X192033112Y-86807483D01*
X192033108Y-86807489D01*
X191952324Y-86966038D01*
X191897334Y-87135278D01*
X191869500Y-87311024D01*
X191869500Y-87488975D01*
X191897334Y-87664721D01*
X191952324Y-87833961D01*
X192033108Y-87992510D01*
X192033112Y-87992516D01*
X192137698Y-88136465D01*
X192137700Y-88136467D01*
X192137703Y-88136471D01*
X192263529Y-88262297D01*
X192263532Y-88262299D01*
X192263534Y-88262301D01*
X192401628Y-88362633D01*
X192407489Y-88366891D01*
X192566039Y-88447676D01*
X192735274Y-88502664D01*
X192735275Y-88502664D01*
X192735278Y-88502665D01*
X192911025Y-88530500D01*
X192911028Y-88530500D01*
X196420500Y-88530500D01*
X196478691Y-88549407D01*
X196514655Y-88598907D01*
X196519500Y-88629500D01*
X196519500Y-89277476D01*
X196505714Y-89327870D01*
X196479257Y-89372606D01*
X196434814Y-89525580D01*
X196434812Y-89525587D01*
X196432000Y-89561333D01*
X196432000Y-90638666D01*
X196434812Y-90674412D01*
X196434812Y-90674415D01*
X196434813Y-90674416D01*
X196464706Y-90777309D01*
X196479257Y-90827391D01*
X196479256Y-90827391D01*
X196487510Y-90841347D01*
X196505713Y-90872127D01*
X196519500Y-90922521D01*
X196519500Y-95855731D01*
X196502815Y-95910733D01*
X196425314Y-96026719D01*
X196425308Y-96026731D01*
X196358937Y-96186966D01*
X196358937Y-96186968D01*
X196325100Y-96357075D01*
X196325100Y-96530524D01*
X196336450Y-96587583D01*
X196356689Y-96689333D01*
X196358937Y-96700631D01*
X196358937Y-96700633D01*
X196425308Y-96860868D01*
X196425314Y-96860880D01*
X196483722Y-96948291D01*
X196521671Y-97005086D01*
X196521674Y-97005089D01*
X196521678Y-97005094D01*
X196646104Y-97129519D01*
X196673882Y-97184036D01*
X196675101Y-97199523D01*
X196675101Y-101103400D01*
X196656194Y-101161591D01*
X196606694Y-101197555D01*
X196576101Y-101202400D01*
X196085299Y-101202400D01*
X196027108Y-101183493D01*
X195991144Y-101133993D01*
X195986299Y-101103400D01*
X195986299Y-100607894D01*
X195977208Y-100550497D01*
X195970982Y-100511185D01*
X195911589Y-100394619D01*
X195819081Y-100302111D01*
X195702515Y-100242718D01*
X195691788Y-100241019D01*
X195605804Y-100227400D01*
X195345794Y-100227400D01*
X195257503Y-100241384D01*
X195249085Y-100242718D01*
X195249084Y-100242718D01*
X195241390Y-100243937D01*
X195240837Y-100240446D01*
X195210769Y-100240403D01*
X195210210Y-100243937D01*
X195202515Y-100242718D01*
X195134814Y-100231995D01*
X195105804Y-100227400D01*
X194845794Y-100227400D01*
X194757503Y-100241384D01*
X194749085Y-100242718D01*
X194749084Y-100242718D01*
X194741390Y-100243937D01*
X194740837Y-100240446D01*
X194710769Y-100240403D01*
X194710210Y-100243937D01*
X194702515Y-100242718D01*
X194634814Y-100231995D01*
X194605804Y-100227400D01*
X194345793Y-100227400D01*
X194316786Y-100231995D01*
X194256354Y-100222423D01*
X194213090Y-100179158D01*
X194202300Y-100134214D01*
X194202300Y-97231848D01*
X194202301Y-97231827D01*
X194202301Y-97083053D01*
X194202300Y-97083049D01*
X194195024Y-97046469D01*
X194174228Y-96941921D01*
X194138775Y-96856331D01*
X194119162Y-96808980D01*
X194119159Y-96808974D01*
X194086811Y-96760562D01*
X194086810Y-96760562D01*
X194082127Y-96753554D01*
X194039217Y-96689333D01*
X193937467Y-96587583D01*
X193937463Y-96587580D01*
X192997819Y-95647936D01*
X192997817Y-95647933D01*
X192896067Y-95546183D01*
X192846005Y-95512733D01*
X192776419Y-95466237D01*
X192643479Y-95411172D01*
X192502350Y-95383099D01*
X192502348Y-95383099D01*
X192358452Y-95383099D01*
X192353572Y-95383099D01*
X192353552Y-95383100D01*
X181877391Y-95383100D01*
X181819200Y-95364193D01*
X181807387Y-95354104D01*
X181302696Y-94849413D01*
X181274919Y-94794896D01*
X181273700Y-94779409D01*
X181273700Y-91779500D01*
X181292607Y-91721309D01*
X181342107Y-91685345D01*
X181372700Y-91680500D01*
X182297831Y-91680500D01*
X182356022Y-91699407D01*
X182367834Y-91709496D01*
X182401679Y-91743340D01*
X182435491Y-91777152D01*
X182481196Y-91804182D01*
X182572604Y-91858241D01*
X182572605Y-91858241D01*
X182572608Y-91858243D01*
X182725584Y-91902687D01*
X182761328Y-91905500D01*
X182761333Y-91905500D01*
X183563667Y-91905500D01*
X183563672Y-91905500D01*
X183599416Y-91902687D01*
X183752392Y-91858243D01*
X183889509Y-91777152D01*
X184002152Y-91664509D01*
X184044473Y-91592948D01*
X184090367Y-91552487D01*
X184151281Y-91546729D01*
X184203946Y-91577875D01*
X184213946Y-91591372D01*
X184307682Y-91743342D01*
X184431659Y-91867319D01*
X184580875Y-91959356D01*
X184737500Y-92011257D01*
X184737500Y-91300001D01*
X185737500Y-91300001D01*
X185737500Y-92011256D01*
X185894124Y-91959356D01*
X186043340Y-91867319D01*
X186167319Y-91743340D01*
X186259356Y-91594124D01*
X186314506Y-91427693D01*
X186325000Y-91324987D01*
X186325000Y-91300001D01*
X186324999Y-91300000D01*
X185737501Y-91300000D01*
X185737500Y-91300001D01*
X184737500Y-91300001D01*
X184737500Y-90299999D01*
X185737500Y-90299999D01*
X185737501Y-90300000D01*
X186324998Y-90300000D01*
X186324999Y-90299999D01*
X186324999Y-90275013D01*
X186314507Y-90172312D01*
X186314504Y-90172300D01*
X186259356Y-90005875D01*
X186167319Y-89856659D01*
X186043340Y-89732680D01*
X185894126Y-89640644D01*
X185894122Y-89640642D01*
X185737500Y-89588742D01*
X185737500Y-90299999D01*
X184737500Y-90299999D01*
X184737500Y-89588742D01*
X184580877Y-89640642D01*
X184580873Y-89640644D01*
X184431659Y-89732680D01*
X184307682Y-89856657D01*
X184213946Y-90008627D01*
X184167304Y-90048228D01*
X184106294Y-90052851D01*
X184054218Y-90020730D01*
X184044472Y-90007049D01*
X184002154Y-89935494D01*
X184002153Y-89935493D01*
X184002152Y-89935491D01*
X183889509Y-89822848D01*
X183889506Y-89822846D01*
X183889505Y-89822845D01*
X183752395Y-89741758D01*
X183752392Y-89741757D01*
X183599416Y-89697313D01*
X183599415Y-89697312D01*
X183599412Y-89697312D01*
X183576706Y-89695525D01*
X183563672Y-89694500D01*
X182761328Y-89694500D01*
X182749180Y-89695456D01*
X182725587Y-89697312D01*
X182725580Y-89697314D01*
X182572608Y-89741757D01*
X182572604Y-89741758D01*
X182435493Y-89822846D01*
X182435491Y-89822847D01*
X182367834Y-89890504D01*
X182313317Y-89918281D01*
X182297831Y-89919500D01*
X178752169Y-89919500D01*
X178693978Y-89900593D01*
X178682166Y-89890504D01*
X178639508Y-89847847D01*
X178639506Y-89847846D01*
X178502395Y-89766758D01*
X178502392Y-89766757D01*
X178349416Y-89722313D01*
X178349415Y-89722312D01*
X178349412Y-89722312D01*
X178326706Y-89720525D01*
X178313672Y-89719500D01*
X177486328Y-89719500D01*
X177474180Y-89720456D01*
X177450587Y-89722312D01*
X177450580Y-89722314D01*
X177297608Y-89766757D01*
X177297604Y-89766758D01*
X177160494Y-89847845D01*
X177047845Y-89960494D01*
X176985213Y-90066399D01*
X176939317Y-90106862D01*
X176878403Y-90112620D01*
X176825739Y-90081474D01*
X176814787Y-90066399D01*
X176752154Y-89960494D01*
X176752153Y-89960493D01*
X176752152Y-89960491D01*
X176639509Y-89847848D01*
X176639506Y-89847846D01*
X176639505Y-89847845D01*
X176502395Y-89766758D01*
X176502392Y-89766757D01*
X176349416Y-89722313D01*
X176349415Y-89722312D01*
X176349412Y-89722312D01*
X176326706Y-89720525D01*
X176313672Y-89719500D01*
X175486328Y-89719500D01*
X175474180Y-89720456D01*
X175450587Y-89722312D01*
X175450580Y-89722314D01*
X175297608Y-89766757D01*
X175297604Y-89766758D01*
X175160494Y-89847845D01*
X175160491Y-89847847D01*
X175160491Y-89847848D01*
X175141533Y-89866805D01*
X175087019Y-89894581D01*
X175071532Y-89895800D01*
X170825358Y-89895800D01*
X170774965Y-89882014D01*
X170740296Y-89861511D01*
X170699836Y-89815618D01*
X170694078Y-89754704D01*
X170725224Y-89702039D01*
X170740290Y-89691092D01*
X170846209Y-89628452D01*
X170958852Y-89515809D01*
X171039943Y-89378692D01*
X171084387Y-89225716D01*
X171087200Y-89189972D01*
X171087200Y-88362628D01*
X171084387Y-88326884D01*
X171039943Y-88173908D01*
X170958852Y-88036791D01*
X170916196Y-87994134D01*
X170888419Y-87939617D01*
X170887200Y-87924131D01*
X170887200Y-86294534D01*
X170906105Y-86236346D01*
X170973591Y-86143463D01*
X171054376Y-85984913D01*
X171109364Y-85815678D01*
X171137200Y-85639923D01*
X171137200Y-85461979D01*
X171137200Y-85461975D01*
X171109365Y-85286228D01*
X171055179Y-85119461D01*
X171054376Y-85116989D01*
X170973591Y-84958439D01*
X170868997Y-84814479D01*
X169688746Y-83634228D01*
X169660971Y-83579714D01*
X169670542Y-83519282D01*
X169688745Y-83494226D01*
X171409532Y-81773440D01*
X171409536Y-81773438D01*
X171563187Y-81619787D01*
X171690910Y-81443991D01*
X171789560Y-81250379D01*
X171856708Y-81043719D01*
X171859781Y-81024315D01*
X171890701Y-80829098D01*
X171890701Y-80611803D01*
X171890701Y-80608305D01*
X171890700Y-80608275D01*
X171890700Y-79482151D01*
X171909607Y-79423960D01*
X171959107Y-79387996D01*
X171989700Y-79383151D01*
X176388700Y-79383151D01*
X176446891Y-79402058D01*
X176482855Y-79451558D01*
X176487700Y-79482151D01*
X176487700Y-81866827D01*
X176473914Y-81917221D01*
X176447457Y-81961957D01*
X176403014Y-82114931D01*
X176403012Y-82114938D01*
X176400200Y-82150684D01*
X176400200Y-83228017D01*
X176403012Y-83263763D01*
X176403012Y-83263766D01*
X176403013Y-83263767D01*
X176439487Y-83389312D01*
X176447457Y-83416742D01*
X176447458Y-83416746D01*
X176528545Y-83553856D01*
X176528546Y-83553857D01*
X176528548Y-83553860D01*
X176641191Y-83666503D01*
X176641193Y-83666504D01*
X176641194Y-83666505D01*
X176778304Y-83747592D01*
X176778305Y-83747592D01*
X176778308Y-83747594D01*
X176931284Y-83792038D01*
X176967028Y-83794851D01*
X176967033Y-83794851D01*
X177769367Y-83794851D01*
X177769372Y-83794851D01*
X177805116Y-83792038D01*
X177958092Y-83747594D01*
X178095209Y-83666503D01*
X178207852Y-83553860D01*
X178250173Y-83482299D01*
X178296067Y-83441838D01*
X178356981Y-83436080D01*
X178409646Y-83467226D01*
X178419646Y-83480723D01*
X178513382Y-83632693D01*
X178637359Y-83756670D01*
X178786575Y-83848707D01*
X178943200Y-83900608D01*
X178943200Y-83189352D01*
X179943200Y-83189352D01*
X179943200Y-83900607D01*
X180099824Y-83848707D01*
X180249040Y-83756670D01*
X180373019Y-83632691D01*
X180465056Y-83483475D01*
X180518423Y-83322424D01*
X191586799Y-83322424D01*
X191593201Y-83381970D01*
X191593203Y-83381981D01*
X191643446Y-83516688D01*
X191643447Y-83516690D01*
X191729607Y-83631784D01*
X191729615Y-83631792D01*
X191844709Y-83717952D01*
X191844711Y-83717953D01*
X191979418Y-83768196D01*
X191979429Y-83768198D01*
X192038976Y-83774600D01*
X192336799Y-83774600D01*
X192336800Y-83774599D01*
X192336800Y-83024601D01*
X193336800Y-83024601D01*
X193336800Y-83774599D01*
X193336801Y-83774600D01*
X193634624Y-83774600D01*
X193694170Y-83768198D01*
X193694181Y-83768196D01*
X193828888Y-83717953D01*
X193828890Y-83717952D01*
X193943984Y-83631792D01*
X193943992Y-83631784D01*
X194030152Y-83516690D01*
X194030153Y-83516688D01*
X194080396Y-83381981D01*
X194080398Y-83381970D01*
X194086800Y-83322424D01*
X194086800Y-83024601D01*
X194086799Y-83024600D01*
X193336801Y-83024600D01*
X193336800Y-83024601D01*
X192336800Y-83024601D01*
X192336799Y-83024600D01*
X191586801Y-83024600D01*
X191586800Y-83024601D01*
X191586800Y-83322424D01*
X191586799Y-83322424D01*
X180518423Y-83322424D01*
X180520206Y-83317044D01*
X180530700Y-83214338D01*
X180530700Y-83189352D01*
X180530699Y-83189351D01*
X179943201Y-83189351D01*
X179943200Y-83189352D01*
X178943200Y-83189352D01*
X178943200Y-82471939D01*
X192436800Y-82471939D01*
X192436800Y-82577261D01*
X192464059Y-82678994D01*
X192516720Y-82770206D01*
X192591194Y-82844680D01*
X192682406Y-82897341D01*
X192784139Y-82924600D01*
X192889461Y-82924600D01*
X192991194Y-82897341D01*
X193082406Y-82844680D01*
X193156880Y-82770206D01*
X193209541Y-82678994D01*
X193236800Y-82577261D01*
X193236800Y-82471939D01*
X193209541Y-82370206D01*
X193156880Y-82278994D01*
X193082406Y-82204520D01*
X192991194Y-82151859D01*
X192889461Y-82124600D01*
X192784139Y-82124600D01*
X192682406Y-82151859D01*
X192591194Y-82204520D01*
X192516720Y-82278994D01*
X192464059Y-82370206D01*
X192436800Y-82471939D01*
X178943200Y-82471939D01*
X178943200Y-82189350D01*
X179943200Y-82189350D01*
X179943201Y-82189351D01*
X180530698Y-82189351D01*
X180530699Y-82189350D01*
X180530699Y-82164364D01*
X180520207Y-82061663D01*
X180520204Y-82061651D01*
X180465056Y-81895226D01*
X180391575Y-81776093D01*
X180391574Y-81776091D01*
X180373020Y-81746011D01*
X180353784Y-81726775D01*
X191586800Y-81726775D01*
X191586800Y-82024599D01*
X191586801Y-82024600D01*
X192336799Y-82024600D01*
X192336800Y-82024599D01*
X192336800Y-81274601D01*
X193336800Y-81274601D01*
X193336800Y-82024599D01*
X193336801Y-82024600D01*
X194086799Y-82024600D01*
X194086800Y-82024599D01*
X194086800Y-81726775D01*
X194080398Y-81667229D01*
X194080396Y-81667218D01*
X194030153Y-81532511D01*
X194030152Y-81532509D01*
X193943992Y-81417415D01*
X193943984Y-81417407D01*
X193828890Y-81331247D01*
X193828888Y-81331246D01*
X193694181Y-81281003D01*
X193694170Y-81281001D01*
X193634624Y-81274600D01*
X193336801Y-81274600D01*
X193336800Y-81274601D01*
X192336800Y-81274601D01*
X192336799Y-81274600D01*
X192038976Y-81274600D01*
X191979429Y-81281001D01*
X191979418Y-81281003D01*
X191844711Y-81331246D01*
X191844709Y-81331247D01*
X191729615Y-81417407D01*
X191729607Y-81417415D01*
X191643447Y-81532509D01*
X191643446Y-81532511D01*
X191593203Y-81667218D01*
X191593201Y-81667229D01*
X191586800Y-81726775D01*
X180353784Y-81726775D01*
X180249040Y-81622031D01*
X180099826Y-81529995D01*
X180099822Y-81529993D01*
X179943200Y-81478093D01*
X179943200Y-82189350D01*
X178943200Y-82189350D01*
X178943200Y-81478093D01*
X178786577Y-81529993D01*
X178786573Y-81529995D01*
X178637359Y-81622031D01*
X178513382Y-81746008D01*
X178431961Y-81878013D01*
X178385320Y-81917614D01*
X178324309Y-81922237D01*
X178272233Y-81890116D01*
X178248983Y-81833520D01*
X178248700Y-81826040D01*
X178248700Y-79146169D01*
X178267607Y-79087978D01*
X178297306Y-79060955D01*
X178307709Y-79054803D01*
X178420352Y-78942160D01*
X178501443Y-78805043D01*
X178503166Y-78799110D01*
X178518144Y-78768535D01*
X178548910Y-78726191D01*
X178647560Y-78532579D01*
X178714708Y-78325919D01*
X178715471Y-78321100D01*
X178748700Y-78111302D01*
X178748700Y-77893999D01*
X178714709Y-77679387D01*
X178714708Y-77679383D01*
X178647560Y-77472723D01*
X178548910Y-77279111D01*
X178518138Y-77236757D01*
X178511041Y-77225457D01*
X178506085Y-77216240D01*
X178501443Y-77200259D01*
X178444112Y-77103318D01*
X178431474Y-77081948D01*
X185157100Y-77081948D01*
X185157100Y-77299251D01*
X185191090Y-77513863D01*
X185258240Y-77720528D01*
X185346629Y-77894003D01*
X185356890Y-77914140D01*
X185484613Y-78089936D01*
X185638264Y-78243587D01*
X185814060Y-78371310D01*
X186007672Y-78469960D01*
X186214332Y-78537108D01*
X186214333Y-78537108D01*
X186214336Y-78537109D01*
X186428949Y-78571100D01*
X186428952Y-78571100D01*
X186646251Y-78571100D01*
X186860863Y-78537109D01*
X186860864Y-78537108D01*
X186860868Y-78537108D01*
X187067528Y-78469960D01*
X187261140Y-78371310D01*
X187278831Y-78358457D01*
X187304226Y-78340007D01*
X187362416Y-78321100D01*
X189320975Y-78321100D01*
X189379165Y-78340007D01*
X189470045Y-78406035D01*
X189470049Y-78406037D01*
X189677685Y-78511833D01*
X189899315Y-78583845D01*
X189899316Y-78583845D01*
X189899319Y-78583846D01*
X190129479Y-78620300D01*
X190129482Y-78620300D01*
X190362521Y-78620300D01*
X190592680Y-78583846D01*
X190592681Y-78583845D01*
X190592685Y-78583845D01*
X190814315Y-78511833D01*
X191021951Y-78406037D01*
X191160590Y-78305309D01*
X191182754Y-78289207D01*
X191240945Y-78270300D01*
X192022723Y-78270300D01*
X192080914Y-78289207D01*
X192092727Y-78299296D01*
X194640329Y-80846897D01*
X194640332Y-80846899D01*
X194640334Y-80846901D01*
X194784283Y-80951487D01*
X194784289Y-80951491D01*
X194942838Y-81032276D01*
X195112074Y-81087264D01*
X195112075Y-81087264D01*
X195112078Y-81087265D01*
X195287825Y-81115100D01*
X195287828Y-81115100D01*
X195465776Y-81115100D01*
X195641522Y-81087265D01*
X195641523Y-81087264D01*
X195641527Y-81087264D01*
X195810762Y-81032276D01*
X195969312Y-80951491D01*
X196113272Y-80846897D01*
X196239097Y-80721072D01*
X196285357Y-80657400D01*
X196343690Y-80577114D01*
X196343691Y-80577112D01*
X196424476Y-80418562D01*
X196479464Y-80249327D01*
X196479465Y-80249322D01*
X196507300Y-80073576D01*
X196507300Y-79895624D01*
X196479465Y-79719878D01*
X196479464Y-79719874D01*
X196424476Y-79550638D01*
X196343691Y-79392089D01*
X196343687Y-79392083D01*
X196239101Y-79248134D01*
X196239099Y-79248132D01*
X196239097Y-79248129D01*
X193268472Y-76277503D01*
X193268468Y-76277500D01*
X193268466Y-76277498D01*
X193124517Y-76172912D01*
X193124511Y-76172908D01*
X192965962Y-76092124D01*
X192796722Y-76037134D01*
X192620975Y-76009300D01*
X192620972Y-76009300D01*
X191240945Y-76009300D01*
X191182754Y-75990393D01*
X191063884Y-75904029D01*
X191021951Y-75873563D01*
X191021950Y-75873562D01*
X191021948Y-75873561D01*
X190814315Y-75767767D01*
X190592680Y-75695753D01*
X190362521Y-75659300D01*
X190362518Y-75659300D01*
X190129482Y-75659300D01*
X190129479Y-75659300D01*
X189899319Y-75695753D01*
X189677684Y-75767767D01*
X189470051Y-75873561D01*
X189281520Y-76010537D01*
X189281519Y-76010538D01*
X189260951Y-76031105D01*
X189206437Y-76058881D01*
X189190950Y-76060100D01*
X187362416Y-76060100D01*
X187304226Y-76041193D01*
X187261143Y-76009891D01*
X187261139Y-76009889D01*
X187067528Y-75911240D01*
X186860863Y-75844090D01*
X186646251Y-75810100D01*
X186646248Y-75810100D01*
X186428952Y-75810100D01*
X186428949Y-75810100D01*
X186214336Y-75844090D01*
X186007671Y-75911240D01*
X185814062Y-76009888D01*
X185638265Y-76137612D01*
X185484612Y-76291265D01*
X185356888Y-76467062D01*
X185258240Y-76660671D01*
X185191090Y-76867336D01*
X185157100Y-77081948D01*
X178431474Y-77081948D01*
X178420354Y-77063145D01*
X178420353Y-77063144D01*
X178420352Y-77063142D01*
X178307709Y-76950499D01*
X178307706Y-76950497D01*
X178307705Y-76950496D01*
X178170595Y-76869409D01*
X178170592Y-76869408D01*
X178164655Y-76867683D01*
X178134088Y-76852708D01*
X178091743Y-76821942D01*
X178091739Y-76821940D01*
X177898128Y-76723291D01*
X177691463Y-76656141D01*
X177476851Y-76622151D01*
X177476848Y-76622151D01*
X171964300Y-76622151D01*
X171906109Y-76603244D01*
X171870145Y-76553744D01*
X171865300Y-76523151D01*
X171865300Y-75639908D01*
X171879086Y-75589514D01*
X171918043Y-75523643D01*
X171951715Y-75407745D01*
X176870211Y-75407745D01*
X176870211Y-75407746D01*
X177063777Y-75470640D01*
X177063781Y-75470641D01*
X177265885Y-75502651D01*
X177470515Y-75502651D01*
X177672618Y-75470641D01*
X177672622Y-75470640D01*
X177866187Y-75407746D01*
X177866187Y-75407745D01*
X177368199Y-74909757D01*
X176870211Y-75407745D01*
X171951715Y-75407745D01*
X171962487Y-75370668D01*
X171965300Y-75334924D01*
X171965300Y-74808870D01*
X189499435Y-74808870D01*
X189606412Y-74863378D01*
X189845936Y-74941204D01*
X190094674Y-74980600D01*
X190346526Y-74980600D01*
X190595263Y-74941204D01*
X190834787Y-74863378D01*
X190941763Y-74808870D01*
X190220599Y-74087706D01*
X189499435Y-74808870D01*
X171965300Y-74808870D01*
X171965299Y-74100335D01*
X176068200Y-74100335D01*
X176068200Y-74304966D01*
X176100208Y-74507063D01*
X176163104Y-74700637D01*
X176661092Y-74202650D01*
X176608432Y-74149990D01*
X176968200Y-74149990D01*
X176968200Y-74255312D01*
X176995459Y-74357045D01*
X177048120Y-74448257D01*
X177122594Y-74522731D01*
X177213806Y-74575392D01*
X177315539Y-74602651D01*
X177420861Y-74602651D01*
X177522594Y-74575392D01*
X177613806Y-74522731D01*
X177688280Y-74448257D01*
X177740941Y-74357045D01*
X177768200Y-74255312D01*
X177768200Y-74202650D01*
X178075306Y-74202650D01*
X178573294Y-74700638D01*
X178573295Y-74700638D01*
X178636189Y-74507073D01*
X178636190Y-74507069D01*
X178668200Y-74304966D01*
X178668200Y-74100335D01*
X178636190Y-73898232D01*
X178636189Y-73898228D01*
X178573294Y-73704662D01*
X178075306Y-74202650D01*
X177768200Y-74202650D01*
X177768200Y-74149990D01*
X177740941Y-74048257D01*
X177688280Y-73957045D01*
X177613806Y-73882571D01*
X177522594Y-73829910D01*
X177420861Y-73802651D01*
X177315539Y-73802651D01*
X177213806Y-73829910D01*
X177122594Y-73882571D01*
X177048120Y-73957045D01*
X176995459Y-74048257D01*
X176968200Y-74149990D01*
X176608432Y-74149990D01*
X176163105Y-73704663D01*
X176100208Y-73898238D01*
X176068200Y-74100335D01*
X171965299Y-74100335D01*
X171965299Y-73507579D01*
X171962487Y-73471834D01*
X171918043Y-73318859D01*
X171836952Y-73181741D01*
X171724310Y-73069099D01*
X171603337Y-72997556D01*
X176870212Y-72997556D01*
X177368200Y-73495544D01*
X177609070Y-73254673D01*
X188620600Y-73254673D01*
X188620600Y-73506526D01*
X188659995Y-73755263D01*
X188737820Y-73994784D01*
X188792328Y-74101763D01*
X189513492Y-73380599D01*
X189441084Y-73308191D01*
X189670600Y-73308191D01*
X189670600Y-73453009D01*
X189708082Y-73592892D01*
X189780490Y-73718308D01*
X189882892Y-73820710D01*
X190008308Y-73893118D01*
X190148191Y-73930600D01*
X190293009Y-73930600D01*
X190432892Y-73893118D01*
X190558308Y-73820710D01*
X190660710Y-73718308D01*
X190733118Y-73592892D01*
X190770600Y-73453009D01*
X190770600Y-73380599D01*
X190927706Y-73380599D01*
X191648870Y-74101763D01*
X191703378Y-73994787D01*
X191781204Y-73755263D01*
X191820600Y-73506526D01*
X191820600Y-73254673D01*
X191781204Y-73005936D01*
X191703378Y-72766412D01*
X191648869Y-72659435D01*
X190927706Y-73380599D01*
X190770600Y-73380599D01*
X190770600Y-73308191D01*
X190733118Y-73168308D01*
X190660710Y-73042892D01*
X190558308Y-72940490D01*
X190432892Y-72868082D01*
X190293009Y-72830600D01*
X190148191Y-72830600D01*
X190008308Y-72868082D01*
X189882892Y-72940490D01*
X189780490Y-73042892D01*
X189708082Y-73168308D01*
X189670600Y-73308191D01*
X189441084Y-73308191D01*
X188792328Y-72659435D01*
X188737821Y-72766412D01*
X188659995Y-73005936D01*
X188620600Y-73254673D01*
X177609070Y-73254673D01*
X177682958Y-73180785D01*
X177682960Y-73180783D01*
X177866187Y-72997555D01*
X177672612Y-72934659D01*
X177470515Y-72902651D01*
X177265885Y-72902651D01*
X177063787Y-72934659D01*
X176870212Y-72997556D01*
X171603337Y-72997556D01*
X171587192Y-72988008D01*
X171587191Y-72988007D01*
X171587190Y-72988007D01*
X171434220Y-72943565D01*
X171434217Y-72943564D01*
X171434216Y-72943563D01*
X171434213Y-72943563D01*
X171411507Y-72941776D01*
X171398473Y-72940751D01*
X171398468Y-72940751D01*
X170997630Y-72940751D01*
X170939439Y-72921844D01*
X170927626Y-72911755D01*
X169968199Y-71952328D01*
X189499435Y-71952328D01*
X190220599Y-72673492D01*
X190941763Y-71952328D01*
X190834784Y-71897820D01*
X190595263Y-71819995D01*
X190346526Y-71780600D01*
X190094674Y-71780600D01*
X189845936Y-71819995D01*
X189606412Y-71897821D01*
X189499435Y-71952328D01*
X169968199Y-71952328D01*
X168185896Y-70170025D01*
X168158119Y-70115508D01*
X168156900Y-70100021D01*
X168156900Y-69669996D01*
X193393710Y-69669996D01*
X193410776Y-69678692D01*
X193612878Y-69744359D01*
X193822750Y-69777600D01*
X194035250Y-69777600D01*
X194245121Y-69744359D01*
X194447223Y-69678692D01*
X194464288Y-69669996D01*
X193928999Y-69134707D01*
X193393710Y-69669996D01*
X168156900Y-69669996D01*
X168156900Y-68800799D01*
X168122909Y-68586187D01*
X168103245Y-68525668D01*
X168057384Y-68384520D01*
X185890786Y-68384520D01*
X185961796Y-68420701D01*
X185961808Y-68420706D01*
X186186343Y-68493664D01*
X186186347Y-68493665D01*
X186419544Y-68530600D01*
X186655656Y-68530600D01*
X186888852Y-68493665D01*
X186888856Y-68493664D01*
X187113391Y-68420706D01*
X187113408Y-68420699D01*
X187184412Y-68384520D01*
X187121241Y-68321349D01*
X192579000Y-68321349D01*
X192579000Y-68533850D01*
X192612240Y-68743721D01*
X192677907Y-68945824D01*
X192677908Y-68945827D01*
X192686602Y-68962888D01*
X193221891Y-68427599D01*
X193156066Y-68361774D01*
X193429000Y-68361774D01*
X193429000Y-68493426D01*
X193463075Y-68620593D01*
X193528901Y-68734607D01*
X193621993Y-68827699D01*
X193736007Y-68893525D01*
X193863174Y-68927600D01*
X193994826Y-68927600D01*
X194121993Y-68893525D01*
X194236007Y-68827699D01*
X194329099Y-68734607D01*
X194394925Y-68620593D01*
X194429000Y-68493426D01*
X194429000Y-68361774D01*
X194394925Y-68234607D01*
X194329099Y-68120593D01*
X194236007Y-68027501D01*
X194121993Y-67961675D01*
X193994826Y-67927600D01*
X193863174Y-67927600D01*
X193736007Y-67961675D01*
X193621993Y-68027501D01*
X193528901Y-68120593D01*
X193463075Y-68234607D01*
X193429000Y-68361774D01*
X193156066Y-68361774D01*
X192686602Y-67892310D01*
X192677906Y-67909379D01*
X192612240Y-68111478D01*
X192579000Y-68321349D01*
X187121241Y-68321349D01*
X186537599Y-67737707D01*
X185890786Y-68384520D01*
X168057384Y-68384520D01*
X168055760Y-68379523D01*
X168017405Y-68304246D01*
X168017063Y-68303551D01*
X168016574Y-68300159D01*
X168006900Y-68259860D01*
X168006900Y-68023344D01*
X168006900Y-68023341D01*
X167996124Y-67949379D01*
X167940351Y-67835294D01*
X167850557Y-67745500D01*
X167736472Y-67689727D01*
X167662510Y-67678951D01*
X167662507Y-67678951D01*
X167425989Y-67678951D01*
X167381044Y-67668161D01*
X167378869Y-67667053D01*
X167306328Y-67630091D01*
X167285101Y-67623194D01*
X167099663Y-67562941D01*
X166885051Y-67528951D01*
X166885048Y-67528951D01*
X166667752Y-67528951D01*
X166667749Y-67528951D01*
X166453136Y-67562941D01*
X166246471Y-67630091D01*
X166195492Y-67656066D01*
X166173931Y-67667053D01*
X166171756Y-67668161D01*
X166126811Y-67678951D01*
X165890290Y-67678951D01*
X165816328Y-67689727D01*
X165702244Y-67745499D01*
X165612448Y-67835295D01*
X165576231Y-67909379D01*
X165556676Y-67949379D01*
X165545922Y-68023194D01*
X165545900Y-68023344D01*
X165545900Y-68259860D01*
X165535109Y-68304807D01*
X165528679Y-68317426D01*
X165510474Y-68342483D01*
X164943506Y-68909451D01*
X165366903Y-69332847D01*
X165394681Y-69387364D01*
X165395900Y-69402851D01*
X165395900Y-70600675D01*
X165395899Y-70600705D01*
X165395899Y-70821500D01*
X165419600Y-70971137D01*
X165419600Y-70971139D01*
X165429890Y-71036113D01*
X165497040Y-71242779D01*
X165583070Y-71411624D01*
X165595690Y-71436391D01*
X165723413Y-71612187D01*
X165877064Y-71765838D01*
X165877067Y-71765840D01*
X168975304Y-74864077D01*
X169003081Y-74918594D01*
X169004300Y-74934081D01*
X169004300Y-75334918D01*
X169006533Y-75363304D01*
X169007113Y-75370668D01*
X169036159Y-75470641D01*
X169051557Y-75523642D01*
X169051556Y-75523642D01*
X169051557Y-75523643D01*
X169090513Y-75589514D01*
X169104300Y-75639908D01*
X169104300Y-76826940D01*
X169090514Y-76877334D01*
X169076957Y-76900257D01*
X169076957Y-76900259D01*
X169032514Y-77053230D01*
X169032512Y-77053237D01*
X169029700Y-77088983D01*
X169029700Y-78916318D01*
X169031933Y-78944704D01*
X169032513Y-78952068D01*
X169072500Y-79089700D01*
X169076957Y-79105042D01*
X169076956Y-79105042D01*
X169076957Y-79105043D01*
X169115913Y-79170914D01*
X169129700Y-79221308D01*
X169129700Y-80107621D01*
X169110793Y-80165812D01*
X169100704Y-80177625D01*
X166994665Y-82283664D01*
X166994664Y-82283663D01*
X166790215Y-82488113D01*
X166662488Y-82663913D01*
X166563840Y-82857522D01*
X166496690Y-83064187D01*
X166462699Y-83278799D01*
X166462699Y-83496102D01*
X166496690Y-83710714D01*
X166523114Y-83792038D01*
X166563840Y-83917379D01*
X166662490Y-84110991D01*
X166790213Y-84286786D01*
X166943865Y-84440438D01*
X167119660Y-84568161D01*
X167313272Y-84666811D01*
X167519932Y-84733959D01*
X167519935Y-84733959D01*
X167519937Y-84733960D01*
X167541690Y-84737405D01*
X167572527Y-84742289D01*
X167627044Y-84770065D01*
X167627046Y-84770066D01*
X169097204Y-86240224D01*
X169124981Y-86294741D01*
X169126200Y-86310228D01*
X169126200Y-87924131D01*
X169107293Y-87982322D01*
X169097204Y-87994134D01*
X169054547Y-88036791D01*
X169054546Y-88036793D01*
X168973458Y-88173904D01*
X168973457Y-88173908D01*
X168929014Y-88326880D01*
X168929012Y-88326887D01*
X168926200Y-88362633D01*
X168926200Y-89189966D01*
X168929012Y-89225712D01*
X168929012Y-89225715D01*
X168929013Y-89225716D01*
X168971689Y-89372608D01*
X168973457Y-89378691D01*
X168973458Y-89378695D01*
X169054545Y-89515805D01*
X169054546Y-89515806D01*
X169054548Y-89515809D01*
X169167191Y-89628452D01*
X169167193Y-89628453D01*
X169167194Y-89628454D01*
X169273100Y-89691087D01*
X169279413Y-89698247D01*
X169288174Y-89702039D01*
X169299215Y-89720708D01*
X169313563Y-89736982D01*
X169314461Y-89746486D01*
X169319321Y-89754703D01*
X169317279Y-89776299D01*
X169319321Y-89797896D01*
X169314461Y-89806113D01*
X169313563Y-89815617D01*
X169299217Y-89831888D01*
X169288175Y-89850561D01*
X169273101Y-89861512D01*
X169238436Y-89882013D01*
X169188042Y-89895800D01*
X168482023Y-89895800D01*
X168423832Y-89876893D01*
X168412019Y-89866804D01*
X167861589Y-89316374D01*
X167861586Y-89316371D01*
X167820117Y-89288662D01*
X167717380Y-89220014D01*
X167717368Y-89220008D01*
X167557132Y-89153637D01*
X167387024Y-89119800D01*
X167387022Y-89119800D01*
X165942622Y-89119800D01*
X165892227Y-89106013D01*
X165847495Y-89079558D01*
X165847492Y-89079557D01*
X165694516Y-89035113D01*
X165694515Y-89035112D01*
X165694512Y-89035112D01*
X165671806Y-89033325D01*
X165658772Y-89032300D01*
X164581428Y-89032300D01*
X164569280Y-89033256D01*
X164545687Y-89035112D01*
X164545680Y-89035114D01*
X164392708Y-89079557D01*
X164392704Y-89079558D01*
X164284564Y-89143513D01*
X164234169Y-89157300D01*
X161315958Y-89157300D01*
X161265563Y-89143513D01*
X161235001Y-89125439D01*
X161199691Y-89104556D01*
X161046719Y-89060114D01*
X161046716Y-89060113D01*
X161046715Y-89060112D01*
X161046712Y-89060112D01*
X161024006Y-89058325D01*
X161010972Y-89057300D01*
X159983628Y-89057300D01*
X159971480Y-89058256D01*
X159947887Y-89060112D01*
X159947880Y-89060114D01*
X159794908Y-89104557D01*
X159794904Y-89104558D01*
X159657794Y-89185645D01*
X159545145Y-89298294D01*
X159464058Y-89435404D01*
X159464057Y-89435408D01*
X159419614Y-89588380D01*
X159419612Y-89588387D01*
X159416800Y-89624133D01*
X159416800Y-90451466D01*
X159419612Y-90487212D01*
X159419612Y-90487215D01*
X159419613Y-90487216D01*
X159463615Y-90638672D01*
X159464057Y-90640191D01*
X159464058Y-90640195D01*
X159545145Y-90777305D01*
X159545146Y-90777306D01*
X159545148Y-90777309D01*
X159657791Y-90889952D01*
X159657793Y-90889953D01*
X159657794Y-90889954D01*
X159763699Y-90952587D01*
X159804162Y-90998483D01*
X159809920Y-91059397D01*
X159778774Y-91112061D01*
X159763699Y-91123013D01*
X159657794Y-91185645D01*
X159545145Y-91298294D01*
X159464058Y-91435404D01*
X159464057Y-91435408D01*
X159419614Y-91588380D01*
X159419612Y-91588387D01*
X159416800Y-91624133D01*
X159416800Y-92451466D01*
X159419612Y-92487212D01*
X159419612Y-92487215D01*
X159419613Y-92487216D01*
X159433605Y-92535378D01*
X159464057Y-92640191D01*
X159464058Y-92640195D01*
X159545145Y-92777305D01*
X159545146Y-92777306D01*
X159545148Y-92777309D01*
X159587805Y-92819966D01*
X159615581Y-92874481D01*
X159616800Y-92889968D01*
X159616800Y-95049231D01*
X159597893Y-95107422D01*
X159587804Y-95119234D01*
X159520147Y-95186891D01*
X159520146Y-95186893D01*
X159439058Y-95324004D01*
X159439057Y-95324008D01*
X159394614Y-95476980D01*
X159394612Y-95476987D01*
X159392756Y-95500580D01*
X159391800Y-95512728D01*
X159391800Y-96315072D01*
X159392303Y-96321460D01*
X159394612Y-96350812D01*
X159394612Y-96350815D01*
X159394613Y-96350816D01*
X159432128Y-96479944D01*
X159439057Y-96503791D01*
X159439058Y-96503795D01*
X159520145Y-96640905D01*
X159520146Y-96640906D01*
X159520148Y-96640909D01*
X159632791Y-96753552D01*
X159632793Y-96753553D01*
X159632794Y-96753554D01*
X159769904Y-96834641D01*
X159769905Y-96834641D01*
X159769908Y-96834643D01*
X159844558Y-96856331D01*
X159895164Y-96890722D01*
X159915889Y-96948291D01*
X159898819Y-97007046D01*
X159850473Y-97044547D01*
X159844558Y-97046469D01*
X159769908Y-97068157D01*
X159769904Y-97068158D01*
X159632794Y-97149245D01*
X159520145Y-97261894D01*
X159439058Y-97399004D01*
X159439057Y-97399008D01*
X159394614Y-97551980D01*
X159394612Y-97551987D01*
X159391800Y-97587733D01*
X159391800Y-98390066D01*
X159394612Y-98425812D01*
X159394612Y-98425815D01*
X159394613Y-98425816D01*
X159430715Y-98550080D01*
X159439057Y-98578791D01*
X159439058Y-98578795D01*
X159520145Y-98715905D01*
X159520146Y-98715906D01*
X159520148Y-98715909D01*
X159587805Y-98783566D01*
X159615581Y-98838081D01*
X159616800Y-98853568D01*
X159616800Y-101216824D01*
X159624749Y-101256786D01*
X159648283Y-101375100D01*
X159650637Y-101386931D01*
X159650637Y-101386933D01*
X159717008Y-101547168D01*
X159717014Y-101547180D01*
X159773751Y-101632091D01*
X159813371Y-101691386D01*
X159936014Y-101814029D01*
X159958100Y-101828786D01*
X159995979Y-101876836D01*
X159998381Y-101937974D01*
X159964388Y-101988848D01*
X159906984Y-102010025D01*
X159903098Y-102010101D01*
X159872059Y-102010101D01*
X159813868Y-101991194D01*
X159802055Y-101981105D01*
X158901449Y-101080499D01*
X157856435Y-100035485D01*
X157724064Y-99959061D01*
X157576424Y-99919501D01*
X157576422Y-99919501D01*
X154781459Y-99919501D01*
X154723268Y-99900594D01*
X154711455Y-99890505D01*
X153969395Y-99148445D01*
X153941618Y-99093928D01*
X153940399Y-99078441D01*
X153940399Y-98096400D01*
X153945244Y-98081488D01*
X153945244Y-98065807D01*
X153954460Y-98053121D01*
X153959306Y-98038209D01*
X153971991Y-98028992D01*
X153981208Y-98016307D01*
X153996120Y-98011461D01*
X154008806Y-98002245D01*
X154039399Y-97997400D01*
X154226331Y-97997400D01*
X154284522Y-98016307D01*
X154296334Y-98026396D01*
X154330179Y-98060240D01*
X154363991Y-98094052D01*
X154409696Y-98121082D01*
X154501104Y-98175141D01*
X154501105Y-98175141D01*
X154501108Y-98175143D01*
X154654084Y-98219587D01*
X154689828Y-98222400D01*
X154689833Y-98222400D01*
X155492167Y-98222400D01*
X155492172Y-98222400D01*
X155527916Y-98219587D01*
X155680892Y-98175143D01*
X155818009Y-98094052D01*
X155930652Y-97981409D01*
X155972973Y-97909848D01*
X156018867Y-97869387D01*
X156079781Y-97863629D01*
X156132446Y-97894775D01*
X156142446Y-97908272D01*
X156236182Y-98060242D01*
X156360159Y-98184219D01*
X156509375Y-98276256D01*
X156666000Y-98328157D01*
X156666000Y-97616901D01*
X157666000Y-97616901D01*
X157666000Y-98328156D01*
X157822624Y-98276256D01*
X157971840Y-98184219D01*
X158095819Y-98060240D01*
X158187856Y-97911024D01*
X158243006Y-97744593D01*
X158253500Y-97641887D01*
X158253500Y-97616901D01*
X158253499Y-97616900D01*
X157666001Y-97616900D01*
X157666000Y-97616901D01*
X156666000Y-97616901D01*
X156666000Y-96616899D01*
X157666000Y-96616899D01*
X157666001Y-96616900D01*
X158253498Y-96616900D01*
X158253499Y-96616899D01*
X158253499Y-96591913D01*
X158243007Y-96489212D01*
X158243004Y-96489200D01*
X158187856Y-96322775D01*
X158095819Y-96173559D01*
X157971840Y-96049580D01*
X157822626Y-95957544D01*
X157822622Y-95957542D01*
X157666000Y-95905642D01*
X157666000Y-96616899D01*
X156666000Y-96616899D01*
X156666000Y-95905642D01*
X156509377Y-95957542D01*
X156509373Y-95957544D01*
X156360159Y-96049580D01*
X156236182Y-96173557D01*
X156142446Y-96325527D01*
X156095804Y-96365128D01*
X156034794Y-96369751D01*
X155982718Y-96337630D01*
X155972972Y-96323949D01*
X155930654Y-96252394D01*
X155930653Y-96252393D01*
X155930652Y-96252391D01*
X155818009Y-96139748D01*
X155818006Y-96139746D01*
X155818005Y-96139745D01*
X155680895Y-96058658D01*
X155680892Y-96058657D01*
X155527916Y-96014213D01*
X155527915Y-96014212D01*
X155527912Y-96014212D01*
X155505206Y-96012425D01*
X155492172Y-96011400D01*
X154689828Y-96011400D01*
X154677680Y-96012356D01*
X154654087Y-96014212D01*
X154654080Y-96014214D01*
X154501108Y-96058657D01*
X154501104Y-96058658D01*
X154363993Y-96139746D01*
X154363991Y-96139747D01*
X154296334Y-96207404D01*
X154241817Y-96235181D01*
X154226331Y-96236400D01*
X152608169Y-96236400D01*
X152549978Y-96217493D01*
X152538166Y-96207404D01*
X152470508Y-96139747D01*
X152470506Y-96139746D01*
X152333395Y-96058658D01*
X152333392Y-96058657D01*
X152180416Y-96014213D01*
X152180415Y-96014212D01*
X152180412Y-96014212D01*
X152157706Y-96012425D01*
X152144672Y-96011400D01*
X151342328Y-96011400D01*
X151330180Y-96012356D01*
X151306587Y-96014212D01*
X151306580Y-96014214D01*
X151153608Y-96058657D01*
X151153604Y-96058658D01*
X151016494Y-96139745D01*
X150903845Y-96252394D01*
X150822758Y-96389504D01*
X150822757Y-96389506D01*
X150801068Y-96464159D01*
X150784976Y-96487835D01*
X150769892Y-96512160D01*
X150767890Y-96512976D01*
X150766676Y-96514764D01*
X150739749Y-96524457D01*
X150713240Y-96535273D01*
X150711140Y-96534757D01*
X150709107Y-96535489D01*
X150681622Y-96527503D01*
X150653822Y-96520672D01*
X150652608Y-96519073D01*
X150650352Y-96518418D01*
X150614334Y-96473935D01*
X150612380Y-96469145D01*
X150589243Y-96389508D01*
X150559084Y-96338511D01*
X150556335Y-96331773D01*
X150555274Y-96317312D01*
X150549000Y-96294376D01*
X150549000Y-93027822D01*
X150567907Y-92969631D01*
X150577990Y-92957824D01*
X152420615Y-91115198D01*
X152475129Y-91087423D01*
X152475131Y-91087423D01*
X152588521Y-91069465D01*
X152588522Y-91069464D01*
X152588526Y-91069464D01*
X152757761Y-91014476D01*
X152916311Y-90933691D01*
X153060271Y-90829097D01*
X153186097Y-90703271D01*
X153290691Y-90559311D01*
X153371476Y-90400761D01*
X153426464Y-90231526D01*
X153427405Y-90225584D01*
X153454300Y-90055775D01*
X153454300Y-89877824D01*
X153426465Y-89702078D01*
X153426464Y-89702074D01*
X153371476Y-89532839D01*
X153290691Y-89374289D01*
X153289470Y-89372608D01*
X153186101Y-89230334D01*
X153186099Y-89230332D01*
X153186097Y-89230329D01*
X153060271Y-89104503D01*
X153060267Y-89104500D01*
X153060265Y-89104498D01*
X152916316Y-88999912D01*
X152916310Y-88999908D01*
X152757761Y-88919124D01*
X152588521Y-88864134D01*
X152412775Y-88836300D01*
X152412772Y-88836300D01*
X152234828Y-88836300D01*
X152234825Y-88836300D01*
X152059078Y-88864134D01*
X151889838Y-88919124D01*
X151731289Y-88999908D01*
X151731283Y-88999912D01*
X151587334Y-89104498D01*
X151461498Y-89230334D01*
X151356912Y-89374283D01*
X151356908Y-89374289D01*
X151276124Y-89532838D01*
X151221134Y-89702078D01*
X151203176Y-89815467D01*
X151175399Y-89869983D01*
X151175399Y-89869984D01*
X149107214Y-91938171D01*
X148984574Y-92060810D01*
X148984571Y-92060814D01*
X148888214Y-92205019D01*
X148888208Y-92205031D01*
X148821837Y-92365266D01*
X148821837Y-92365268D01*
X148788000Y-92535375D01*
X148788000Y-96294376D01*
X148774214Y-96344770D01*
X148747757Y-96389506D01*
X148703314Y-96542480D01*
X148703312Y-96542487D01*
X148700500Y-96578233D01*
X148700500Y-97655566D01*
X148703312Y-97691312D01*
X148703312Y-97691315D01*
X148703313Y-97691316D01*
X148711366Y-97719036D01*
X148747757Y-97844291D01*
X148747758Y-97844295D01*
X148828845Y-97981405D01*
X148828846Y-97981406D01*
X148828848Y-97981409D01*
X148941491Y-98094052D01*
X149039397Y-98151954D01*
X149079859Y-98197848D01*
X149088001Y-98237166D01*
X149088001Y-98492076D01*
X149088001Y-98644924D01*
X149127561Y-98792564D01*
X149203985Y-98924935D01*
X151935483Y-101656432D01*
X151935485Y-101656435D01*
X152043565Y-101764515D01*
X152102256Y-101798400D01*
X152175935Y-101840939D01*
X152323576Y-101880499D01*
X152476424Y-101880499D01*
X156018541Y-101880499D01*
X156076732Y-101899406D01*
X156088545Y-101909495D01*
X157869165Y-103690115D01*
X157869167Y-103690116D01*
X158001532Y-103766537D01*
X158001536Y-103766539D01*
X158149173Y-103806099D01*
X158149175Y-103806100D01*
X158149176Y-103806100D01*
X158308087Y-103806100D01*
X158308103Y-103806099D01*
X159133943Y-103806099D01*
X159192134Y-103825006D01*
X159228098Y-103874506D01*
X159228098Y-103935692D01*
X159203947Y-103975103D01*
X158788545Y-104390505D01*
X158734028Y-104418282D01*
X158718541Y-104419501D01*
X152343576Y-104419501D01*
X152195936Y-104459061D01*
X152063562Y-104535487D01*
X151955484Y-104643564D01*
X151955485Y-104643565D01*
X150215546Y-106383504D01*
X150161029Y-106411281D01*
X150145542Y-106412500D01*
X148890890Y-106412500D01*
X148824018Y-106422243D01*
X148816928Y-106423276D01*
X148702844Y-106479048D01*
X148613048Y-106568844D01*
X148579251Y-106637977D01*
X148557276Y-106682928D01*
X148546500Y-106756890D01*
X148546500Y-108529110D01*
X148557276Y-108603072D01*
X148613049Y-108717157D01*
X148702843Y-108806951D01*
X148816928Y-108862724D01*
X148816930Y-108862724D01*
X148816932Y-108862725D01*
X148824276Y-108864995D01*
X148823429Y-108867734D01*
X148866615Y-108889057D01*
X148895078Y-108943219D01*
X148896500Y-108959938D01*
X148896500Y-110378331D01*
X148877593Y-110436522D01*
X148867505Y-110448333D01*
X148842848Y-110472990D01*
X148842846Y-110472993D01*
X148761758Y-110610104D01*
X148761757Y-110610108D01*
X148717314Y-110763080D01*
X148717312Y-110763087D01*
X148714500Y-110798833D01*
X148714500Y-111601166D01*
X148717312Y-111636912D01*
X148717312Y-111636915D01*
X148717313Y-111636916D01*
X148753675Y-111762075D01*
X148761757Y-111789891D01*
X148761758Y-111789895D01*
X148842845Y-111927005D01*
X148842846Y-111927006D01*
X148842848Y-111927009D01*
X148955491Y-112039652D01*
X148955493Y-112039653D01*
X148955494Y-112039654D01*
X149027049Y-112081972D01*
X149067512Y-112127868D01*
X149073270Y-112188781D01*
X149042124Y-112241446D01*
X149028627Y-112251446D01*
X148876657Y-112345182D01*
X148752680Y-112469159D01*
X148660643Y-112618375D01*
X148608742Y-112775000D01*
X151031257Y-112775000D01*
X150979356Y-112618375D01*
X150887319Y-112469159D01*
X150763342Y-112345182D01*
X150611372Y-112251446D01*
X150571771Y-112204805D01*
X150567148Y-112143794D01*
X150599269Y-112091718D01*
X150612941Y-112081976D01*
X150684509Y-112039652D01*
X150797152Y-111927009D01*
X150878243Y-111789892D01*
X150922687Y-111636916D01*
X150925500Y-111601172D01*
X150925500Y-110798828D01*
X150922687Y-110763084D01*
X150878243Y-110610108D01*
X150797152Y-110472991D01*
X150686494Y-110362333D01*
X150658719Y-110307819D01*
X150657500Y-110292332D01*
X150657500Y-108959938D01*
X150676407Y-108901747D01*
X150698912Y-108885396D01*
X151781710Y-108885396D01*
X151798776Y-108894092D01*
X152000878Y-108959759D01*
X152210750Y-108993000D01*
X152423250Y-108993000D01*
X152633121Y-108959759D01*
X152835223Y-108894092D01*
X152852288Y-108885396D01*
X152316999Y-108350107D01*
X151781710Y-108885396D01*
X150698912Y-108885396D01*
X150725907Y-108865783D01*
X150731084Y-108864574D01*
X150737067Y-108862725D01*
X150737067Y-108862724D01*
X150737072Y-108862724D01*
X150851157Y-108806951D01*
X150940951Y-108717157D01*
X150996724Y-108603072D01*
X151007500Y-108529110D01*
X151007500Y-108283574D01*
X151026407Y-108225383D01*
X151040280Y-108215302D01*
X151038935Y-108213957D01*
X151916899Y-107335995D01*
X151851075Y-107450007D01*
X151817000Y-107577174D01*
X151817000Y-107708826D01*
X151851075Y-107835993D01*
X151916901Y-107950007D01*
X152009993Y-108043099D01*
X152124007Y-108108925D01*
X152251174Y-108143000D01*
X152382826Y-108143000D01*
X152509993Y-108108925D01*
X152624007Y-108043099D01*
X152717099Y-107950007D01*
X152782925Y-107835993D01*
X152817000Y-107708826D01*
X152817000Y-107577174D01*
X152782925Y-107450007D01*
X152717099Y-107335993D01*
X152624007Y-107242901D01*
X152509993Y-107177075D01*
X152382826Y-107143000D01*
X152251174Y-107143000D01*
X152124007Y-107177075D01*
X152009994Y-107242899D01*
X152852289Y-106400603D01*
X152852288Y-106400602D01*
X152835227Y-106391908D01*
X152835224Y-106391907D01*
X152633121Y-106326240D01*
X152423250Y-106293000D01*
X152210750Y-106293000D01*
X152199426Y-106294793D01*
X152138995Y-106285219D01*
X152095732Y-106241952D01*
X152086164Y-106181519D01*
X152113939Y-106127009D01*
X152498643Y-105742306D01*
X152631455Y-105609495D01*
X152685971Y-105581718D01*
X152701458Y-105580499D01*
X158359543Y-105580499D01*
X158381590Y-105587662D01*
X158404488Y-105591289D01*
X158410136Y-105596937D01*
X158417734Y-105599406D01*
X158431361Y-105618162D01*
X158447753Y-105634554D01*
X158449002Y-105642443D01*
X158453698Y-105648906D01*
X158453698Y-105672091D01*
X158457324Y-105694986D01*
X158453698Y-105702102D01*
X158453698Y-105710092D01*
X158429547Y-105749503D01*
X158288545Y-105890505D01*
X158234028Y-105918282D01*
X158218541Y-105919501D01*
X156076424Y-105919501D01*
X155923576Y-105919501D01*
X155861273Y-105936195D01*
X155775930Y-105959062D01*
X155643565Y-106035484D01*
X155256805Y-106422243D01*
X155202289Y-106450020D01*
X155156212Y-106446394D01*
X155145150Y-106442800D01*
X155145144Y-106442798D01*
X154953845Y-106412500D01*
X154953842Y-106412500D01*
X154760158Y-106412500D01*
X154760155Y-106412500D01*
X154568861Y-106442797D01*
X154384651Y-106502651D01*
X154212079Y-106590580D01*
X154055384Y-106704426D01*
X153918426Y-106841384D01*
X153804579Y-106998080D01*
X153804578Y-106998082D01*
X153742267Y-107120374D01*
X153699002Y-107163638D01*
X153638570Y-107173209D01*
X153584054Y-107145431D01*
X153565849Y-107120374D01*
X153559396Y-107107710D01*
X153024107Y-107642999D01*
X153559395Y-108178287D01*
X153565849Y-108165623D01*
X153609115Y-108122359D01*
X153669547Y-108112789D01*
X153724063Y-108140568D01*
X153742268Y-108165625D01*
X153798567Y-108276119D01*
X153804582Y-108287923D01*
X153918427Y-108444617D01*
X153947505Y-108473695D01*
X153975281Y-108528210D01*
X153976500Y-108543697D01*
X153976500Y-110378331D01*
X153957593Y-110436522D01*
X153947505Y-110448333D01*
X153922848Y-110472990D01*
X153922846Y-110472993D01*
X153841758Y-110610104D01*
X153841757Y-110610108D01*
X153797314Y-110763080D01*
X153797312Y-110763087D01*
X153794500Y-110798833D01*
X153794500Y-111601166D01*
X153797312Y-111636912D01*
X153797312Y-111636915D01*
X153797313Y-111636916D01*
X153833675Y-111762075D01*
X153841757Y-111789891D01*
X153841758Y-111789895D01*
X153922845Y-111927005D01*
X153922846Y-111927006D01*
X153922848Y-111927009D01*
X154035491Y-112039652D01*
X154035493Y-112039653D01*
X154035494Y-112039654D01*
X154107049Y-112081972D01*
X154147512Y-112127868D01*
X154153270Y-112188781D01*
X154122124Y-112241446D01*
X154108627Y-112251446D01*
X153956657Y-112345182D01*
X153832680Y-112469159D01*
X153740643Y-112618375D01*
X153688742Y-112775000D01*
X156111257Y-112775000D01*
X156059357Y-112618377D01*
X156001437Y-112524474D01*
X156001436Y-112524472D01*
X155970929Y-112475012D01*
X162137500Y-112475012D01*
X162137500Y-112499999D01*
X162137501Y-112500000D01*
X162724999Y-112500000D01*
X162725000Y-112499999D01*
X162725000Y-111200001D01*
X162724999Y-111200000D01*
X162137502Y-111200000D01*
X162137501Y-111200001D01*
X162137501Y-111224986D01*
X162147992Y-111327687D01*
X162147995Y-111327699D01*
X162203143Y-111494124D01*
X162295180Y-111643340D01*
X162419160Y-111767320D01*
X162423681Y-111770895D01*
X162422376Y-111772544D01*
X162456200Y-111812384D01*
X162460821Y-111873394D01*
X162428698Y-111925469D01*
X162423533Y-111929221D01*
X162419160Y-111932679D01*
X162295180Y-112056659D01*
X162203143Y-112205875D01*
X162147993Y-112372306D01*
X162137500Y-112475012D01*
X155970929Y-112475012D01*
X155967319Y-112469159D01*
X155843342Y-112345182D01*
X155691372Y-112251446D01*
X155651771Y-112204805D01*
X155647148Y-112143794D01*
X155679269Y-112091718D01*
X155692941Y-112081976D01*
X155764509Y-112039652D01*
X155877152Y-111927009D01*
X155958243Y-111789892D01*
X156002687Y-111636916D01*
X156005500Y-111601172D01*
X156005500Y-110798828D01*
X156002687Y-110763084D01*
X155958243Y-110610108D01*
X155877152Y-110472991D01*
X155766494Y-110362333D01*
X155762869Y-110355218D01*
X155756407Y-110350523D01*
X155749243Y-110328474D01*
X155738719Y-110307819D01*
X155737500Y-110292332D01*
X155737500Y-110175012D01*
X162137500Y-110175012D01*
X162137500Y-110199999D01*
X162137501Y-110200000D01*
X162724999Y-110200000D01*
X162725000Y-110199999D01*
X162725000Y-109488742D01*
X162568377Y-109540642D01*
X162568373Y-109540644D01*
X162419159Y-109632680D01*
X162295180Y-109756659D01*
X162203143Y-109905875D01*
X162147993Y-110072306D01*
X162137500Y-110175012D01*
X155737500Y-110175012D01*
X155737500Y-108543697D01*
X155756407Y-108485506D01*
X155766490Y-108473699D01*
X155795573Y-108444617D01*
X155909418Y-108287923D01*
X155997349Y-108115348D01*
X156057201Y-107931143D01*
X156072192Y-107836494D01*
X156087500Y-107739845D01*
X156087500Y-107546154D01*
X156057202Y-107354861D01*
X156053605Y-107343791D01*
X156053604Y-107320608D01*
X156049978Y-107297710D01*
X156053604Y-107290593D01*
X156053604Y-107282606D01*
X156077756Y-107243193D01*
X156143875Y-107177075D01*
X156211455Y-107109495D01*
X156265971Y-107081718D01*
X156281458Y-107080499D01*
X158576422Y-107080499D01*
X158576424Y-107080499D01*
X158724064Y-107040939D01*
X158856435Y-106964515D01*
X160684798Y-105136151D01*
X160739313Y-105108376D01*
X160799745Y-105117947D01*
X160843010Y-105161212D01*
X160853800Y-105206157D01*
X160853800Y-105366710D01*
X160863579Y-105433827D01*
X160863579Y-105462370D01*
X160853800Y-105529490D01*
X160853800Y-106001710D01*
X160863547Y-106068608D01*
X160863579Y-106068827D01*
X160863579Y-106097370D01*
X160853800Y-106164490D01*
X160853800Y-106636710D01*
X160864576Y-106710672D01*
X160920349Y-106824757D01*
X161010143Y-106914551D01*
X161124228Y-106970324D01*
X161198190Y-106981100D01*
X161198193Y-106981100D01*
X162470406Y-106981100D01*
X162470410Y-106981100D01*
X162544372Y-106970324D01*
X162658457Y-106914551D01*
X162748251Y-106824757D01*
X162804024Y-106710672D01*
X162814800Y-106636710D01*
X162814800Y-106164490D01*
X162805021Y-106097370D01*
X162805021Y-106068827D01*
X162805053Y-106068608D01*
X162814800Y-106001710D01*
X162814800Y-105529490D01*
X162805021Y-105462370D01*
X162805021Y-105433827D01*
X162814800Y-105366710D01*
X162814800Y-104894490D01*
X162805021Y-104827370D01*
X162805021Y-104798827D01*
X162814800Y-104731710D01*
X162814800Y-104259490D01*
X162805021Y-104192370D01*
X162805021Y-104163827D01*
X162808614Y-104139165D01*
X162814800Y-104096710D01*
X162814800Y-103624490D01*
X162805021Y-103557370D01*
X162805021Y-103528827D01*
X162811234Y-103486185D01*
X162814800Y-103461710D01*
X162814800Y-102989490D01*
X162805021Y-102922370D01*
X162805021Y-102893827D01*
X162814800Y-102826710D01*
X162814800Y-102354490D01*
X162805021Y-102287370D01*
X162805021Y-102258827D01*
X162806534Y-102248445D01*
X162814800Y-102191710D01*
X162814800Y-101719490D01*
X162804024Y-101645528D01*
X162748251Y-101531443D01*
X162658457Y-101441649D01*
X162544372Y-101385876D01*
X162470410Y-101375100D01*
X162470407Y-101375100D01*
X161466949Y-101375100D01*
X161408758Y-101356193D01*
X161372794Y-101306693D01*
X161369851Y-101256786D01*
X161371976Y-101246099D01*
X161377800Y-101216822D01*
X161377800Y-98853568D01*
X161396707Y-98795377D01*
X161406790Y-98783570D01*
X161474452Y-98715909D01*
X161555543Y-98578792D01*
X161599987Y-98425816D01*
X161602800Y-98390072D01*
X161602800Y-97587728D01*
X161599987Y-97551984D01*
X161555543Y-97399008D01*
X161474452Y-97261891D01*
X161361809Y-97149248D01*
X161361806Y-97149246D01*
X161361805Y-97149245D01*
X161224695Y-97068158D01*
X161224692Y-97068157D01*
X161150040Y-97046468D01*
X161099436Y-97012078D01*
X161078710Y-96954510D01*
X161095780Y-96895754D01*
X161144126Y-96858253D01*
X161150032Y-96856333D01*
X161224692Y-96834643D01*
X161361809Y-96753552D01*
X161474452Y-96640909D01*
X161555543Y-96503792D01*
X161599987Y-96350816D01*
X161602800Y-96315072D01*
X161602800Y-95512728D01*
X161599987Y-95476984D01*
X161555543Y-95324008D01*
X161474452Y-95186891D01*
X161406796Y-95119234D01*
X161379019Y-95064717D01*
X161377800Y-95049231D01*
X161377800Y-93017300D01*
X161396707Y-92959109D01*
X161446207Y-92923145D01*
X161476800Y-92918300D01*
X164234169Y-92918300D01*
X164284564Y-92932087D01*
X164392704Y-92996041D01*
X164392705Y-92996041D01*
X164392708Y-92996043D01*
X164545684Y-93040487D01*
X164581428Y-93043300D01*
X164581433Y-93043300D01*
X165658767Y-93043300D01*
X165658772Y-93043300D01*
X165694516Y-93040487D01*
X165847492Y-92996043D01*
X165984609Y-92914952D01*
X166097252Y-92802309D01*
X166178343Y-92665192D01*
X166222787Y-92512216D01*
X166225600Y-92476472D01*
X166225600Y-91674128D01*
X166222787Y-91638384D01*
X166178343Y-91485408D01*
X166144210Y-91427693D01*
X166097254Y-91348294D01*
X166097253Y-91348293D01*
X166097252Y-91348291D01*
X165984609Y-91235648D01*
X165984606Y-91235646D01*
X165984605Y-91235645D01*
X165847495Y-91154558D01*
X165847492Y-91154557D01*
X165809482Y-91143514D01*
X165772840Y-91132868D01*
X165749170Y-91116782D01*
X165724839Y-91101694D01*
X165724022Y-91099691D01*
X165722236Y-91098478D01*
X165712544Y-91071558D01*
X165701726Y-91045042D01*
X165702241Y-91042942D01*
X165701510Y-91040910D01*
X165709493Y-91013429D01*
X165716326Y-90985624D01*
X165717924Y-90984410D01*
X165718580Y-90982154D01*
X165763063Y-90946135D01*
X165767855Y-90944179D01*
X165847492Y-90921043D01*
X165898492Y-90890881D01*
X165905224Y-90888135D01*
X165919687Y-90887074D01*
X165942622Y-90880800D01*
X166894577Y-90880800D01*
X166952768Y-90899707D01*
X166964581Y-90909796D01*
X167392371Y-91337586D01*
X167515014Y-91460229D01*
X167576497Y-91501310D01*
X167659219Y-91556585D01*
X167659231Y-91556591D01*
X167710616Y-91577875D01*
X167819468Y-91622963D01*
X167989578Y-91656800D01*
X169017400Y-91656800D01*
X169075591Y-91675707D01*
X169111555Y-91725207D01*
X169116400Y-91755800D01*
X169116400Y-94467990D01*
X169116400Y-95940210D01*
X169127176Y-96014172D01*
X169182949Y-96128257D01*
X169209290Y-96154598D01*
X169237066Y-96209113D01*
X169227495Y-96269545D01*
X169184230Y-96312810D01*
X169139285Y-96323600D01*
X168510790Y-96323600D01*
X168436828Y-96334376D01*
X168322744Y-96390148D01*
X168232948Y-96479944D01*
X168205794Y-96535489D01*
X168177176Y-96594028D01*
X168166400Y-96667990D01*
X168166400Y-98140210D01*
X168177176Y-98214172D01*
X168232949Y-98328257D01*
X168322743Y-98418051D01*
X168410881Y-98461139D01*
X168454855Y-98503683D01*
X168466401Y-98550080D01*
X168466401Y-101276101D01*
X168447494Y-101334292D01*
X168397994Y-101370256D01*
X168367401Y-101375101D01*
X167673937Y-101375101D01*
X167673909Y-101375100D01*
X167670410Y-101375100D01*
X166398190Y-101375100D01*
X166324228Y-101385876D01*
X166210144Y-101441648D01*
X166120348Y-101531444D01*
X166071145Y-101632091D01*
X166064576Y-101645528D01*
X166053872Y-101719001D01*
X166053800Y-101719493D01*
X166053800Y-102031599D01*
X166034893Y-102089790D01*
X166034053Y-102090928D01*
X165990945Y-102148512D01*
X165940703Y-102283218D01*
X165940701Y-102283229D01*
X165934300Y-102342775D01*
X165934300Y-102390599D01*
X165934301Y-102390600D01*
X166090184Y-102390600D01*
X166147523Y-102408895D01*
X166154306Y-102413714D01*
X166210143Y-102469551D01*
X166283089Y-102505212D01*
X166289680Y-102509895D01*
X166303337Y-102528281D01*
X166319795Y-102544203D01*
X166321225Y-102552361D01*
X166326166Y-102559012D01*
X166326408Y-102581910D01*
X166330365Y-102604468D01*
X166326726Y-102611911D01*
X166326814Y-102620194D01*
X166313550Y-102638863D01*
X166303492Y-102659437D01*
X166294068Y-102666283D01*
X166291377Y-102670072D01*
X166286675Y-102671654D01*
X166275821Y-102679541D01*
X166210144Y-102711648D01*
X166210141Y-102711650D01*
X166160187Y-102761604D01*
X166105670Y-102789381D01*
X166090184Y-102790600D01*
X165934301Y-102790600D01*
X165934300Y-102790601D01*
X165934300Y-102838424D01*
X165934299Y-102838424D01*
X165940701Y-102897970D01*
X165940703Y-102897981D01*
X165990944Y-103032684D01*
X166034053Y-103090269D01*
X166053790Y-103148184D01*
X166053800Y-103149599D01*
X166053800Y-103461710D01*
X166057366Y-103486185D01*
X166063579Y-103528827D01*
X166063579Y-103557373D01*
X166053800Y-103624493D01*
X166053800Y-103816101D01*
X166034893Y-103874292D01*
X165985393Y-103910256D01*
X165964225Y-103913608D01*
X165964311Y-103914254D01*
X165957879Y-103915100D01*
X165810231Y-103954662D01*
X165763492Y-103981648D01*
X165677866Y-104031084D01*
X165569785Y-104139164D01*
X165569786Y-104139165D01*
X165569784Y-104139167D01*
X164943565Y-104765385D01*
X164943565Y-104765386D01*
X164943564Y-104765385D01*
X164835487Y-104873463D01*
X164835485Y-104873465D01*
X164835485Y-104873466D01*
X164759061Y-105005837D01*
X164722896Y-105140809D01*
X164719501Y-105153478D01*
X164719501Y-109579733D01*
X164700594Y-109637924D01*
X164670897Y-109664946D01*
X164572993Y-109722846D01*
X164460346Y-109835493D01*
X164418027Y-109907050D01*
X164372131Y-109947512D01*
X164311217Y-109953270D01*
X164258552Y-109922123D01*
X164248553Y-109908626D01*
X164154819Y-109756659D01*
X164030840Y-109632680D01*
X163881626Y-109540644D01*
X163881622Y-109540642D01*
X163725000Y-109488742D01*
X163725000Y-114211256D01*
X163881624Y-114159356D01*
X164030840Y-114067319D01*
X164154819Y-113943340D01*
X164248553Y-113791373D01*
X164295194Y-113751771D01*
X164356204Y-113747148D01*
X164408280Y-113779268D01*
X164418027Y-113792949D01*
X164460348Y-113864509D01*
X164572991Y-113977152D01*
X164572993Y-113977153D01*
X164572994Y-113977154D01*
X164710104Y-114058241D01*
X164710105Y-114058241D01*
X164710108Y-114058243D01*
X164863084Y-114102687D01*
X164898828Y-114105500D01*
X164898833Y-114105500D01*
X165701167Y-114105500D01*
X165701172Y-114105500D01*
X165736916Y-114102687D01*
X165889892Y-114058243D01*
X166027009Y-113977152D01*
X166072537Y-113931624D01*
X166094666Y-113909496D01*
X166149183Y-113881719D01*
X166164669Y-113880500D01*
X188686721Y-113880500D01*
X188686722Y-113880500D01*
X188856832Y-113846663D01*
X189017073Y-113780289D01*
X189017075Y-113780287D01*
X189017080Y-113780285D01*
X189066672Y-113747148D01*
X189161286Y-113683929D01*
X190320329Y-112524886D01*
X190388861Y-112422319D01*
X190416685Y-112380680D01*
X190416691Y-112380668D01*
X190469461Y-112253270D01*
X190483063Y-112220432D01*
X190516900Y-112050322D01*
X190516900Y-111876878D01*
X190516900Y-110763310D01*
X190535807Y-110705119D01*
X190585307Y-110669155D01*
X190646493Y-110669155D01*
X190695993Y-110705119D01*
X190700161Y-110711338D01*
X190781580Y-110843340D01*
X190905559Y-110967319D01*
X191054775Y-111059356D01*
X191211400Y-111111257D01*
X191211400Y-110400001D01*
X192211400Y-110400001D01*
X192211400Y-111111256D01*
X192368024Y-111059356D01*
X192517240Y-110967319D01*
X192641219Y-110843340D01*
X192733256Y-110694124D01*
X192788406Y-110527693D01*
X192798900Y-110424987D01*
X192798900Y-110400001D01*
X192798899Y-110400000D01*
X192211401Y-110400000D01*
X192211400Y-110400001D01*
X191211400Y-110400001D01*
X191211400Y-109399999D01*
X192211400Y-109399999D01*
X192211401Y-109400000D01*
X192798898Y-109400000D01*
X192798899Y-109399999D01*
X192798899Y-109375013D01*
X192788407Y-109272312D01*
X192788404Y-109272300D01*
X192733256Y-109105875D01*
X192641219Y-108956659D01*
X192517240Y-108832680D01*
X192368026Y-108740644D01*
X192368022Y-108740642D01*
X192211400Y-108688742D01*
X192211400Y-109399999D01*
X191211400Y-109399999D01*
X191211400Y-108688742D01*
X191054777Y-108740642D01*
X191054773Y-108740644D01*
X190905559Y-108832680D01*
X190781582Y-108956657D01*
X190700161Y-109088662D01*
X190653520Y-109128263D01*
X190592509Y-109132886D01*
X190540433Y-109100765D01*
X190517183Y-109044169D01*
X190516900Y-109036689D01*
X190516900Y-107560724D01*
X209260199Y-107560724D01*
X209266601Y-107620270D01*
X209266603Y-107620281D01*
X209316846Y-107754988D01*
X209316847Y-107754990D01*
X209403007Y-107870084D01*
X209403014Y-107870091D01*
X209518109Y-107956252D01*
X209518111Y-107956253D01*
X209652818Y-108006496D01*
X209652829Y-108006498D01*
X209712376Y-108012900D01*
X211290199Y-108012900D01*
X211290200Y-108012899D01*
X211290200Y-107252901D01*
X211290199Y-107252900D01*
X209260201Y-107252900D01*
X209260200Y-107252901D01*
X209260200Y-107560724D01*
X209260199Y-107560724D01*
X190516900Y-107560724D01*
X190516900Y-106892921D01*
X190530686Y-106842527D01*
X190557143Y-106797792D01*
X190601587Y-106644816D01*
X190604400Y-106609072D01*
X190604400Y-105783176D01*
X190623307Y-105724985D01*
X190672807Y-105689021D01*
X190733993Y-105689021D01*
X190748337Y-105694963D01*
X190774085Y-105708082D01*
X190870797Y-105723400D01*
X191366300Y-105723399D01*
X191424491Y-105742306D01*
X191460455Y-105791806D01*
X191465300Y-105822399D01*
X191465300Y-106317905D01*
X191477022Y-106391908D01*
X191480618Y-106414615D01*
X191540011Y-106531181D01*
X191632519Y-106623689D01*
X191749085Y-106683082D01*
X191845797Y-106698400D01*
X192105802Y-106698399D01*
X192105805Y-106698399D01*
X192188567Y-106685291D01*
X192202515Y-106683082D01*
X192202515Y-106683081D01*
X192210211Y-106681863D01*
X192210804Y-106685608D01*
X192240846Y-106685291D01*
X192241390Y-106681863D01*
X192249084Y-106683081D01*
X192249085Y-106683082D01*
X192345797Y-106698400D01*
X192508351Y-106698399D01*
X192566541Y-106717306D01*
X192568170Y-106718515D01*
X192614860Y-106753921D01*
X192751039Y-106807623D01*
X192836614Y-106817898D01*
X192845800Y-106817898D01*
X192845800Y-106637977D01*
X192848268Y-106630379D01*
X192847019Y-106622490D01*
X192857543Y-106601834D01*
X192864707Y-106579786D01*
X192874790Y-106567979D01*
X192905798Y-106536971D01*
X192960313Y-106509196D01*
X193020745Y-106518767D01*
X193045800Y-106536970D01*
X193076805Y-106567975D01*
X193104581Y-106622490D01*
X193105800Y-106637977D01*
X193105800Y-106817898D01*
X193105801Y-106817899D01*
X193114981Y-106817899D01*
X193114990Y-106817898D01*
X193200560Y-106807622D01*
X193336738Y-106753921D01*
X193336739Y-106753921D01*
X193383427Y-106718516D01*
X193441218Y-106698420D01*
X193443186Y-106698399D01*
X193605802Y-106698399D01*
X193605805Y-106698399D01*
X193688567Y-106685291D01*
X193702515Y-106683082D01*
X193702515Y-106683081D01*
X193710211Y-106681863D01*
X193710804Y-106685608D01*
X193740846Y-106685291D01*
X193741390Y-106681863D01*
X193749084Y-106683081D01*
X193749085Y-106683082D01*
X193845797Y-106698400D01*
X194105802Y-106698399D01*
X194105805Y-106698399D01*
X194188567Y-106685291D01*
X194202515Y-106683082D01*
X194202515Y-106683081D01*
X194210211Y-106681863D01*
X194210804Y-106685608D01*
X194240846Y-106685291D01*
X194241390Y-106681863D01*
X194249084Y-106683081D01*
X194249085Y-106683082D01*
X194345797Y-106698400D01*
X194605802Y-106698399D01*
X194605805Y-106698399D01*
X194688567Y-106685291D01*
X194702515Y-106683082D01*
X194702515Y-106683081D01*
X194710211Y-106681863D01*
X194710804Y-106685608D01*
X194740846Y-106685291D01*
X194741390Y-106681863D01*
X194749084Y-106683081D01*
X194749085Y-106683082D01*
X194845797Y-106698400D01*
X195105802Y-106698399D01*
X195105805Y-106698399D01*
X195188567Y-106685291D01*
X195202515Y-106683082D01*
X195202515Y-106683081D01*
X195210211Y-106681863D01*
X195210804Y-106685608D01*
X195240846Y-106685291D01*
X195241390Y-106681863D01*
X195249084Y-106683081D01*
X195249085Y-106683082D01*
X195345797Y-106698400D01*
X195605802Y-106698399D01*
X195605805Y-106698399D01*
X195631447Y-106694337D01*
X195702515Y-106683082D01*
X195819081Y-106623689D01*
X195911589Y-106531181D01*
X195970982Y-106414615D01*
X195986300Y-106317903D01*
X195986299Y-105822398D01*
X196005206Y-105764208D01*
X196054706Y-105728244D01*
X196085299Y-105723399D01*
X196580805Y-105723399D01*
X196606447Y-105719337D01*
X196677515Y-105708082D01*
X196794081Y-105648689D01*
X196886589Y-105556181D01*
X196945982Y-105439615D01*
X196961300Y-105342903D01*
X196961299Y-105234962D01*
X196980206Y-105176773D01*
X197029705Y-105140809D01*
X197090891Y-105140808D01*
X197098177Y-105143496D01*
X197281298Y-105219347D01*
X197483512Y-105259570D01*
X209467755Y-105259570D01*
X209514335Y-105271212D01*
X209527336Y-105278144D01*
X209536043Y-105286851D01*
X209627714Y-105331666D01*
X209629208Y-105332463D01*
X209649290Y-105353308D01*
X209670082Y-105373423D01*
X209670396Y-105375215D01*
X209671659Y-105376526D01*
X209675652Y-105405185D01*
X209680652Y-105433688D01*
X209679852Y-105435322D01*
X209680104Y-105437126D01*
X209666486Y-105462664D01*
X209653780Y-105488657D01*
X209652009Y-105489815D01*
X209651316Y-105491116D01*
X209646280Y-105493564D01*
X209617225Y-105512579D01*
X209518109Y-105549547D01*
X209403015Y-105635707D01*
X209403007Y-105635715D01*
X209316847Y-105750809D01*
X209316846Y-105750811D01*
X209266603Y-105885518D01*
X209266601Y-105885529D01*
X209260200Y-105945075D01*
X209260200Y-106252899D01*
X209260201Y-106252900D01*
X211691200Y-106252900D01*
X211749391Y-106271807D01*
X211785355Y-106321307D01*
X211790200Y-106351900D01*
X211790200Y-106752899D01*
X211790201Y-106752900D01*
X212191200Y-106752900D01*
X212249391Y-106771807D01*
X212285355Y-106821307D01*
X212290200Y-106851900D01*
X212290200Y-108012899D01*
X212290201Y-108012900D01*
X213868024Y-108012900D01*
X213927570Y-108006498D01*
X213927581Y-108006496D01*
X214062288Y-107956253D01*
X214062290Y-107956252D01*
X214177386Y-107870091D01*
X214177392Y-107870084D01*
X214263552Y-107754990D01*
X214263553Y-107754988D01*
X214313797Y-107620278D01*
X214315154Y-107614537D01*
X214346938Y-107562255D01*
X214403383Y-107538640D01*
X214462928Y-107552713D01*
X214502829Y-107599097D01*
X214510500Y-107637307D01*
X214510500Y-122553100D01*
X214491593Y-122611291D01*
X214442093Y-122647255D01*
X214411500Y-122652100D01*
X145684300Y-122652100D01*
X145626109Y-122633193D01*
X145590145Y-122583693D01*
X145585300Y-122553100D01*
X145585300Y-118678710D01*
X148649500Y-118678710D01*
X148649500Y-118921289D01*
X148681161Y-119161781D01*
X148681161Y-119161786D01*
X148743944Y-119396092D01*
X148743948Y-119396105D01*
X148836772Y-119620204D01*
X148836774Y-119620208D01*
X148836776Y-119620212D01*
X148958064Y-119830289D01*
X148958066Y-119830292D01*
X149105729Y-120022731D01*
X149105731Y-120022733D01*
X149105735Y-120022738D01*
X149277262Y-120194265D01*
X149277266Y-120194268D01*
X149277268Y-120194270D01*
X149442772Y-120321265D01*
X149469711Y-120341936D01*
X149679788Y-120463224D01*
X149903900Y-120556054D01*
X150138211Y-120618838D01*
X150378712Y-120650500D01*
X150378713Y-120650500D01*
X150621287Y-120650500D01*
X150621288Y-120650500D01*
X150861789Y-120618838D01*
X151096100Y-120556054D01*
X151320212Y-120463224D01*
X151530289Y-120341936D01*
X151722738Y-120194265D01*
X151894265Y-120022738D01*
X152041936Y-119830289D01*
X152163224Y-119620212D01*
X152256054Y-119396100D01*
X152318838Y-119161789D01*
X152350500Y-118921288D01*
X152350500Y-118805710D01*
X208149500Y-118805710D01*
X208149500Y-119048289D01*
X208181161Y-119288781D01*
X208181161Y-119288786D01*
X208243944Y-119523092D01*
X208243948Y-119523105D01*
X208336772Y-119747204D01*
X208336774Y-119747208D01*
X208336776Y-119747212D01*
X208458064Y-119957289D01*
X208458066Y-119957292D01*
X208605729Y-120149731D01*
X208605731Y-120149733D01*
X208605735Y-120149738D01*
X208777262Y-120321265D01*
X208777266Y-120321268D01*
X208777268Y-120321270D01*
X208804197Y-120341933D01*
X208969711Y-120468936D01*
X209179788Y-120590224D01*
X209403900Y-120683054D01*
X209638211Y-120745838D01*
X209878712Y-120777500D01*
X209878713Y-120777500D01*
X210121287Y-120777500D01*
X210121288Y-120777500D01*
X210361789Y-120745838D01*
X210596100Y-120683054D01*
X210820212Y-120590224D01*
X211030289Y-120468936D01*
X211222738Y-120321265D01*
X211394265Y-120149738D01*
X211541936Y-119957289D01*
X211663224Y-119747212D01*
X211756054Y-119523100D01*
X211818838Y-119288789D01*
X211850500Y-119048288D01*
X211850500Y-118805712D01*
X211818838Y-118565211D01*
X211756054Y-118330900D01*
X211663224Y-118106788D01*
X211541936Y-117896711D01*
X211394265Y-117704262D01*
X211222738Y-117532735D01*
X211222733Y-117532731D01*
X211222731Y-117532729D01*
X211030292Y-117385066D01*
X211030289Y-117385064D01*
X210820212Y-117263776D01*
X210820208Y-117263774D01*
X210820204Y-117263772D01*
X210596105Y-117170948D01*
X210596104Y-117170947D01*
X210596100Y-117170946D01*
X210361789Y-117108162D01*
X210361786Y-117108161D01*
X210361784Y-117108161D01*
X210121289Y-117076500D01*
X210121288Y-117076500D01*
X209878712Y-117076500D01*
X209878710Y-117076500D01*
X209638218Y-117108161D01*
X209638213Y-117108161D01*
X209403907Y-117170944D01*
X209403894Y-117170948D01*
X209179795Y-117263772D01*
X208969707Y-117385066D01*
X208777268Y-117532729D01*
X208605729Y-117704268D01*
X208458066Y-117896707D01*
X208336772Y-118106795D01*
X208243948Y-118330894D01*
X208243944Y-118330907D01*
X208181161Y-118565213D01*
X208181161Y-118565218D01*
X208149500Y-118805710D01*
X152350500Y-118805710D01*
X152350500Y-118678712D01*
X152318838Y-118438211D01*
X152256054Y-118203900D01*
X152163224Y-117979788D01*
X152041936Y-117769711D01*
X151991720Y-117704268D01*
X151894270Y-117577268D01*
X151894268Y-117577266D01*
X151894265Y-117577262D01*
X151722738Y-117405735D01*
X151722733Y-117405731D01*
X151722731Y-117405729D01*
X151530292Y-117258066D01*
X151530289Y-117258064D01*
X151320212Y-117136776D01*
X151320208Y-117136774D01*
X151320204Y-117136772D01*
X151096105Y-117043948D01*
X151096104Y-117043947D01*
X151096100Y-117043946D01*
X150861789Y-116981162D01*
X150861786Y-116981161D01*
X150861784Y-116981161D01*
X150621289Y-116949500D01*
X150621288Y-116949500D01*
X150378712Y-116949500D01*
X150378710Y-116949500D01*
X150138218Y-116981161D01*
X150138213Y-116981161D01*
X149903907Y-117043944D01*
X149903894Y-117043948D01*
X149679795Y-117136772D01*
X149469707Y-117258066D01*
X149277268Y-117405729D01*
X149105729Y-117577268D01*
X148958066Y-117769707D01*
X148836772Y-117979795D01*
X148743948Y-118203894D01*
X148743944Y-118203907D01*
X148681161Y-118438213D01*
X148681161Y-118438218D01*
X148649500Y-118678710D01*
X145585300Y-118678710D01*
X145585300Y-113775000D01*
X148608743Y-113775000D01*
X148660643Y-113931624D01*
X148752680Y-114080840D01*
X148876659Y-114204819D01*
X149025875Y-114296856D01*
X149192306Y-114352006D01*
X149295012Y-114362499D01*
X149320000Y-114362498D01*
X149320000Y-113775001D01*
X150320000Y-113775001D01*
X150320000Y-114362498D01*
X150320001Y-114362499D01*
X150344986Y-114362499D01*
X150447687Y-114352007D01*
X150447699Y-114352004D01*
X150614124Y-114296856D01*
X150763340Y-114204819D01*
X150887319Y-114080840D01*
X150979356Y-113931624D01*
X151031257Y-113775000D01*
X153688743Y-113775000D01*
X153740643Y-113931624D01*
X153832680Y-114080840D01*
X153956659Y-114204819D01*
X154105875Y-114296856D01*
X154272306Y-114352006D01*
X154375012Y-114362499D01*
X154400000Y-114362498D01*
X154400000Y-113775001D01*
X155400000Y-113775001D01*
X155400000Y-114362498D01*
X155400001Y-114362499D01*
X155424986Y-114362499D01*
X155527687Y-114352007D01*
X155527699Y-114352004D01*
X155694124Y-114296856D01*
X155843340Y-114204819D01*
X155967319Y-114080840D01*
X156059356Y-113931624D01*
X156111257Y-113775000D01*
X155400001Y-113775000D01*
X155400000Y-113775001D01*
X154400000Y-113775001D01*
X154399999Y-113775000D01*
X153688743Y-113775000D01*
X151031257Y-113775000D01*
X150320001Y-113775000D01*
X150320000Y-113775001D01*
X149320000Y-113775001D01*
X149319999Y-113775000D01*
X148608743Y-113775000D01*
X145585300Y-113775000D01*
X145585300Y-113500001D01*
X162137501Y-113500001D01*
X162137501Y-113524986D01*
X162147992Y-113627687D01*
X162147995Y-113627699D01*
X162203143Y-113794124D01*
X162295180Y-113943340D01*
X162419159Y-114067319D01*
X162568375Y-114159356D01*
X162725000Y-114211257D01*
X162725000Y-113500001D01*
X162724999Y-113500000D01*
X162137502Y-113500000D01*
X162137501Y-113500001D01*
X145585300Y-113500001D01*
X145585300Y-86232214D01*
X151865492Y-86232214D01*
X151865492Y-86232215D01*
X152031085Y-86286020D01*
X152031089Y-86286021D01*
X152225420Y-86316800D01*
X152422180Y-86316800D01*
X152616500Y-86286022D01*
X152782106Y-86232214D01*
X152323799Y-85773907D01*
X151865492Y-86232214D01*
X145585300Y-86232214D01*
X145585300Y-84968419D01*
X151073800Y-84968419D01*
X151073800Y-85165180D01*
X151104577Y-85359504D01*
X151158384Y-85525105D01*
X151616692Y-85066799D01*
X151564032Y-85014139D01*
X151923800Y-85014139D01*
X151923800Y-85119461D01*
X151951059Y-85221194D01*
X152003720Y-85312406D01*
X152078194Y-85386880D01*
X152169406Y-85439541D01*
X152271139Y-85466800D01*
X152376461Y-85466800D01*
X152478194Y-85439541D01*
X152569406Y-85386880D01*
X152643880Y-85312406D01*
X152696541Y-85221194D01*
X152723800Y-85119461D01*
X152723800Y-85066799D01*
X153030907Y-85066799D01*
X153489214Y-85525106D01*
X153543022Y-85359500D01*
X153573800Y-85165180D01*
X153573800Y-84968419D01*
X153543021Y-84774089D01*
X153543020Y-84774085D01*
X153489214Y-84608492D01*
X153030907Y-85066799D01*
X152723800Y-85066799D01*
X152723800Y-85014139D01*
X152696541Y-84912406D01*
X152643880Y-84821194D01*
X152569406Y-84746720D01*
X152478194Y-84694059D01*
X152376461Y-84666800D01*
X152271139Y-84666800D01*
X152169406Y-84694059D01*
X152078194Y-84746720D01*
X152003720Y-84821194D01*
X151951059Y-84912406D01*
X151923800Y-85014139D01*
X151564032Y-85014139D01*
X151158385Y-84608492D01*
X151104577Y-84774095D01*
X151073800Y-84968419D01*
X145585300Y-84968419D01*
X145585300Y-83901385D01*
X151865492Y-83901385D01*
X152323799Y-84359692D01*
X152782106Y-83901385D01*
X152746448Y-83889799D01*
X152616504Y-83847577D01*
X152547524Y-83836652D01*
X161564001Y-83836652D01*
X161564001Y-83886637D01*
X161574492Y-83989338D01*
X161574495Y-83989350D01*
X161629643Y-84155775D01*
X161721680Y-84304991D01*
X161845659Y-84428970D01*
X161994875Y-84521007D01*
X162161306Y-84576157D01*
X162264013Y-84586650D01*
X162314000Y-84586649D01*
X162314000Y-83836652D01*
X163314000Y-83836652D01*
X163314000Y-84586649D01*
X163314001Y-84586650D01*
X163363986Y-84586650D01*
X163466687Y-84576158D01*
X163466699Y-84576155D01*
X163633124Y-84521007D01*
X163782340Y-84428970D01*
X163906319Y-84304991D01*
X163998356Y-84155775D01*
X164053506Y-83989344D01*
X164064000Y-83886638D01*
X164064000Y-83836652D01*
X164063999Y-83836651D01*
X163314001Y-83836651D01*
X163314000Y-83836652D01*
X162314000Y-83836652D01*
X162313999Y-83836651D01*
X161564002Y-83836651D01*
X161564001Y-83836652D01*
X152547524Y-83836652D01*
X152422180Y-83816800D01*
X152225420Y-83816800D01*
X152031095Y-83847577D01*
X151865492Y-83901385D01*
X145585300Y-83901385D01*
X145585300Y-83283990D01*
X162414000Y-83283990D01*
X162414000Y-83389312D01*
X162441259Y-83491045D01*
X162493920Y-83582257D01*
X162568394Y-83656731D01*
X162659606Y-83709392D01*
X162761339Y-83736651D01*
X162866661Y-83736651D01*
X162968394Y-83709392D01*
X163059606Y-83656731D01*
X163134080Y-83582257D01*
X163186741Y-83491045D01*
X163214000Y-83389312D01*
X163214000Y-83283990D01*
X163186741Y-83182257D01*
X163134080Y-83091045D01*
X163059606Y-83016571D01*
X162968394Y-82963910D01*
X162866661Y-82936651D01*
X162761339Y-82936651D01*
X162659606Y-82963910D01*
X162568394Y-83016571D01*
X162493920Y-83091045D01*
X162441259Y-83182257D01*
X162414000Y-83283990D01*
X145585300Y-83283990D01*
X145585300Y-82786663D01*
X161564000Y-82786663D01*
X161564000Y-82836650D01*
X161564001Y-82836651D01*
X162313999Y-82836651D01*
X162314000Y-82836650D01*
X162314000Y-82086652D01*
X163314000Y-82086652D01*
X163314000Y-82836650D01*
X163314001Y-82836651D01*
X164063998Y-82836651D01*
X164063999Y-82836650D01*
X164063999Y-82786664D01*
X164053507Y-82683963D01*
X164053504Y-82683951D01*
X163998356Y-82517526D01*
X163906319Y-82368310D01*
X163782340Y-82244331D01*
X163633124Y-82152294D01*
X163466693Y-82097144D01*
X163363987Y-82086651D01*
X163314001Y-82086651D01*
X163314000Y-82086652D01*
X162314000Y-82086652D01*
X162314000Y-82086650D01*
X162264015Y-82086651D01*
X162264012Y-82086652D01*
X162161312Y-82097143D01*
X162161300Y-82097146D01*
X161994875Y-82152294D01*
X161845659Y-82244331D01*
X161721680Y-82368310D01*
X161629643Y-82517526D01*
X161574493Y-82683957D01*
X161564000Y-82786663D01*
X145585300Y-82786663D01*
X145585300Y-77920148D01*
X155540700Y-77920148D01*
X155540700Y-78137451D01*
X155574690Y-78352063D01*
X155641840Y-78558728D01*
X155727162Y-78726184D01*
X155740490Y-78752340D01*
X155868213Y-78928136D01*
X156021864Y-79081787D01*
X156197660Y-79209510D01*
X156391272Y-79308160D01*
X156597932Y-79375308D01*
X156597933Y-79375308D01*
X156597936Y-79375309D01*
X156812549Y-79409300D01*
X156812552Y-79409300D01*
X157029851Y-79409300D01*
X157244463Y-79375309D01*
X157244464Y-79375308D01*
X157244468Y-79375308D01*
X157451128Y-79308160D01*
X157644740Y-79209510D01*
X157665777Y-79194226D01*
X157687826Y-79178207D01*
X157746016Y-79159300D01*
X159391246Y-79159300D01*
X159449436Y-79178207D01*
X159574245Y-79268886D01*
X159574249Y-79268888D01*
X159781885Y-79374684D01*
X160003515Y-79446696D01*
X160003516Y-79446696D01*
X160003519Y-79446697D01*
X160233679Y-79483151D01*
X160233682Y-79483151D01*
X160466721Y-79483151D01*
X160696880Y-79446697D01*
X160696881Y-79446696D01*
X160696885Y-79446696D01*
X160877545Y-79387996D01*
X160908138Y-79383151D01*
X161947170Y-79383151D01*
X162005361Y-79402058D01*
X162017174Y-79412147D01*
X164454665Y-81849638D01*
X164630460Y-81977361D01*
X164824072Y-82076011D01*
X165030732Y-82143159D01*
X165030733Y-82143159D01*
X165030736Y-82143160D01*
X165245350Y-82177152D01*
X165245353Y-82177152D01*
X165462651Y-82177152D01*
X165677263Y-82143160D01*
X165677264Y-82143159D01*
X165677268Y-82143159D01*
X165883929Y-82076011D01*
X166077540Y-81977361D01*
X166253335Y-81849638D01*
X166406987Y-81695986D01*
X166534710Y-81520191D01*
X166633360Y-81326580D01*
X166700508Y-81119919D01*
X166704872Y-81092367D01*
X166734501Y-80905302D01*
X166734501Y-80688000D01*
X166700509Y-80473387D01*
X166700508Y-80473383D01*
X166633360Y-80266723D01*
X166534710Y-80073111D01*
X166406987Y-79897316D01*
X163612989Y-77103318D01*
X163612987Y-77103315D01*
X163459336Y-76949664D01*
X163283540Y-76821941D01*
X163283539Y-76821940D01*
X163283537Y-76821939D01*
X163089928Y-76723291D01*
X162883263Y-76656141D01*
X162668651Y-76622150D01*
X162668648Y-76622150D01*
X162451352Y-76622150D01*
X162447274Y-76622150D01*
X162447250Y-76622151D01*
X160908138Y-76622151D01*
X160877545Y-76617306D01*
X160696880Y-76558604D01*
X160466721Y-76522151D01*
X160466718Y-76522151D01*
X160233682Y-76522151D01*
X160233679Y-76522151D01*
X160003519Y-76558604D01*
X159781884Y-76630618D01*
X159574251Y-76736412D01*
X159385717Y-76873390D01*
X159384325Y-76874580D01*
X159383756Y-76874815D01*
X159382572Y-76875676D01*
X159382365Y-76875391D01*
X159327797Y-76897995D01*
X159320029Y-76898300D01*
X157746016Y-76898300D01*
X157687826Y-76879393D01*
X157644743Y-76848091D01*
X157644739Y-76848089D01*
X157451128Y-76749440D01*
X157244463Y-76682290D01*
X157029851Y-76648300D01*
X157029848Y-76648300D01*
X156812552Y-76648300D01*
X156812549Y-76648300D01*
X156597936Y-76682290D01*
X156391271Y-76749440D01*
X156197662Y-76848088D01*
X156021865Y-76975812D01*
X155868212Y-77129465D01*
X155740488Y-77305262D01*
X155641840Y-77498871D01*
X155574690Y-77705536D01*
X155540700Y-77920148D01*
X145585300Y-77920148D01*
X145585300Y-75849521D01*
X159603635Y-75849521D01*
X159710612Y-75904029D01*
X159950136Y-75981855D01*
X160198874Y-76021251D01*
X160450726Y-76021251D01*
X160699463Y-75981855D01*
X160938987Y-75904029D01*
X161045963Y-75849521D01*
X160324799Y-75128357D01*
X159603635Y-75849521D01*
X145585300Y-75849521D01*
X145585300Y-74295324D01*
X158724800Y-74295324D01*
X158724800Y-74547177D01*
X158764195Y-74795914D01*
X158842020Y-75035435D01*
X158896528Y-75142414D01*
X159617692Y-74421250D01*
X159545284Y-74348842D01*
X159774800Y-74348842D01*
X159774800Y-74493660D01*
X159812282Y-74633543D01*
X159884690Y-74758959D01*
X159987092Y-74861361D01*
X160112508Y-74933769D01*
X160252391Y-74971251D01*
X160397209Y-74971251D01*
X160537092Y-74933769D01*
X160662508Y-74861361D01*
X160764910Y-74758959D01*
X160837318Y-74633543D01*
X160874800Y-74493660D01*
X160874800Y-74421250D01*
X161031906Y-74421250D01*
X161753070Y-75142414D01*
X161807578Y-75035438D01*
X161885404Y-74795914D01*
X161924800Y-74547177D01*
X161924800Y-74295324D01*
X161885404Y-74046587D01*
X161807578Y-73807063D01*
X161753069Y-73700086D01*
X161031906Y-74421250D01*
X160874800Y-74421250D01*
X160874800Y-74348842D01*
X160837318Y-74208959D01*
X160764910Y-74083543D01*
X160662508Y-73981141D01*
X160537092Y-73908733D01*
X160397209Y-73871251D01*
X160252391Y-73871251D01*
X160112508Y-73908733D01*
X159987092Y-73981141D01*
X159884690Y-74083543D01*
X159812282Y-74208959D01*
X159774800Y-74348842D01*
X159545284Y-74348842D01*
X158896528Y-73700086D01*
X158842021Y-73807063D01*
X158764195Y-74046587D01*
X158724800Y-74295324D01*
X145585300Y-74295324D01*
X145585300Y-72992979D01*
X159603635Y-72992979D01*
X160324799Y-73714143D01*
X161045963Y-72992979D01*
X160938984Y-72938471D01*
X160699463Y-72860646D01*
X160450726Y-72821251D01*
X160198874Y-72821251D01*
X159950136Y-72860646D01*
X159710612Y-72938472D01*
X159603635Y-72992979D01*
X145585300Y-72992979D01*
X145585300Y-69627110D01*
X148649500Y-69627110D01*
X148649500Y-69869689D01*
X148681161Y-70110181D01*
X148681161Y-70110186D01*
X148743944Y-70344492D01*
X148743948Y-70344505D01*
X148836772Y-70568604D01*
X148836774Y-70568608D01*
X148836776Y-70568612D01*
X148958064Y-70778689D01*
X148958066Y-70778692D01*
X149105729Y-70971131D01*
X149105731Y-70971133D01*
X149105735Y-70971138D01*
X149277262Y-71142665D01*
X149277266Y-71142668D01*
X149277268Y-71142670D01*
X149407733Y-71242779D01*
X149469711Y-71290336D01*
X149679788Y-71411624D01*
X149903900Y-71504454D01*
X150138211Y-71567238D01*
X150378712Y-71598900D01*
X150378713Y-71598900D01*
X150621287Y-71598900D01*
X150621288Y-71598900D01*
X150861789Y-71567238D01*
X151096100Y-71504454D01*
X151320212Y-71411624D01*
X151530289Y-71290336D01*
X151722738Y-71142665D01*
X151894265Y-70971138D01*
X152041936Y-70778689D01*
X152163224Y-70568612D01*
X152256054Y-70344500D01*
X152307676Y-70151847D01*
X163701110Y-70151847D01*
X163718176Y-70160543D01*
X163920278Y-70226210D01*
X164130150Y-70259451D01*
X164342650Y-70259451D01*
X164552521Y-70226210D01*
X164754623Y-70160543D01*
X164771688Y-70151847D01*
X164236399Y-69616558D01*
X163701110Y-70151847D01*
X152307676Y-70151847D01*
X152318838Y-70110189D01*
X152350500Y-69869688D01*
X152350500Y-69627112D01*
X152318838Y-69386611D01*
X152284617Y-69258899D01*
X152274923Y-69222720D01*
X156274386Y-69222720D01*
X156345396Y-69258901D01*
X156345408Y-69258906D01*
X156569943Y-69331864D01*
X156569947Y-69331865D01*
X156803144Y-69368800D01*
X157039256Y-69368800D01*
X157272452Y-69331865D01*
X157272456Y-69331864D01*
X157496991Y-69258906D01*
X157497008Y-69258899D01*
X157568013Y-69222720D01*
X157214617Y-68869323D01*
X157214611Y-68869318D01*
X157148493Y-68803200D01*
X162886400Y-68803200D01*
X162886400Y-69015701D01*
X162919640Y-69225572D01*
X162985307Y-69427675D01*
X162985308Y-69427678D01*
X162994002Y-69444739D01*
X163529291Y-68909450D01*
X163463466Y-68843625D01*
X163736400Y-68843625D01*
X163736400Y-68975277D01*
X163770475Y-69102444D01*
X163836301Y-69216458D01*
X163929393Y-69309550D01*
X164043407Y-69375376D01*
X164170574Y-69409451D01*
X164302226Y-69409451D01*
X164429393Y-69375376D01*
X164543407Y-69309550D01*
X164636499Y-69216458D01*
X164702325Y-69102444D01*
X164736400Y-68975277D01*
X164736400Y-68843625D01*
X164702325Y-68716458D01*
X164636499Y-68602444D01*
X164543407Y-68509352D01*
X164429393Y-68443526D01*
X164302226Y-68409451D01*
X164170574Y-68409451D01*
X164043407Y-68443526D01*
X163929393Y-68509352D01*
X163836301Y-68602444D01*
X163770475Y-68716458D01*
X163736400Y-68843625D01*
X163463466Y-68843625D01*
X162994002Y-68374161D01*
X162985306Y-68391230D01*
X162919640Y-68593329D01*
X162886400Y-68803200D01*
X157148493Y-68803200D01*
X156921200Y-68575907D01*
X156274386Y-69222720D01*
X152274923Y-69222720D01*
X152272589Y-69214008D01*
X152272589Y-69214005D01*
X152256059Y-69152317D01*
X152256056Y-69152307D01*
X152256054Y-69152300D01*
X152163224Y-68928188D01*
X152041936Y-68718111D01*
X151946188Y-68593329D01*
X151894270Y-68525668D01*
X151894268Y-68525666D01*
X151894265Y-68525662D01*
X151722738Y-68354135D01*
X151722733Y-68354131D01*
X151722731Y-68354129D01*
X151530292Y-68206466D01*
X151523149Y-68202342D01*
X151320212Y-68085176D01*
X151320208Y-68085174D01*
X151320204Y-68085172D01*
X151096105Y-67992348D01*
X151096104Y-67992347D01*
X151096100Y-67992346D01*
X150861789Y-67929562D01*
X150861786Y-67929561D01*
X150861784Y-67929561D01*
X150621289Y-67897900D01*
X150621288Y-67897900D01*
X150378712Y-67897900D01*
X150378710Y-67897900D01*
X150138218Y-67929561D01*
X150138213Y-67929561D01*
X149903907Y-67992344D01*
X149903894Y-67992348D01*
X149679795Y-68085172D01*
X149469707Y-68206466D01*
X149277268Y-68354129D01*
X149105729Y-68525668D01*
X148958066Y-68718107D01*
X148958064Y-68718111D01*
X148837116Y-68927600D01*
X148836772Y-68928195D01*
X148743948Y-69152294D01*
X148743944Y-69152307D01*
X148681161Y-69386613D01*
X148681161Y-69386618D01*
X148649500Y-69627110D01*
X145585300Y-69627110D01*
X145585300Y-67750743D01*
X155421200Y-67750743D01*
X155421200Y-67986856D01*
X155458134Y-68220052D01*
X155458135Y-68220056D01*
X155531091Y-68444589D01*
X155567279Y-68515611D01*
X156214091Y-67868799D01*
X156161431Y-67816139D01*
X156521200Y-67816139D01*
X156521200Y-67921461D01*
X156548459Y-68023194D01*
X156601120Y-68114406D01*
X156675594Y-68188880D01*
X156766806Y-68241541D01*
X156868539Y-68268800D01*
X156973861Y-68268800D01*
X157075594Y-68241541D01*
X157166806Y-68188880D01*
X157241280Y-68114406D01*
X157293941Y-68023194D01*
X157321200Y-67921461D01*
X157321200Y-67868799D01*
X157628307Y-67868799D01*
X158275120Y-68515612D01*
X158311299Y-68444608D01*
X158311306Y-68444591D01*
X158384264Y-68220056D01*
X158384265Y-68220052D01*
X158421200Y-67986856D01*
X158421200Y-67750742D01*
X158415836Y-67716874D01*
X158407945Y-67667053D01*
X163701110Y-67667053D01*
X164236399Y-68202342D01*
X164771688Y-67667053D01*
X164754627Y-67658359D01*
X164754624Y-67658358D01*
X164552521Y-67592691D01*
X164342650Y-67559451D01*
X164130150Y-67559451D01*
X163920278Y-67592691D01*
X163718179Y-67658357D01*
X163701110Y-67667053D01*
X158407945Y-67667053D01*
X158384265Y-67517548D01*
X158384264Y-67517543D01*
X158311306Y-67293008D01*
X158311301Y-67292996D01*
X158275120Y-67221986D01*
X157628307Y-67868799D01*
X157321200Y-67868799D01*
X157321200Y-67816139D01*
X157293941Y-67714406D01*
X157241280Y-67623194D01*
X157166806Y-67548720D01*
X157075594Y-67496059D01*
X156973861Y-67468800D01*
X156868539Y-67468800D01*
X156766806Y-67496059D01*
X156675594Y-67548720D01*
X156601120Y-67623194D01*
X156548459Y-67714406D01*
X156521200Y-67816139D01*
X156161431Y-67816139D01*
X155567278Y-67221986D01*
X155531094Y-67293003D01*
X155531092Y-67293006D01*
X155458135Y-67517543D01*
X155458134Y-67517547D01*
X155421200Y-67750743D01*
X145585300Y-67750743D01*
X145585300Y-66514878D01*
X156274386Y-66514878D01*
X156921200Y-67161692D01*
X157170349Y-66912543D01*
X185037600Y-66912543D01*
X185037600Y-67148656D01*
X185074534Y-67381852D01*
X185074535Y-67381856D01*
X185147491Y-67606389D01*
X185183679Y-67677411D01*
X185830491Y-67030599D01*
X185777831Y-66977939D01*
X186137600Y-66977939D01*
X186137600Y-67083261D01*
X186164859Y-67184994D01*
X186217520Y-67276206D01*
X186291994Y-67350680D01*
X186383206Y-67403341D01*
X186484939Y-67430600D01*
X186590261Y-67430600D01*
X186691994Y-67403341D01*
X186783206Y-67350680D01*
X186857680Y-67276206D01*
X186910341Y-67184994D01*
X186937600Y-67083261D01*
X186937600Y-67030599D01*
X187244707Y-67030599D01*
X187891520Y-67677412D01*
X187927699Y-67606408D01*
X187927706Y-67606391D01*
X188000664Y-67381856D01*
X188000665Y-67381852D01*
X188028826Y-67204050D01*
X188028826Y-67204049D01*
X188031811Y-67185202D01*
X193393710Y-67185202D01*
X193928999Y-67720491D01*
X194464288Y-67185202D01*
X194447227Y-67176508D01*
X194447224Y-67176507D01*
X194245121Y-67110840D01*
X194035250Y-67077600D01*
X193822750Y-67077600D01*
X193612878Y-67110840D01*
X193410779Y-67176506D01*
X193393710Y-67185202D01*
X188031811Y-67185202D01*
X188037600Y-67148654D01*
X188037600Y-66912543D01*
X188000665Y-66679347D01*
X188000664Y-66679343D01*
X187927706Y-66454808D01*
X187927701Y-66454796D01*
X187891520Y-66383786D01*
X187244707Y-67030599D01*
X186937600Y-67030599D01*
X186937600Y-66977939D01*
X186910341Y-66876206D01*
X186857680Y-66784994D01*
X186783206Y-66710520D01*
X186691994Y-66657859D01*
X186590261Y-66630600D01*
X186484939Y-66630600D01*
X186383206Y-66657859D01*
X186291994Y-66710520D01*
X186217520Y-66784994D01*
X186164859Y-66876206D01*
X186137600Y-66977939D01*
X185777831Y-66977939D01*
X185183678Y-66383786D01*
X185147494Y-66454803D01*
X185147492Y-66454806D01*
X185074535Y-66679343D01*
X185074534Y-66679347D01*
X185037600Y-66912543D01*
X157170349Y-66912543D01*
X157568013Y-66514879D01*
X157496989Y-66478691D01*
X157272456Y-66405735D01*
X157272452Y-66405734D01*
X157039256Y-66368800D01*
X156803144Y-66368800D01*
X156569947Y-66405734D01*
X156569943Y-66405735D01*
X156345406Y-66478692D01*
X156345403Y-66478694D01*
X156274386Y-66514878D01*
X145585300Y-66514878D01*
X145585300Y-65676678D01*
X185890786Y-65676678D01*
X186537599Y-66323491D01*
X187184411Y-65676679D01*
X187113389Y-65640491D01*
X186888856Y-65567535D01*
X186888852Y-65567534D01*
X186655656Y-65530600D01*
X186419544Y-65530600D01*
X186186347Y-65567534D01*
X186186343Y-65567535D01*
X185961806Y-65640492D01*
X185961803Y-65640494D01*
X185890786Y-65676678D01*
X145585300Y-65676678D01*
X145585300Y-64861500D01*
X145604207Y-64803309D01*
X145653707Y-64767345D01*
X145684300Y-64762500D01*
X214411500Y-64762500D01*
X214469691Y-64781407D01*
G37*
%TD.AperFunction*%
%TA.AperFunction,Conductor*%
G36*
X169296196Y-103806601D02*
G01*
X169297758Y-103806148D01*
X169325144Y-103816007D01*
X169352840Y-103825006D01*
X169353796Y-103826322D01*
X169355326Y-103826873D01*
X169371683Y-103850942D01*
X169388804Y-103874506D01*
X169389718Y-103877478D01*
X169411657Y-103952993D01*
X169411658Y-103952995D01*
X169492745Y-104090105D01*
X169492746Y-104090106D01*
X169492748Y-104090109D01*
X169605391Y-104202752D01*
X169605393Y-104202753D01*
X169605394Y-104202754D01*
X169742504Y-104283841D01*
X169742505Y-104283841D01*
X169742508Y-104283843D01*
X169895484Y-104328287D01*
X169931228Y-104331100D01*
X169931233Y-104331100D01*
X170733567Y-104331100D01*
X170733572Y-104331100D01*
X170769316Y-104328287D01*
X170922292Y-104283843D01*
X171059409Y-104202752D01*
X171172052Y-104090109D01*
X171253143Y-103952992D01*
X171274831Y-103878340D01*
X171309222Y-103827736D01*
X171366790Y-103807010D01*
X171425546Y-103824080D01*
X171463047Y-103872426D01*
X171464966Y-103878332D01*
X171475648Y-103915100D01*
X171486657Y-103952992D01*
X171486658Y-103952995D01*
X171567745Y-104090105D01*
X171567746Y-104090106D01*
X171567748Y-104090109D01*
X171680391Y-104202752D01*
X171680393Y-104202753D01*
X171680394Y-104202754D01*
X171817504Y-104283841D01*
X171817505Y-104283841D01*
X171817508Y-104283843D01*
X171970484Y-104328287D01*
X172006228Y-104331100D01*
X172006233Y-104331100D01*
X172808567Y-104331100D01*
X172808572Y-104331100D01*
X172844316Y-104328287D01*
X172997292Y-104283843D01*
X173134409Y-104202752D01*
X173247052Y-104090109D01*
X173328143Y-103952992D01*
X173350082Y-103877477D01*
X173384474Y-103826873D01*
X173442042Y-103806148D01*
X173445151Y-103806099D01*
X174191613Y-103806099D01*
X174249804Y-103825006D01*
X174285768Y-103874506D01*
X174286676Y-103877461D01*
X174299205Y-103920586D01*
X174301358Y-103927994D01*
X174301358Y-103927995D01*
X174382445Y-104065105D01*
X174382446Y-104065106D01*
X174382448Y-104065109D01*
X174495091Y-104177752D01*
X174495093Y-104177753D01*
X174495094Y-104177754D01*
X174632204Y-104258841D01*
X174632205Y-104258841D01*
X174632208Y-104258843D01*
X174785184Y-104303287D01*
X174820928Y-104306100D01*
X174820933Y-104306100D01*
X175648267Y-104306100D01*
X175648272Y-104306100D01*
X175684016Y-104303287D01*
X175836992Y-104258843D01*
X175974109Y-104177752D01*
X176086752Y-104065109D01*
X176139982Y-103975103D01*
X176149387Y-103959200D01*
X176195282Y-103918737D01*
X176256196Y-103912979D01*
X176308861Y-103944125D01*
X176319813Y-103959200D01*
X176382445Y-104065105D01*
X176382446Y-104065106D01*
X176382448Y-104065109D01*
X176495091Y-104177752D01*
X176495093Y-104177753D01*
X176495094Y-104177754D01*
X176563036Y-104217935D01*
X176603499Y-104263830D01*
X176609257Y-104324744D01*
X176578111Y-104377409D01*
X176540264Y-104398216D01*
X176532210Y-104400556D01*
X176532204Y-104400558D01*
X176395094Y-104481645D01*
X176282445Y-104594294D01*
X176201358Y-104731404D01*
X176201357Y-104731408D01*
X176156914Y-104884380D01*
X176156912Y-104884387D01*
X176154100Y-104920133D01*
X176154100Y-105747466D01*
X176156912Y-105783212D01*
X176156912Y-105783215D01*
X176156913Y-105783216D01*
X176199991Y-105931491D01*
X176201357Y-105936191D01*
X176201358Y-105936195D01*
X176282445Y-106073305D01*
X176282446Y-106073306D01*
X176282448Y-106073309D01*
X176395091Y-106185952D01*
X176395093Y-106185953D01*
X176399496Y-106190356D01*
X176398612Y-106191239D01*
X176429329Y-106236436D01*
X176427409Y-106297591D01*
X176389910Y-106345938D01*
X176386234Y-106348319D01*
X176316260Y-106391479D01*
X176192280Y-106515459D01*
X176100243Y-106664675D01*
X176045094Y-106831103D01*
X176045094Y-106831105D01*
X176044819Y-106833799D01*
X176044819Y-106833800D01*
X178424381Y-106833800D01*
X178424380Y-106833799D01*
X178424105Y-106831105D01*
X178424105Y-106831103D01*
X178368957Y-106664677D01*
X178317570Y-106581366D01*
X178317569Y-106581364D01*
X178310807Y-106570401D01*
X186473901Y-106570401D01*
X186473901Y-106595386D01*
X186484392Y-106698087D01*
X186484394Y-106698094D01*
X186539543Y-106864524D01*
X186631580Y-107013740D01*
X186755559Y-107137719D01*
X186904775Y-107229756D01*
X187061400Y-107281657D01*
X187061400Y-106570401D01*
X187061399Y-106570400D01*
X186473902Y-106570400D01*
X186473901Y-106570401D01*
X178310807Y-106570401D01*
X178276919Y-106515459D01*
X178152940Y-106391480D01*
X178082966Y-106348320D01*
X178043364Y-106301679D01*
X178038741Y-106240668D01*
X178069747Y-106190399D01*
X178069704Y-106190356D01*
X178069886Y-106190173D01*
X178070862Y-106188592D01*
X178074078Y-106185981D01*
X178074104Y-106185954D01*
X178074109Y-106185952D01*
X178186752Y-106073309D01*
X178267843Y-105936192D01*
X178312287Y-105783216D01*
X178315100Y-105747472D01*
X178315100Y-105545412D01*
X186473900Y-105545412D01*
X186473900Y-105570399D01*
X186473901Y-105570400D01*
X187061399Y-105570400D01*
X187061400Y-105570399D01*
X187061400Y-104859142D01*
X186904777Y-104911042D01*
X186904773Y-104911044D01*
X186755559Y-105003080D01*
X186631580Y-105127059D01*
X186539543Y-105276275D01*
X186484393Y-105442706D01*
X186473900Y-105545412D01*
X178315100Y-105545412D01*
X178315100Y-104920128D01*
X178312287Y-104884384D01*
X178267843Y-104731408D01*
X178226825Y-104662051D01*
X178186754Y-104594294D01*
X178186753Y-104594293D01*
X178186752Y-104594291D01*
X178074109Y-104481648D01*
X178074106Y-104481646D01*
X178074105Y-104481645D01*
X177936995Y-104400558D01*
X177936993Y-104400557D01*
X177932641Y-104399293D01*
X177928936Y-104398216D01*
X177878332Y-104363825D01*
X177857607Y-104306257D01*
X177874678Y-104247501D01*
X177906159Y-104217937D01*
X177974109Y-104177752D01*
X178086752Y-104065109D01*
X178167843Y-103927992D01*
X178182518Y-103877478D01*
X178216909Y-103826874D01*
X178274477Y-103806148D01*
X178277587Y-103806099D01*
X178798149Y-103806099D01*
X178856340Y-103825006D01*
X178892304Y-103874506D01*
X178893218Y-103877478D01*
X178915157Y-103952993D01*
X178915158Y-103952995D01*
X178996245Y-104090105D01*
X178996246Y-104090106D01*
X178996248Y-104090109D01*
X179108891Y-104202752D01*
X179108893Y-104202753D01*
X179108894Y-104202754D01*
X179246004Y-104283841D01*
X179246005Y-104283841D01*
X179246008Y-104283843D01*
X179398984Y-104328287D01*
X179434728Y-104331100D01*
X179434733Y-104331100D01*
X180237067Y-104331100D01*
X180237072Y-104331100D01*
X180272816Y-104328287D01*
X180425792Y-104283843D01*
X180562909Y-104202752D01*
X180675552Y-104090109D01*
X180756643Y-103952992D01*
X180778331Y-103878340D01*
X180812722Y-103827736D01*
X180870290Y-103807010D01*
X180929046Y-103824080D01*
X180966547Y-103872426D01*
X180968466Y-103878332D01*
X180979148Y-103915100D01*
X180990157Y-103952992D01*
X180990158Y-103952995D01*
X181071245Y-104090105D01*
X181071246Y-104090106D01*
X181071248Y-104090109D01*
X181183891Y-104202752D01*
X181183893Y-104202753D01*
X181183894Y-104202754D01*
X181321004Y-104283841D01*
X181321005Y-104283841D01*
X181321008Y-104283843D01*
X181473984Y-104328287D01*
X181509728Y-104331100D01*
X181509733Y-104331100D01*
X182312067Y-104331100D01*
X182312072Y-104331100D01*
X182347816Y-104328287D01*
X182500792Y-104283843D01*
X182500799Y-104283838D01*
X182506512Y-104281368D01*
X182507324Y-104283246D01*
X182547444Y-104272270D01*
X189632482Y-104272270D01*
X189690673Y-104291177D01*
X189726637Y-104340677D01*
X189726637Y-104401863D01*
X189702486Y-104441273D01*
X189310666Y-104833094D01*
X189211894Y-104931866D01*
X189209425Y-104936144D01*
X189163953Y-104977082D01*
X189151312Y-104981708D01*
X189046506Y-105012157D01*
X189046504Y-105012158D01*
X188909394Y-105093245D01*
X188796746Y-105205893D01*
X188754427Y-105277450D01*
X188708531Y-105317912D01*
X188647617Y-105323670D01*
X188594952Y-105292523D01*
X188584953Y-105279026D01*
X188491219Y-105127059D01*
X188367240Y-105003080D01*
X188218026Y-104911044D01*
X188218022Y-104911042D01*
X188061400Y-104859142D01*
X188061400Y-107281656D01*
X188218024Y-107229756D01*
X188367240Y-107137719D01*
X188491219Y-107013740D01*
X188572639Y-106881738D01*
X188619280Y-106842136D01*
X188680291Y-106837513D01*
X188732367Y-106869634D01*
X188755617Y-106926229D01*
X188755900Y-106933710D01*
X188755900Y-108670500D01*
X188736993Y-108728691D01*
X188687493Y-108764655D01*
X188656900Y-108769500D01*
X185711025Y-108769500D01*
X185535278Y-108797334D01*
X185366038Y-108852324D01*
X185207489Y-108933108D01*
X185207483Y-108933112D01*
X185063534Y-109037698D01*
X184937698Y-109163534D01*
X184833112Y-109307483D01*
X184833108Y-109307489D01*
X184752324Y-109466038D01*
X184697334Y-109635278D01*
X184669500Y-109811024D01*
X184669500Y-109988975D01*
X184697334Y-110164721D01*
X184752324Y-110333961D01*
X184833108Y-110492510D01*
X184833112Y-110492516D01*
X184937698Y-110636465D01*
X184937700Y-110636467D01*
X184937703Y-110636471D01*
X185063529Y-110762297D01*
X185063532Y-110762299D01*
X185063534Y-110762301D01*
X185064612Y-110763084D01*
X185207489Y-110866891D01*
X185366039Y-110947676D01*
X185535274Y-111002664D01*
X185535275Y-111002664D01*
X185535278Y-111002665D01*
X185711025Y-111030500D01*
X185711028Y-111030500D01*
X188656900Y-111030500D01*
X188715091Y-111049407D01*
X188751055Y-111098907D01*
X188755900Y-111129500D01*
X188755900Y-111557877D01*
X188736993Y-111616068D01*
X188726904Y-111627881D01*
X188264281Y-112090504D01*
X188209764Y-112118281D01*
X188194277Y-112119500D01*
X166164669Y-112119500D01*
X166106478Y-112100593D01*
X166094666Y-112090504D01*
X166027009Y-112022848D01*
X165929103Y-111964946D01*
X165915747Y-111949796D01*
X165899406Y-111937924D01*
X165895977Y-111927371D01*
X165888641Y-111919050D01*
X165880499Y-111879733D01*
X165880499Y-111820266D01*
X165899406Y-111762075D01*
X165929100Y-111735054D01*
X166027009Y-111677152D01*
X166139652Y-111564509D01*
X166220743Y-111427392D01*
X166265187Y-111274416D01*
X166268000Y-111238672D01*
X166268000Y-110161328D01*
X166265187Y-110125584D01*
X166220743Y-109972608D01*
X166205901Y-109947512D01*
X166139654Y-109835494D01*
X166139653Y-109835493D01*
X166139652Y-109835491D01*
X166027009Y-109722848D01*
X166027006Y-109722846D01*
X165929103Y-109664946D01*
X165888641Y-109619050D01*
X165880499Y-109579733D01*
X165880499Y-109233500D01*
X168130543Y-109233500D01*
X168182443Y-109390124D01*
X168274480Y-109539340D01*
X168398459Y-109663319D01*
X168547675Y-109755356D01*
X168714106Y-109810506D01*
X168816812Y-109820999D01*
X168841800Y-109820998D01*
X168841800Y-109233501D01*
X169841800Y-109233501D01*
X169841800Y-109820998D01*
X169841801Y-109820999D01*
X169866786Y-109820999D01*
X169969487Y-109810507D01*
X169969499Y-109810504D01*
X170135924Y-109755356D01*
X170285140Y-109663319D01*
X170409119Y-109539340D01*
X170501156Y-109390124D01*
X170553057Y-109233500D01*
X169841801Y-109233500D01*
X169841800Y-109233501D01*
X168841800Y-109233501D01*
X168841799Y-109233500D01*
X168130543Y-109233500D01*
X165880499Y-109233500D01*
X165880499Y-106762054D01*
X165899406Y-106703863D01*
X165948906Y-106667899D01*
X166010092Y-106667899D01*
X166059592Y-106703863D01*
X166068435Y-106718565D01*
X166120349Y-106824757D01*
X166210143Y-106914551D01*
X166324228Y-106970324D01*
X166398190Y-106981100D01*
X166398193Y-106981100D01*
X167670406Y-106981100D01*
X167670410Y-106981100D01*
X167744372Y-106970324D01*
X167858457Y-106914551D01*
X167948251Y-106824757D01*
X168004024Y-106710672D01*
X168014800Y-106636710D01*
X168014800Y-106164490D01*
X168005021Y-106097370D01*
X168005021Y-106068827D01*
X168005053Y-106068608D01*
X168014800Y-106001710D01*
X168014800Y-105529490D01*
X168005021Y-105462370D01*
X168005021Y-105433827D01*
X168014800Y-105366710D01*
X168014800Y-104901059D01*
X168033707Y-104842868D01*
X168083207Y-104806904D01*
X168144393Y-104806904D01*
X168183804Y-104831055D01*
X168732305Y-105379556D01*
X168735931Y-105386673D01*
X168742394Y-105391369D01*
X168749557Y-105413417D01*
X168760082Y-105434073D01*
X168761301Y-105449560D01*
X168761301Y-105620748D01*
X168742394Y-105678939D01*
X168692894Y-105714903D01*
X168689923Y-105715817D01*
X168614404Y-105737758D01*
X168477294Y-105818845D01*
X168364645Y-105931494D01*
X168283558Y-106068604D01*
X168283557Y-106068608D01*
X168239114Y-106221580D01*
X168239112Y-106221587D01*
X168237944Y-106236436D01*
X168236649Y-106252900D01*
X168236300Y-106257333D01*
X168236300Y-107059666D01*
X168239112Y-107095412D01*
X168239112Y-107095415D01*
X168239113Y-107095416D01*
X168262837Y-107177075D01*
X168283557Y-107248391D01*
X168283558Y-107248395D01*
X168364645Y-107385505D01*
X168364646Y-107385506D01*
X168364648Y-107385509D01*
X168477291Y-107498152D01*
X168477293Y-107498153D01*
X168477294Y-107498154D01*
X168548849Y-107540472D01*
X168589312Y-107586368D01*
X168595070Y-107647281D01*
X168563924Y-107699946D01*
X168550427Y-107709946D01*
X168398457Y-107803682D01*
X168274480Y-107927659D01*
X168182443Y-108076875D01*
X168130542Y-108233500D01*
X170553057Y-108233500D01*
X170501156Y-108076875D01*
X170409119Y-107927659D01*
X170315260Y-107833800D01*
X176044819Y-107833800D01*
X176045094Y-107836494D01*
X176045094Y-107836496D01*
X176100243Y-108002924D01*
X176192280Y-108152140D01*
X176316259Y-108276119D01*
X176465475Y-108368156D01*
X176631900Y-108423304D01*
X176631912Y-108423307D01*
X176734599Y-108433797D01*
X176734600Y-108433796D01*
X176734600Y-107833801D01*
X177734600Y-107833801D01*
X177734600Y-108433795D01*
X177837296Y-108423305D01*
X177837299Y-108423304D01*
X178003724Y-108368156D01*
X178152940Y-108276119D01*
X178276919Y-108152140D01*
X178368956Y-108002924D01*
X178424105Y-107836496D01*
X178424105Y-107836494D01*
X178424381Y-107833800D01*
X177734601Y-107833800D01*
X177734600Y-107833801D01*
X176734600Y-107833801D01*
X176734599Y-107833800D01*
X176044819Y-107833800D01*
X170315260Y-107833800D01*
X170285142Y-107803682D01*
X170133172Y-107709946D01*
X170093571Y-107663305D01*
X170088948Y-107602294D01*
X170121069Y-107550218D01*
X170134741Y-107540476D01*
X170206309Y-107498152D01*
X170318952Y-107385509D01*
X170400043Y-107248392D01*
X170444487Y-107095416D01*
X170447300Y-107059672D01*
X170447300Y-106257328D01*
X170444487Y-106221584D01*
X170400043Y-106068608D01*
X170380453Y-106035484D01*
X170318954Y-105931494D01*
X170318953Y-105931493D01*
X170318952Y-105931491D01*
X170206309Y-105818848D01*
X170206306Y-105818846D01*
X170206305Y-105818845D01*
X170069195Y-105737758D01*
X169993677Y-105715817D01*
X169943073Y-105681424D01*
X169922348Y-105623856D01*
X169922299Y-105620748D01*
X169922299Y-105252512D01*
X169922300Y-105252499D01*
X169922300Y-105091676D01*
X169922299Y-105091674D01*
X169919947Y-105082898D01*
X169882739Y-104944037D01*
X169863689Y-104911042D01*
X169806316Y-104811668D01*
X169806315Y-104811666D01*
X168969752Y-103975103D01*
X168941975Y-103920586D01*
X168951546Y-103860154D01*
X168994811Y-103816889D01*
X169039756Y-103806099D01*
X169294649Y-103806099D01*
X169296196Y-103806601D01*
G37*
%TD.AperFunction*%
%TA.AperFunction,Conductor*%
G36*
X176974261Y-91518525D02*
G01*
X176985213Y-91533600D01*
X177047845Y-91639505D01*
X177047846Y-91639506D01*
X177047848Y-91639509D01*
X177160491Y-91752152D01*
X177160493Y-91752153D01*
X177160494Y-91752154D01*
X177297604Y-91833241D01*
X177297605Y-91833241D01*
X177297608Y-91833243D01*
X177450584Y-91877687D01*
X177486328Y-91880500D01*
X177486333Y-91880500D01*
X178313667Y-91880500D01*
X178313672Y-91880500D01*
X178349416Y-91877687D01*
X178502392Y-91833243D01*
X178639509Y-91752152D01*
X178670352Y-91721309D01*
X178682166Y-91709496D01*
X178736683Y-91681719D01*
X178752169Y-91680500D01*
X179713700Y-91680500D01*
X179771891Y-91699407D01*
X179807855Y-91748907D01*
X179812700Y-91779500D01*
X179812700Y-95046949D01*
X179812699Y-95046975D01*
X179812699Y-95194948D01*
X179831770Y-95290821D01*
X179831770Y-95290822D01*
X179840772Y-95336078D01*
X179840772Y-95336080D01*
X179895837Y-95469019D01*
X179895838Y-95469021D01*
X179895839Y-95469022D01*
X179975783Y-95588667D01*
X180077533Y-95690417D01*
X180077536Y-95690419D01*
X180966380Y-96579263D01*
X180966383Y-96579267D01*
X181068133Y-96681017D01*
X181176690Y-96753552D01*
X181187774Y-96760959D01*
X181187776Y-96760960D01*
X181187778Y-96760961D01*
X181320721Y-96816028D01*
X181461852Y-96844101D01*
X181461853Y-96844101D01*
X181610628Y-96844101D01*
X181610648Y-96844100D01*
X192086809Y-96844100D01*
X192145000Y-96863007D01*
X192156813Y-96873096D01*
X192712304Y-97428587D01*
X192740081Y-97483104D01*
X192741300Y-97498591D01*
X192741300Y-100132946D01*
X192722393Y-100191137D01*
X192672893Y-100227101D01*
X192626814Y-100230727D01*
X192605807Y-100227400D01*
X192345794Y-100227400D01*
X192257503Y-100241384D01*
X192249085Y-100242718D01*
X192249084Y-100242718D01*
X192241390Y-100243937D01*
X192240837Y-100240446D01*
X192210769Y-100240403D01*
X192210210Y-100243937D01*
X192202515Y-100242718D01*
X192134814Y-100231995D01*
X192105804Y-100227400D01*
X191845794Y-100227400D01*
X191757633Y-100241364D01*
X191749085Y-100242718D01*
X191632519Y-100302111D01*
X191540011Y-100394619D01*
X191480618Y-100511184D01*
X191465300Y-100607895D01*
X191465300Y-101103400D01*
X191446393Y-101161591D01*
X191396893Y-101197555D01*
X191366300Y-101202400D01*
X190870794Y-101202400D01*
X190782633Y-101216364D01*
X190774085Y-101217718D01*
X190659501Y-101276101D01*
X190657519Y-101277111D01*
X190565011Y-101369619D01*
X190505618Y-101486184D01*
X190490300Y-101582895D01*
X190490300Y-101842905D01*
X190506837Y-101947310D01*
X190503303Y-101947869D01*
X190503346Y-101977937D01*
X190506837Y-101978490D01*
X190490300Y-102082895D01*
X190490300Y-102288507D01*
X190471393Y-102346698D01*
X190421893Y-102382662D01*
X190360707Y-102382662D01*
X190336300Y-102370823D01*
X190208385Y-102285353D01*
X190203257Y-102283229D01*
X190017903Y-102206453D01*
X189815690Y-102166230D01*
X189815688Y-102166230D01*
X189609513Y-102166230D01*
X189609510Y-102166230D01*
X189555228Y-102177028D01*
X189535914Y-102178930D01*
X182547444Y-102178930D01*
X182507324Y-102167953D01*
X182506512Y-102169832D01*
X182500794Y-102167358D01*
X182500793Y-102167357D01*
X182500792Y-102167357D01*
X182347816Y-102122913D01*
X182347815Y-102122912D01*
X182347812Y-102122912D01*
X182325106Y-102121125D01*
X182312072Y-102120100D01*
X181509728Y-102120100D01*
X181497580Y-102121056D01*
X181473987Y-102122912D01*
X181473980Y-102122914D01*
X181321008Y-102167357D01*
X181321004Y-102167358D01*
X181183894Y-102248445D01*
X181071245Y-102361094D01*
X180990158Y-102498204D01*
X180990157Y-102498208D01*
X180968469Y-102572858D01*
X180934078Y-102623464D01*
X180876509Y-102644189D01*
X180817754Y-102627119D01*
X180780253Y-102578773D01*
X180778331Y-102572858D01*
X180768866Y-102540281D01*
X180756643Y-102498208D01*
X180747208Y-102482255D01*
X180675554Y-102361094D01*
X180675553Y-102361093D01*
X180675552Y-102361091D01*
X180562909Y-102248448D01*
X180562906Y-102248446D01*
X180562905Y-102248445D01*
X180425795Y-102167358D01*
X180425792Y-102167357D01*
X180272816Y-102122913D01*
X180272815Y-102122912D01*
X180272812Y-102122912D01*
X180250106Y-102121125D01*
X180237072Y-102120100D01*
X179434728Y-102120100D01*
X179422580Y-102121056D01*
X179398987Y-102122912D01*
X179398980Y-102122914D01*
X179246008Y-102167357D01*
X179246004Y-102167358D01*
X179108894Y-102248445D01*
X178996245Y-102361094D01*
X178915158Y-102498204D01*
X178915157Y-102498206D01*
X178893218Y-102573722D01*
X178858826Y-102624327D01*
X178801258Y-102645052D01*
X178798149Y-102645101D01*
X178277587Y-102645101D01*
X178219396Y-102626194D01*
X178183432Y-102576694D01*
X178182523Y-102573738D01*
X178167843Y-102523208D01*
X178163289Y-102515508D01*
X178086754Y-102386094D01*
X178086753Y-102386093D01*
X178086752Y-102386091D01*
X177974109Y-102273448D01*
X177974106Y-102273446D01*
X177974105Y-102273445D01*
X177836995Y-102192358D01*
X177836992Y-102192357D01*
X177684016Y-102147913D01*
X177684015Y-102147912D01*
X177684012Y-102147912D01*
X177661306Y-102146125D01*
X177648272Y-102145100D01*
X176820928Y-102145100D01*
X176808780Y-102146056D01*
X176785187Y-102147912D01*
X176785180Y-102147914D01*
X176632208Y-102192357D01*
X176632204Y-102192358D01*
X176495094Y-102273445D01*
X176382445Y-102386094D01*
X176319813Y-102491999D01*
X176273917Y-102532462D01*
X176213003Y-102538220D01*
X176160339Y-102507074D01*
X176149387Y-102491999D01*
X176086754Y-102386094D01*
X176086753Y-102386093D01*
X176086752Y-102386091D01*
X175974109Y-102273448D01*
X175974106Y-102273446D01*
X175974105Y-102273445D01*
X175836995Y-102192358D01*
X175836992Y-102192357D01*
X175684016Y-102147913D01*
X175684015Y-102147912D01*
X175684012Y-102147912D01*
X175661306Y-102146125D01*
X175648272Y-102145100D01*
X174820928Y-102145100D01*
X174808780Y-102146056D01*
X174785187Y-102147912D01*
X174785180Y-102147914D01*
X174632208Y-102192357D01*
X174632204Y-102192358D01*
X174495094Y-102273445D01*
X174382445Y-102386094D01*
X174301358Y-102523204D01*
X174301358Y-102523205D01*
X174301357Y-102523207D01*
X174301357Y-102523208D01*
X174286933Y-102572858D01*
X174286682Y-102573721D01*
X174252291Y-102624326D01*
X174194723Y-102645052D01*
X174191613Y-102645101D01*
X173445151Y-102645101D01*
X173386960Y-102626194D01*
X173350996Y-102576694D01*
X173350082Y-102573722D01*
X173341506Y-102544203D01*
X173328143Y-102498208D01*
X173318708Y-102482255D01*
X173247054Y-102361094D01*
X173247053Y-102361093D01*
X173247052Y-102361091D01*
X173134409Y-102248448D01*
X173134406Y-102248446D01*
X173134405Y-102248445D01*
X172997295Y-102167358D01*
X172997292Y-102167357D01*
X172844316Y-102122913D01*
X172844315Y-102122912D01*
X172844312Y-102122912D01*
X172821606Y-102121125D01*
X172808572Y-102120100D01*
X172006228Y-102120100D01*
X171994080Y-102121056D01*
X171970487Y-102122912D01*
X171970480Y-102122914D01*
X171817508Y-102167357D01*
X171817504Y-102167358D01*
X171680394Y-102248445D01*
X171567745Y-102361094D01*
X171486658Y-102498204D01*
X171486657Y-102498208D01*
X171464969Y-102572858D01*
X171430578Y-102623464D01*
X171373009Y-102644189D01*
X171314254Y-102627119D01*
X171276753Y-102578773D01*
X171274831Y-102572858D01*
X171265366Y-102540281D01*
X171253143Y-102498208D01*
X171243708Y-102482255D01*
X171172054Y-102361094D01*
X171172053Y-102361093D01*
X171172052Y-102361091D01*
X171059409Y-102248448D01*
X171059406Y-102248446D01*
X171059405Y-102248445D01*
X170922295Y-102167358D01*
X170922292Y-102167357D01*
X170769316Y-102122913D01*
X170769315Y-102122912D01*
X170769312Y-102122912D01*
X170746606Y-102121125D01*
X170733572Y-102120100D01*
X169931228Y-102120100D01*
X169919080Y-102121056D01*
X169895487Y-102122912D01*
X169895480Y-102122914D01*
X169742508Y-102167357D01*
X169742504Y-102167358D01*
X169605394Y-102248445D01*
X169492745Y-102361094D01*
X169411658Y-102498204D01*
X169411657Y-102498206D01*
X169389718Y-102573722D01*
X169355326Y-102624327D01*
X169297758Y-102645052D01*
X169294649Y-102645101D01*
X169075820Y-102645101D01*
X169017629Y-102626194D01*
X168981665Y-102576694D01*
X168981665Y-102515508D01*
X169017629Y-102466008D01*
X169026309Y-102460370D01*
X169096035Y-102420115D01*
X169511415Y-102004735D01*
X169587839Y-101872364D01*
X169627399Y-101724724D01*
X169627399Y-101571876D01*
X169627399Y-98550080D01*
X169646306Y-98491889D01*
X169682919Y-98461139D01*
X169771057Y-98418051D01*
X169853993Y-98335114D01*
X169908507Y-98307338D01*
X169968940Y-98316909D01*
X170003248Y-98345790D01*
X170089707Y-98461284D01*
X170089715Y-98461292D01*
X170204809Y-98547452D01*
X170204811Y-98547453D01*
X170339518Y-98597696D01*
X170339529Y-98597698D01*
X170399076Y-98604100D01*
X170446899Y-98604100D01*
X170446900Y-98604099D01*
X170446900Y-97904101D01*
X171446900Y-97904101D01*
X171446900Y-98604099D01*
X171446901Y-98604100D01*
X171494724Y-98604100D01*
X171554270Y-98597698D01*
X171554281Y-98597696D01*
X171688988Y-98547453D01*
X171688990Y-98547452D01*
X171804084Y-98461292D01*
X171804092Y-98461284D01*
X171890252Y-98346190D01*
X171890253Y-98346188D01*
X171940496Y-98211481D01*
X171940498Y-98211470D01*
X171946900Y-98151924D01*
X171946900Y-97904101D01*
X171946899Y-97904100D01*
X171446901Y-97904100D01*
X171446900Y-97904101D01*
X170446900Y-97904101D01*
X170446900Y-96382767D01*
X170465807Y-96324576D01*
X170515307Y-96288612D01*
X170531627Y-96284801D01*
X170533006Y-96284600D01*
X170533010Y-96284600D01*
X170606972Y-96273824D01*
X170721057Y-96218051D01*
X170735007Y-96204101D01*
X171446900Y-96204101D01*
X171446900Y-96904099D01*
X171446901Y-96904100D01*
X171946899Y-96904100D01*
X171946900Y-96904099D01*
X171946900Y-96656275D01*
X171940498Y-96596729D01*
X171940496Y-96596718D01*
X171890253Y-96462011D01*
X171890252Y-96462009D01*
X171804092Y-96346915D01*
X171804084Y-96346907D01*
X171688990Y-96260747D01*
X171688988Y-96260746D01*
X171554281Y-96210503D01*
X171554270Y-96210501D01*
X171494724Y-96204100D01*
X171446901Y-96204100D01*
X171446900Y-96204101D01*
X170735007Y-96204101D01*
X170810851Y-96128257D01*
X170866624Y-96014172D01*
X170877400Y-95940210D01*
X170877400Y-94467990D01*
X170877400Y-91755800D01*
X170896307Y-91697609D01*
X170945807Y-91661645D01*
X170976400Y-91656800D01*
X175024131Y-91656800D01*
X175082322Y-91675707D01*
X175094134Y-91685796D01*
X175129648Y-91721309D01*
X175160491Y-91752152D01*
X175202764Y-91777152D01*
X175297604Y-91833241D01*
X175297605Y-91833241D01*
X175297608Y-91833243D01*
X175450584Y-91877687D01*
X175486328Y-91880500D01*
X175486333Y-91880500D01*
X176313667Y-91880500D01*
X176313672Y-91880500D01*
X176349416Y-91877687D01*
X176502392Y-91833243D01*
X176639509Y-91752152D01*
X176752152Y-91639509D01*
X176801191Y-91556589D01*
X176814787Y-91533600D01*
X176860682Y-91493137D01*
X176921596Y-91487379D01*
X176974261Y-91518525D01*
G37*
%TD.AperFunction*%
%TD*%
%TA.AperFunction,NonConductor*%
G36*
X164396797Y-90922231D02*
G01*
X164467358Y-90942731D01*
X164517963Y-90977122D01*
X164538689Y-91034691D01*
X164521619Y-91093446D01*
X164473273Y-91130947D01*
X164467358Y-91132868D01*
X164396797Y-91153369D01*
X164394462Y-91153295D01*
X164369177Y-91157300D01*
X161315958Y-91157300D01*
X161265565Y-91143514D01*
X161230896Y-91123011D01*
X161190436Y-91077118D01*
X161184678Y-91016204D01*
X161215824Y-90963539D01*
X161230890Y-90952592D01*
X161265565Y-90932085D01*
X161315958Y-90918300D01*
X164369177Y-90918300D01*
X164396797Y-90922231D01*
G37*
%TD.AperFunction*%
%TA.AperFunction,NonConductor*%
G36*
X150761646Y-97715380D02*
G01*
X150799147Y-97763726D01*
X150801069Y-97769641D01*
X150822757Y-97844292D01*
X150822758Y-97844295D01*
X150903845Y-97981405D01*
X150903846Y-97981406D01*
X150903848Y-97981409D01*
X151016491Y-98094052D01*
X151016493Y-98094053D01*
X151016494Y-98094054D01*
X151153604Y-98175141D01*
X151153605Y-98175141D01*
X151153608Y-98175143D01*
X151306584Y-98219587D01*
X151342328Y-98222400D01*
X151342333Y-98222400D01*
X152144667Y-98222400D01*
X152144672Y-98222400D01*
X152180416Y-98219587D01*
X152333392Y-98175143D01*
X152470509Y-98094052D01*
X152511440Y-98053121D01*
X152538166Y-98026396D01*
X152545282Y-98022770D01*
X152549978Y-98016307D01*
X152572029Y-98009142D01*
X152592683Y-97998619D01*
X152608169Y-97997400D01*
X152680401Y-97997400D01*
X152738592Y-98016307D01*
X152774556Y-98065807D01*
X152779401Y-98096400D01*
X152779401Y-99283476D01*
X152779401Y-99436324D01*
X152818961Y-99583964D01*
X152895385Y-99716335D01*
X153313264Y-100134214D01*
X153729547Y-100550497D01*
X153757324Y-100605014D01*
X153747753Y-100665446D01*
X153704488Y-100708711D01*
X153659543Y-100719501D01*
X152681458Y-100719501D01*
X152623267Y-100700594D01*
X152611454Y-100690505D01*
X150277995Y-98357045D01*
X150274368Y-98349927D01*
X150267906Y-98345232D01*
X150260742Y-98323183D01*
X150250218Y-98302528D01*
X150248999Y-98287041D01*
X150248999Y-98237166D01*
X150267906Y-98178975D01*
X150297600Y-98151954D01*
X150395509Y-98094052D01*
X150508152Y-97981409D01*
X150589243Y-97844292D01*
X150610931Y-97769640D01*
X150645322Y-97719036D01*
X150702890Y-97698310D01*
X150761646Y-97715380D01*
G37*
%TD.AperFunction*%
%TA.AperFunction,NonConductor*%
G36*
X157276732Y-101099406D02*
G01*
X157288545Y-101109495D01*
X158655147Y-102476097D01*
X158665671Y-102496752D01*
X158679298Y-102515508D01*
X158679298Y-102523497D01*
X158682924Y-102530614D01*
X158679298Y-102553508D01*
X158679298Y-102576694D01*
X158674602Y-102583156D01*
X158673353Y-102591046D01*
X158656961Y-102607437D01*
X158643334Y-102626194D01*
X158635736Y-102628662D01*
X158630088Y-102634311D01*
X158585143Y-102645101D01*
X158507059Y-102645101D01*
X158448868Y-102626194D01*
X158437055Y-102616105D01*
X157070453Y-101249503D01*
X157042676Y-101194986D01*
X157052247Y-101134554D01*
X157095512Y-101091289D01*
X157140457Y-101080499D01*
X157218541Y-101080499D01*
X157276732Y-101099406D01*
G37*
%TD.AperFunction*%
%TA.AperFunction,NonConductor*%
G36*
X214462928Y-102472713D02*
G01*
X214502829Y-102519097D01*
X214510500Y-102557307D01*
X214510500Y-105868492D01*
X214491593Y-105926683D01*
X214442093Y-105962647D01*
X214380907Y-105962647D01*
X214331407Y-105926683D01*
X214315155Y-105891264D01*
X214313798Y-105885526D01*
X214263553Y-105750811D01*
X214263552Y-105750809D01*
X214177392Y-105635715D01*
X214177384Y-105635707D01*
X214062290Y-105549547D01*
X213963174Y-105512579D01*
X213915260Y-105474528D01*
X213898862Y-105415581D01*
X213920244Y-105358254D01*
X213954287Y-105330883D01*
X214044357Y-105286851D01*
X214134151Y-105197057D01*
X214189924Y-105082972D01*
X214200700Y-105009010D01*
X214200700Y-103416790D01*
X214189924Y-103342828D01*
X214134151Y-103228743D01*
X214044357Y-103138949D01*
X213954289Y-103094917D01*
X213910317Y-103052376D01*
X213899747Y-102992110D01*
X213926619Y-102937142D01*
X213963175Y-102913220D01*
X214062288Y-102876253D01*
X214062290Y-102876252D01*
X214177384Y-102790092D01*
X214177392Y-102790084D01*
X214263552Y-102674990D01*
X214263553Y-102674988D01*
X214313797Y-102540278D01*
X214315154Y-102534537D01*
X214346938Y-102482255D01*
X214403383Y-102458640D01*
X214462928Y-102472713D01*
G37*
%TD.AperFunction*%
%TA.AperFunction,NonConductor*%
G36*
X164408280Y-111479268D02*
G01*
X164418027Y-111492949D01*
X164460346Y-111564506D01*
X164460348Y-111564509D01*
X164572991Y-111677152D01*
X164670897Y-111735054D01*
X164684253Y-111750202D01*
X164700594Y-111762075D01*
X164704022Y-111772626D01*
X164711359Y-111780948D01*
X164719501Y-111820266D01*
X164719501Y-111879733D01*
X164700594Y-111937924D01*
X164670897Y-111964946D01*
X164572993Y-112022846D01*
X164460346Y-112135493D01*
X164418027Y-112207050D01*
X164372131Y-112247512D01*
X164311217Y-112253270D01*
X164258552Y-112222123D01*
X164248553Y-112208626D01*
X164154819Y-112056659D01*
X164030839Y-111932679D01*
X164026319Y-111929105D01*
X164027625Y-111927453D01*
X163993806Y-111887634D01*
X163989173Y-111826624D01*
X164021286Y-111774543D01*
X164026457Y-111770785D01*
X164030839Y-111767320D01*
X164154819Y-111643340D01*
X164248553Y-111491373D01*
X164295194Y-111451771D01*
X164356204Y-111447148D01*
X164408280Y-111479268D01*
G37*
%TD.AperFunction*%
D43*
X145084800Y-64262000D02*
X215011000Y-64262000D01*
X215011000Y-123152600D01*
X145084800Y-123152600D01*
X145084800Y-64262000D01*
M02*
